# Exported from Wings 3D 1.5.4
mtllib laser_particle_01.mtl
o mjm_LaserSight_mjm_LaserSight
#16 vertices, 22 faces
v -5.6568963e-2 -5.6569001e-2 2.7755576e-17
v -7.9999963e-2 3.0000000e-9 1.00000000
v -7.9999963e-2 3.0000000e-9 2.7755576e-17
v -5.6568963e-2 -5.6569001e-2 1.00000000
v 3.7500000e-8 -8.0000001e-2 2.7755576e-17
v 3.7500000e-8 -8.0000001e-2 1.00000000
v 5.6568937e-2 -5.6569001e-2 2.7755576e-17
v 5.6568937e-2 -5.6569001e-2 1.00000000
v 7.9999937e-2 3.0000000e-9 2.7755576e-17
v 7.9999937e-2 3.0000000e-9 1.00000000
v 5.6568937e-2 5.6568999e-2 2.7755576e-17
v 5.6568937e-2 5.6568999e-2 1.00000000
v 3.7500000e-8 7.9999999e-2 2.7755576e-17
v 3.7500000e-8 7.9999999e-2 1.00000000
v -5.6568963e-2 5.6568999e-2 2.7755576e-17
v -5.6568963e-2 5.6568999e-2 1.00000000
vt 0.52092500 0.62447900
vt 0.52092500 0.62624300
vt 0.52305500 0.62536100
vt 0.52632700 0.61143600
vt 0.52632700 0.63928600
vt 0.52757500 0.61018900
vt 0.52757500 0.64053400
vt 0.52845700 0.61231900
vt 0.52845700 0.63840300
vt 0.54061700 0.60478600
vt 0.54061700 0.64593600
vt 0.54150000 0.60691700
vt 0.54150000 0.64380600
vt 0.54238200 0.60478600
vt 0.54238200 0.64593600
vt 0.55454200 0.61231900
vt 0.55454200 0.63840300
vt 0.55542400 0.61018900
vt 0.55542400 0.64053400
vt 0.55667200 0.61143600
vt 0.55667200 0.63928600
vt 0.55994400 0.62536100
vt 0.56207400 0.62447900
vt 0.56207400 0.62624300
vn -0.79717746 -0.60374506 0.0000000e+0
vn -0.67564082 -9.3283938e-2 0.73130540
vn -0.99060284 0.13676996 0.0000000e+0
vn -0.56852428 -0.75067235 0.33655782
vn -0.13676974 -0.99060287 0.0000000e+0
vn 7.8393952e-2 -0.56779309 0.81942992
vn 0.60374542 -0.79717718 0.0000000e+0
vn 0.75067248 -0.56852413 0.33655779
vn 0.99060284 -0.13676991 0.0000000e+0
vn 0.67564082 9.3283971e-2 0.73130540
vn 0.79717756 0.60374493 0.0000000e+0
vn 0.56852460 0.75067212 0.33655779
vn 0.13677036 0.99060278 0.0000000e+0
vn -7.8393597e-2 0.56779314 0.81942992
vn -0.60374507 0.79717745 0.0000000e+0
vn -0.75067234 0.56852429 0.33655782
g mjm_LaserSight_mjm_LaserSight_DefaultMaterial
usemtl DefaultMaterial
s 1
f 1/4/1 4/8/4 2/3/2
f 1/6/1 5/10/5 4/8/4
f 2/3/2 3/1/3 1/4/1
f 2/3/2 16/9/16 3/2/3
f 3/2/3 16/9/16 15/5/15
f 4/8/4 6/12/6 2/3/2
f 5/10/5 6/12/6 4/8/4
f 5/14/5 7/18/7 6/12/6
f 6/12/6 14/13/14 2/3/2
f 7/18/7 8/16/8 6/12/6
f 7/20/7 9/23/9 8/16/8
f 8/16/8 10/22/10 6/12/6
f 9/23/9 10/22/10 8/16/8
f 9/24/9 11/21/11 10/22/10
f 10/22/10 14/13/14 6/12/6
f 11/21/11 12/17/12 10/22/10
f 11/19/11 13/15/13 12/17/12
f 12/17/12 14/13/14 10/22/10
f 13/15/13 14/13/14 12/17/12
f 13/11/13 15/7/15 14/13/14
f 14/13/14 16/9/16 2/3/2
f 15/7/15 16/9/16 14/13/14
