# Blender v3.5.0 OBJ File: 'ScrapMechanicModpackRework.blend'
# www.blender.org
mtllib Als_RimLarge1.mtl
o Als_RimLarge1_Cylinder.010
v -0.000000 2.035603 0.500001
v -0.646694 1.561258 0.241615
v -0.778992 1.880652 0.500001
v -1.439389 1.439389 0.500001
v -1.561257 0.646694 0.241615
v -1.880652 0.778991 0.500001
v -1.689893 0.000000 0.241615
v -2.035603 -0.000000 0.500001
v -1.880652 -0.778992 0.500001
v -1.439389 -1.439389 0.500001
v -0.646694 -1.561257 0.241615
v -0.778992 -1.880652 0.500001
v -0.000000 -2.035603 0.500001
v 0.646694 -1.561257 0.241615
v 0.778992 -1.880652 0.500001
v 1.194935 -1.194934 0.241615
v 1.439389 -1.439389 0.500001
v 1.561257 -0.646694 0.241615
v 1.880652 -0.778992 0.500001
v 2.035603 -0.000000 0.500001
v 1.561257 0.646694 0.241615
v 1.880652 0.778991 0.500001
v 1.194935 1.194935 0.241615
v 1.439389 1.439389 0.500001
v 0.778992 1.880652 0.500001
v -0.000000 2.035603 0.381835
v -0.778992 1.880652 0.381835
v -1.439389 1.439389 0.381834
v -1.880652 0.778992 0.381834
v -2.035603 0.000000 0.381834
v -1.880652 -0.778992 0.381834
v -1.439389 -1.439388 0.381834
v -0.778992 -1.880652 0.381834
v -0.000000 -2.035603 0.381834
v 0.778992 -1.880652 0.381834
v 1.439389 -1.439388 0.381834
v 1.880652 -0.778992 0.381834
v 2.035603 0.000000 0.381834
v 1.880652 0.778992 0.381834
v 1.439389 1.439389 0.381834
v 0.778992 1.880652 0.381835
v -0.000000 1.890898 0.239138
v -0.723615 1.746961 0.239138
v -1.337066 1.337067 0.239138
v -1.746961 0.723615 0.239138
v -1.890898 0.000000 0.239138
v -1.746961 -0.723615 0.239138
v -1.337066 -1.337066 0.239138
v -0.723615 -1.746961 0.239138
v -0.000000 -1.890898 0.239138
v 0.723615 -1.746961 0.239138
v 1.337066 -1.337066 0.239138
v 1.746961 -0.723615 0.239138
v 1.890898 0.000000 0.239138
v 1.746961 0.723615 0.239138
v 1.337066 1.337067 0.239138
v 0.723615 1.746962 0.239138
v 0.000000 0.569073 0.421107
v -0.217774 0.525755 0.421107
v -0.402395 0.402395 0.421107
v -0.525755 0.217775 0.421107
v -0.569073 -0.000000 0.421107
v -0.525755 -0.217775 0.421107
v -0.402395 -0.402395 0.421107
v -0.217775 -0.525755 0.421107
v -0.000000 -0.569073 0.421107
v 0.217774 -0.525754 0.421107
v 0.402395 -0.402395 0.421107
v 0.525755 -0.217774 0.421107
v 0.569073 -0.000000 0.421107
v 0.525755 0.217775 0.421107
v 0.402395 0.402395 0.421107
v 0.217774 0.525755 0.421107
v 0.000000 0.264588 0.306450
v -0.101253 0.244447 0.306450
v -0.187092 0.187092 0.306450
v -0.244447 0.101253 0.306450
v -0.264588 -0.000000 0.306450
v -0.244447 -0.101253 0.306450
v -0.187092 -0.187092 0.306450
v -0.101253 -0.244447 0.306450
v -0.000000 -0.264588 0.306450
v 0.101253 -0.244447 0.306450
v 0.187092 -0.187091 0.306450
v 0.244447 -0.101253 0.306450
v 0.264588 -0.000000 0.306450
v 0.244447 0.101253 0.306450
v 0.187092 0.187092 0.306450
v 0.101253 0.244448 0.306450
v 0.000000 0.374548 0.282732
v -0.143333 0.346037 0.282732
v -0.264845 0.264845 0.282731
v -0.346037 0.143333 0.282731
v -0.374548 -0.000000 0.282731
v -0.346037 -0.143333 0.282731
v -0.264845 -0.264845 0.282731
v -0.143333 -0.346037 0.282731
v -0.000000 -0.374548 0.282731
v 0.143333 -0.346037 0.282731
v 0.264845 -0.264845 0.282731
v 0.346037 -0.143333 0.282731
v 0.374548 -0.000000 0.282731
v 0.346037 0.143333 0.282731
v 0.264845 0.264846 0.282731
v 0.143333 0.346037 0.282732
v 0.000000 0.319568 0.349130
v -0.122293 0.295242 0.349130
v -0.225969 0.225969 0.349130
v -0.295242 0.122293 0.349130
v -0.319568 -0.000000 0.349130
v -0.225969 -0.225968 0.349130
v -0.122293 -0.295242 0.349130
v 0.122293 -0.295242 0.349130
v 0.225969 -0.225968 0.349130
v 0.295242 -0.122293 0.349130
v 0.319568 -0.000000 0.349130
v 0.000000 0.471166 0.282732
v 0.000000 0.522062 0.317261
v -0.199784 0.482322 0.317261
v -0.180307 0.435300 0.282732
v -0.369153 0.369154 0.317261
v -0.333164 0.333164 0.282731
v -0.482322 0.199784 0.317261
v -0.435300 0.180307 0.282731
v -0.522062 -0.000000 0.317261
v -0.471165 -0.000000 0.282731
v -0.482322 -0.199784 0.317261
v -0.435300 -0.180307 0.282731
v -0.369153 -0.369153 0.317261
v -0.333164 -0.333164 0.282731
v -0.199784 -0.482322 0.317261
v -0.180307 -0.435300 0.282731
v -0.000000 -0.522062 0.317261
v -0.000000 -0.471165 0.282731
v 0.199784 -0.482322 0.317261
v 0.180307 -0.435300 0.282731
v 0.369153 -0.369153 0.317261
v 0.333164 -0.333164 0.282731
v 0.482322 -0.199784 0.317261
v 0.435300 -0.180307 0.282732
v 0.522062 -0.000000 0.317261
v 0.471166 -0.000000 0.282732
v 0.482322 0.199784 0.317261
v 0.435300 0.180307 0.282732
v 0.369153 0.369154 0.317261
v 0.333164 0.333164 0.282731
v 0.199784 0.482322 0.317261
v 0.180307 0.435300 0.282732
v -0.000000 1.506884 0.421107
v -0.000000 1.689893 0.241615
v -0.576659 1.392179 0.421107
v -1.194935 1.194935 0.241615
v -1.065528 1.065528 0.421107
v -1.392179 0.576660 0.421107
v -1.506884 0.000000 0.421107
v -1.561257 -0.646694 0.241615
v -1.392179 -0.576659 0.421107
v -1.194935 -1.194934 0.241615
v -1.065528 -1.065528 0.421107
v -0.576659 -1.392179 0.421107
v -0.000000 -1.689893 0.241615
v -0.000000 -1.506884 0.421107
v 0.576659 -1.392179 0.421107
v 1.065528 -1.065528 0.421107
v 1.392179 -0.576659 0.421107
v 1.689893 0.000000 0.241615
v 1.506884 0.000000 0.421107
v 1.392179 0.576660 0.421107
v 1.065528 1.065528 0.421107
v 0.646694 1.561258 0.241615
v 0.576659 1.392179 0.421107
v -0.295242 -0.122293 0.349130
v -0.000000 -0.319568 0.349130
v 0.295242 0.122293 0.349130
v 0.225968 0.225969 0.349130
v 0.122293 0.295242 0.349130
v 0.179429 0.429352 0.435001
v 0.000000 0.429352 0.333691
v -0.179429 0.429352 0.435000
v 0.134572 0.429352 0.356024
v -0.274609 1.669929 0.315926
v -0.134572 0.429352 0.356024
v 0.274609 1.669929 0.315926
v -0.366145 1.669929 0.435000
v 0.000000 1.669929 0.293593
v 0.366145 1.669929 0.435001
v 0.463785 -0.037970 0.435000
v 0.408338 0.132677 0.333691
v 0.352891 0.303324 0.435000
v 0.449923 0.004692 0.356024
v 1.503338 0.777205 0.315926
v 0.366753 0.260662 0.356024
v 1.673056 0.254868 0.315926
v 1.475052 0.864262 0.435000
v 1.588197 0.516037 0.293593
v 1.701342 0.167811 0.435000
v 0.107206 -0.452819 0.435001
v 0.252367 -0.347353 0.333691
v 0.397528 -0.241887 0.435000
v 0.143496 -0.426452 0.356024
v 1.203723 -1.189590 0.315926
v 0.361238 -0.268254 0.356024
v 0.759396 -1.512412 0.315926
v 1.277777 -1.135786 0.435000
v 0.981560 -1.351001 0.293593
v 0.685342 -1.566216 0.435001
v -0.397528 -0.241887 0.435000
v -0.252367 -0.347353 0.333691
v -0.107206 -0.452819 0.435000
v -0.361238 -0.268254 0.356024
v -0.759397 -1.512412 0.315926
v -0.143496 -0.426452 0.356024
v -1.203723 -1.189589 0.315926
v -0.685342 -1.566216 0.435000
v -0.981560 -1.351001 0.293593
v -1.277777 -1.135786 0.435000
v -0.352891 0.303324 0.435000
v -0.408338 0.132677 0.333691
v -0.463785 -0.037970 0.435000
v -0.366753 0.260662 0.356024
v -1.673056 0.254868 0.315926
v -0.449923 0.004692 0.356024
v -1.503338 0.777205 0.315926
v -1.701342 0.167811 0.435000
v -1.588197 0.516037 0.293593
v -1.475052 0.864262 0.435001
vt 0.000000 0.000000
vt 0.000000 0.000000
vt 0.000000 0.000000
vt 0.000000 0.000000
vt 0.000000 0.000000
vt 0.000000 0.000000
vt 0.000000 0.000000
vt 0.000000 0.000000
vt 0.000000 0.000000
vt 0.000000 0.000000
vt 0.000000 0.000000
vt 0.000000 0.000000
vt 0.000000 0.000000
vt 0.000000 0.000000
vt 0.000000 0.000000
vt 0.000000 0.000000
vt 0.000000 0.000000
vt 0.000000 0.000000
vt 0.000000 0.000000
vt 0.000000 0.000000
vt 0.000000 0.000000
vt 0.000000 0.000000
vt 0.000000 0.000000
vt 0.000000 0.000000
vt 0.000000 0.000000
vt 0.000000 0.000000
vt 0.000000 0.000000
vt 0.000000 0.000000
vt 0.000000 0.000000
vt 0.000000 0.000000
vt 0.000000 0.000000
vt 0.000000 0.000000
vt 0.000000 0.000000
vt 0.000000 0.000000
vt 0.000000 0.000000
vt 0.000000 0.000000
vt 0.000000 0.000000
vt 0.000000 0.000000
vt 0.000000 0.000000
vt 0.000000 0.000000
vt 0.000000 0.000000
vt 0.000000 0.000000
vt 0.000000 0.000000
vt 0.000000 0.000000
vt 0.000000 0.000000
vt 0.000000 0.000000
vt 0.000000 0.000000
vt 0.000000 0.000000
vt 0.000000 0.000000
vt 0.000000 0.000000
vt 0.500000 0.250000
vt 0.468750 0.250000
vt 0.468750 0.500000
vt 0.500000 0.500000
vt 0.437500 0.250000
vt 0.437500 0.500000
vt 0.406250 0.250000
vt 0.406250 0.500000
vt 0.375000 0.250000
vt 0.375000 0.500000
vt 0.343750 0.250000
vt 0.343750 0.500000
vt 0.312500 0.250000
vt 0.312500 0.500000
vt 0.281250 0.250000
vt 0.281250 0.500000
vt 0.250000 0.250000
vt 0.250000 0.500000
vt 0.218750 0.250000
vt 0.218750 0.500000
vt 0.187500 0.250000
vt 0.187500 0.500000
vt 0.156250 0.250000
vt 0.156250 0.500000
vt 0.125000 0.250000
vt 0.125000 0.500000
vt 0.093750 0.250000
vt 0.093750 0.500000
vt 0.062500 0.250000
vt 0.062500 0.500000
vt 0.170922 0.235866
vt 0.209853 0.209853
vt 0.235866 0.170922
vt 0.245000 0.125000
vt 0.235866 0.079078
vt 0.209853 0.040147
vt 0.170922 0.014134
vt 0.125000 0.005000
vt 0.079078 0.014134
vt 0.040147 0.040147
vt 0.014134 0.079078
vt 0.005000 0.125000
vt 0.014134 0.170922
vt 0.040147 0.209853
vt 0.079078 0.235866
vt 0.125000 0.245000
vt 0.031250 0.250000
vt 0.031250 0.500000
vt 0.000000 0.250000
vt 0.000000 0.500000
vt 0.416088 0.224195
vt 0.420922 0.235866
vt 0.375000 0.245000
vt 0.375000 0.232368
vt 0.450921 0.200921
vt 0.459853 0.209853
vt 0.474195 0.166088
vt 0.485866 0.170922
vt 0.482368 0.125000
vt 0.495000 0.125000
vt 0.474195 0.083912
vt 0.485866 0.079078
vt 0.450921 0.049079
vt 0.459853 0.040147
vt 0.416088 0.025805
vt 0.420922 0.014134
vt 0.375000 0.017632
vt 0.375000 0.005000
vt 0.333912 0.025805
vt 0.329078 0.014134
vt 0.299079 0.049079
vt 0.290147 0.040147
vt 0.275805 0.083912
vt 0.264134 0.079078
vt 0.267632 0.125000
vt 0.255000 0.125000
vt 0.275805 0.166088
vt 0.264134 0.170922
vt 0.299079 0.200921
vt 0.290147 0.209853
vt 0.333912 0.224195
vt 0.329078 0.235866
vt 0.413123 0.217037
vt 0.375000 0.224620
vt 0.445442 0.195442
vt 0.467037 0.163123
vt 0.474620 0.125000
vt 0.467037 0.086877
vt 0.445442 0.054558
vt 0.413123 0.032963
vt 0.375000 0.025380
vt 0.336877 0.032963
vt 0.304558 0.054558
vt 0.282963 0.086877
vt 0.275380 0.125000
vt 0.282963 0.163123
vt 0.304558 0.195442
vt 0.336877 0.217037
vt 0.354601 0.116550
vt 0.349339 0.114371
vt 0.355360 0.105360
vt 0.359387 0.109387
vt 0.397080 0.125000
vt 0.402775 0.125000
vt 0.400661 0.135629
vt 0.395399 0.133450
vt 0.352920 0.125000
vt 0.347225 0.125000
vt 0.395399 0.116550
vt 0.400661 0.114371
vt 0.354601 0.133450
vt 0.349339 0.135629
vt 0.390613 0.109387
vt 0.394640 0.105360
vt 0.359387 0.140613
vt 0.355360 0.144640
vt 0.383450 0.104601
vt 0.385629 0.099339
vt 0.366550 0.145399
vt 0.364371 0.150661
vt 0.375000 0.102920
vt 0.375000 0.097225
vt 0.366550 0.104601
vt 0.364371 0.099339
vt 0.375000 0.147080
vt 0.375000 0.152775
vt 0.375000 0.155776
vt 0.375000 0.155776
vt 0.386777 0.153433
vt 0.386777 0.153433
vt 0.394640 0.144640
vt 0.390613 0.140613
vt 0.363223 0.153433
vt 0.363223 0.153433
vt 0.396762 0.146762
vt 0.396762 0.146762
vt 0.403433 0.136777
vt 0.403433 0.136777
vt 0.405776 0.125000
vt 0.405776 0.125000
vt 0.403433 0.113223
vt 0.403433 0.113223
vt 0.396762 0.103238
vt 0.396762 0.103238
vt 0.386777 0.096567
vt 0.386777 0.096567
vt 0.375000 0.094224
vt 0.375000 0.094224
vt 0.363223 0.096567
vt 0.363223 0.096567
vt 0.353238 0.103238
vt 0.353238 0.103238
vt 0.346567 0.113223
vt 0.346567 0.113223
vt 0.344224 0.125000
vt 0.344224 0.125000
vt 0.346567 0.136777
vt 0.346567 0.136777
vt 0.353238 0.146762
vt 0.353238 0.146762
vt 0.385629 0.150661
vt 0.383449 0.145399
vt 0.392405 0.117791
vt 0.388321 0.111679
vt 0.393839 0.125000
vt 0.392405 0.132209
vt 0.388321 0.138321
vt 0.367791 0.142405
vt 0.375000 0.143839
vt 0.382209 0.142405
vt 0.361679 0.138321
vt 0.357595 0.132209
vt 0.382209 0.107595
vt 0.375000 0.106161
vt 0.367791 0.107595
vt 0.361679 0.111679
vt 0.357595 0.117791
vt 0.356161 0.125000
vt 0.312506 0.187494
vt 0.293348 0.158821
vt 0.408821 0.043348
vt 0.437494 0.062506
vt 0.341179 0.206652
vt 0.375000 0.036621
vt 0.341179 0.043348
vt 0.375000 0.213379
vt 0.312506 0.062506
vt 0.456652 0.158821
vt 0.437494 0.187494
vt 0.293348 0.091179
vt 0.463379 0.125000
vt 0.286621 0.125000
vt 0.456652 0.091179
vt 0.408821 0.206652
vt 0.375000 0.140598
vt 0.369031 0.139410
vt 0.363971 0.136029
vt 0.360590 0.130969
vt 0.359402 0.125000
vt 0.360590 0.119031
vt 0.363971 0.113971
vt 0.369031 0.110590
vt 0.375000 0.109402
vt 0.380969 0.110590
vt 0.386029 0.113971
vt 0.389410 0.119031
vt 0.390598 0.125000
vt 0.389410 0.130969
vt 0.386029 0.136029
vt 0.380969 0.139410
vn 0.1084 -0.0382 -0.9934
vn -0.8179 -0.1168 -0.5633
vn -0.1084 -0.0382 -0.9934
vn 0.8179 -0.1168 -0.5633
vn -0.0028 -0.1149 -0.9934
vn -0.3639 0.7418 -0.5633
vn -0.0699 0.0913 -0.9934
vn 0.1417 -0.8140 -0.5633
vn -0.1102 -0.0328 -0.9934
vn 0.5931 0.5753 -0.5633
vn 0.0653 0.0947 -0.9934
vn -0.7304 -0.3863 -0.5633
vn -0.0653 0.0947 -0.9934
vn 0.7304 -0.3863 -0.5633
vn 0.1102 -0.0328 -0.9934
vn -0.5931 0.5753 -0.5633
vn 0.0699 0.0913 -0.9934
vn -0.1417 -0.8140 -0.5633
vn 0.0028 -0.1149 -0.9934
vn 0.3639 0.7418 -0.5633
vn 0.0000 1.0000 0.0000
vn -0.3827 0.9239 0.0000
vn -0.7071 0.7071 0.0000
vn -0.9239 0.3827 0.0000
vn -1.0000 0.0000 0.0000
vn -0.9239 -0.3827 -0.0000
vn -0.7071 -0.7071 -0.0000
vn -0.3827 -0.9239 -0.0000
vn 0.0000 -1.0000 -0.0000
vn 0.3827 -0.9239 -0.0000
vn 0.7071 -0.7071 -0.0000
vn 0.9239 -0.3827 -0.0000
vn 1.0000 0.0000 0.0000
vn 0.9239 0.3827 0.0000
vn 0.7071 0.7071 0.0000
vn 0.0000 -0.0000 1.0000
vn 0.3827 0.9239 0.0000
vn -0.2687 0.6487 -0.7120
vn -0.0000 0.7021 -0.7120
vn -0.4965 0.4965 -0.7120
vn -0.6487 0.2687 -0.7120
vn -0.7021 -0.0000 -0.7120
vn -0.6487 -0.2687 -0.7120
vn -0.4965 -0.4965 -0.7120
vn -0.2687 -0.6487 -0.7120
vn -0.0000 -0.7021 -0.7120
vn 0.2687 -0.6487 -0.7120
vn 0.4965 -0.4965 -0.7120
vn 0.6487 -0.2687 -0.7120
vn 0.7021 -0.0000 -0.7120
vn 0.6487 0.2687 -0.7120
vn 0.4965 0.4965 -0.7120
vn 0.2687 0.6487 -0.7120
vn 0.0047 -0.0114 -0.9999
vn 0.0000 -0.0123 -0.9999
vn 0.0087 -0.0087 -0.9999
vn 0.0114 -0.0047 -0.9999
vn 0.0123 0.0000 -0.9999
vn 0.0114 0.0047 -0.9999
vn 0.0087 0.0087 -0.9999
vn 0.0047 0.0114 -0.9999
vn 0.0000 0.0123 -0.9999
vn -0.0047 0.0114 -0.9999
vn -0.0087 0.0087 -0.9999
vn -0.0114 0.0047 -0.9999
vn -0.0123 0.0000 -0.9999
vn -0.0114 -0.0047 -0.9999
vn -0.0087 -0.0087 -0.9999
vn -0.0047 -0.0114 -0.9999
vn 0.0000 -0.0000 -1.0000
vn -0.0000 0.9110 -0.4124
vn -0.3486 0.8417 -0.4124
vn 0.3486 0.8417 -0.4124
vn -0.6442 0.6442 -0.4124
vn -0.8417 0.3486 -0.4124
vn -0.9110 0.0000 -0.4124
vn -0.8417 -0.3486 -0.4124
vn -0.6442 -0.6442 -0.4124
vn -0.3486 -0.8417 -0.4124
vn 0.0000 -0.9110 -0.4124
vn 0.3486 -0.8417 -0.4124
vn 0.6442 -0.6442 -0.4124
vn 0.8417 -0.3486 -0.4124
vn 0.9110 0.0000 -0.4124
vn 0.8417 0.3486 -0.4124
vn 0.6442 0.6442 -0.4124
vn 0.7116 0.2948 -0.6378
vn 0.5446 0.5446 -0.6378
vn 0.7702 -0.0000 -0.6378
vn 0.7116 -0.2948 -0.6378
vn 0.5446 -0.5446 -0.6378
vn -0.2948 -0.7116 -0.6378
vn 0.0000 -0.7702 -0.6378
vn 0.2948 -0.7116 -0.6378
vn -0.5446 -0.5446 -0.6378
vn -0.7116 -0.2948 -0.6378
vn 0.2948 0.7116 -0.6378
vn -0.0000 0.7702 -0.6378
vn -0.2948 0.7116 -0.6378
vn -0.5446 0.5446 -0.6378
vn -0.7116 0.2948 -0.6378
vn -0.7702 -0.0000 -0.6378
vn -0.0000 0.5614 -0.8275
vn -0.2148 0.5187 -0.8275
vn -0.3970 0.3970 -0.8275
vn -0.5187 0.2148 -0.8275
vn -0.5614 0.0000 -0.8275
vn -0.5187 -0.2148 -0.8275
vn -0.3970 -0.3970 -0.8275
vn -0.2148 -0.5187 -0.8275
vn 0.0000 -0.5614 -0.8275
vn 0.2148 -0.5187 -0.8275
vn 0.3970 -0.3970 -0.8275
vn 0.5187 -0.2148 -0.8275
vn 0.5614 0.0000 -0.8275
vn 0.5187 0.2148 -0.8275
vn 0.3970 0.3970 -0.8275
vn 0.2148 0.5187 -0.8275
vn -0.4336 0.4336 -0.7899
vn -0.2347 0.5665 -0.7899
vn 0.2347 0.5665 -0.7899
vn 0.4336 0.4336 -0.7899
vn 0.5665 0.2347 -0.7899
vn 0.6132 0.0000 -0.7899
vn 0.5665 -0.2347 -0.7899
vn 0.4336 -0.4336 -0.7899
vn 0.2347 -0.5665 -0.7899
vn 0.0000 -0.7002 -0.7139
vn 0.2680 -0.6469 -0.7139
vn 0.4951 -0.4951 -0.7139
vn 0.6469 -0.2680 -0.7139
vn 0.7002 0.0000 -0.7139
vn 0.6469 0.2680 -0.7139
vn 0.4951 0.4951 -0.7139
vn 0.2680 0.6469 -0.7139
vn -0.0000 0.7002 -0.7139
vn -0.2680 0.6469 -0.7139
vn -0.4951 0.4951 -0.7139
vn -0.6469 0.2680 -0.7139
vn -0.7002 0.0000 -0.7139
vn -0.6469 -0.2680 -0.7139
vn -0.4951 -0.4951 -0.7139
vn -0.2680 -0.6469 -0.7139
vn -0.0000 0.6132 -0.7899
vn 0.0000 -0.6132 -0.7899
vn -0.2347 -0.5665 -0.7899
vn -0.4336 -0.4336 -0.7899
vn -0.5665 -0.2347 -0.7899
vn -0.6132 0.0000 -0.7899
vn -0.5665 0.2347 -0.7899
usemtl Primary
s off
f 180/1/1 178/2/1 185/3/1 183/4/1
f 182/5/2 179/6/2 184/7/2 181/8/2
f 178/2/3 182/5/3 181/8/3 185/3/3
f 177/9/4 180/1/4 183/4/4 186/10/4
f 190/11/5 188/12/5 195/13/5 193/14/5
f 192/15/6 189/16/6 194/17/6 191/18/6
f 188/12/7 192/15/7 191/18/7 195/13/7
f 187/19/8 190/11/8 193/14/8 196/20/8
f 200/21/9 198/22/9 205/23/9 203/24/9
f 202/25/10 199/26/10 204/27/10 201/28/10
f 198/22/11 202/25/11 201/28/11 205/23/11
f 197/29/12 200/21/12 203/24/12 206/30/12
f 210/31/13 208/32/13 215/33/13 213/34/13
f 212/35/14 209/36/14 214/37/14 211/38/14
f 208/32/15 212/35/15 211/38/15 215/33/15
f 207/39/16 210/31/16 213/34/16 216/40/16
f 220/41/17 218/42/17 225/43/17 223/44/17
f 222/45/18 219/46/18 224/47/18 221/48/18
f 218/42/19 222/45/19 221/48/19 225/43/19
f 217/49/20 220/41/20 223/44/20 226/50/20
s 1
f 26/51/21 27/52/22 3/53/22 1/54/21
f 27/52/22 28/55/23 4/56/23 3/53/22
f 28/55/23 29/57/24 6/58/24 4/56/23
f 29/57/24 30/59/25 8/60/25 6/58/24
f 30/59/25 31/61/26 9/62/26 8/60/25
f 31/61/26 32/63/27 10/64/27 9/62/26
f 32/63/27 33/65/28 12/66/28 10/64/27
f 33/65/28 34/67/29 13/68/29 12/66/28
f 34/67/29 35/69/30 15/70/30 13/68/29
f 35/69/30 36/71/31 17/72/31 15/70/30
f 36/71/31 37/73/32 19/74/32 17/72/31
f 37/73/32 38/75/33 20/76/33 19/74/32
f 38/75/33 39/77/34 22/78/34 20/76/33
f 39/77/34 40/79/35 24/80/35 22/78/34
f 3/81/36 4/82/36 6/83/36 8/84/36 9/85/36 10/86/36 12/87/36 13/88/36 15/89/36 17/90/36 19/91/36 20/92/36 22/93/36 24/94/36 25/95/36 1/96/36
f 40/79/35 41/97/37 25/98/37 24/80/35
f 41/97/37 26/99/21 1/100/21 25/98/37
f 43/101/38 27/102/38 26/103/39 42/104/39
f 44/105/40 28/106/40 27/102/38 43/101/38
f 45/107/41 29/108/41 28/106/40 44/105/40
f 46/109/42 30/110/42 29/108/41 45/107/41
f 47/111/43 31/112/43 30/110/42 46/109/42
f 48/113/44 32/114/44 31/112/43 47/111/43
f 49/115/45 33/116/45 32/114/44 48/113/44
f 50/117/46 34/118/46 33/116/45 49/115/45
f 51/119/47 35/120/47 34/118/46 50/117/46
f 52/121/48 36/122/48 35/120/47 51/119/47
f 53/123/49 37/124/49 36/122/48 52/121/48
f 54/125/50 38/126/50 37/124/49 53/123/49
f 55/127/51 39/128/51 38/126/50 54/125/50
f 56/129/52 40/130/52 39/128/51 55/127/51
f 57/131/53 41/132/53 40/130/52 56/129/52
f 42/104/39 26/103/39 41/132/53 57/131/53
f 2/133/54 43/101/54 42/104/55 150/134/55
f 152/135/56 44/105/56 43/101/54 2/133/54
f 5/136/57 45/107/57 44/105/56 152/135/56
f 7/137/58 46/109/58 45/107/57 5/136/57
f 156/138/59 47/111/59 46/109/58 7/137/58
f 158/139/60 48/113/60 47/111/59 156/138/59
f 11/140/61 49/115/61 48/113/60 158/139/60
f 161/141/62 50/117/62 49/115/61 11/140/61
f 14/142/63 51/119/63 50/117/62 161/141/62
f 16/143/64 52/121/64 51/119/63 14/142/63
f 18/144/65 53/123/65 52/121/64 16/143/64
f 166/145/66 54/125/66 53/123/65 18/144/65
f 21/146/67 55/127/67 54/125/66 166/145/66
f 23/147/68 56/129/68 55/127/67 21/146/67
f 170/148/69 57/131/69 56/129/68 23/147/68
f 150/134/55 42/104/55 57/131/69 170/148/69
f 101/149/70 140/150/70 138/151/70 100/152/70
f 94/153/70 126/154/70 124/155/70 93/156/70
f 102/157/70 142/158/70 140/150/70 101/149/70
f 95/159/70 128/160/70 126/154/70 94/153/70
f 103/161/70 144/162/70 142/158/70 102/157/70
f 96/163/70 130/164/70 128/160/70 95/159/70
f 104/165/70 146/166/70 144/162/70 103/161/70
f 97/167/70 132/168/70 130/164/70 96/163/70
f 105/169/70 148/170/70 146/166/70 104/165/70
f 98/171/70 134/172/70 132/168/70 97/167/70
f 99/173/70 136/174/70 134/172/70 98/171/70
f 90/175/70 117/176/70 148/170/70 105/169/70
f 58/177/71 118/178/71 119/179/72 59/180/72
f 100/152/70 138/151/70 136/174/70 99/173/70
f 93/156/70 124/155/70 122/181/70 92/182/70
f 73/183/73 147/184/73 118/178/71 58/177/71
f 59/180/72 119/179/72 121/185/74 60/186/74
f 60/186/74 121/185/74 123/187/75 61/188/75
f 61/188/75 123/187/75 125/189/76 62/190/76
f 62/190/76 125/189/76 127/191/77 63/192/77
f 63/192/77 127/191/77 129/193/78 64/194/78
f 64/194/78 129/193/78 131/195/79 65/196/79
f 65/196/79 131/195/79 133/197/80 66/198/80
f 66/198/80 133/197/80 135/199/81 67/200/81
f 67/200/81 135/199/81 137/201/82 68/202/82
f 68/202/82 137/201/82 139/203/83 69/204/83
f 69/204/83 139/203/83 141/205/84 70/206/84
f 70/206/84 141/205/84 143/207/85 71/208/85
f 71/208/85 143/207/85 145/209/86 72/210/86
f 72/210/86 145/209/86 147/184/73 73/183/73
f 92/182/70 122/181/70 120/211/70 91/212/70
f 95/159/87 172/213/87 111/214/88 96/163/88
f 94/153/89 110/215/89 172/213/87 95/159/87
f 93/156/90 109/216/90 110/215/89 94/153/89
f 92/182/91 108/217/91 109/216/90 93/156/90
f 105/169/92 176/218/92 106/219/93 90/175/93
f 91/212/94 107/220/94 108/217/91 92/182/91
f 104/165/95 175/221/95 176/218/92 105/169/92
f 90/175/93 106/219/93 107/220/94 91/212/94
f 103/161/96 174/222/96 175/221/95 104/165/95
f 96/163/88 111/214/88 112/223/97 97/167/97
f 97/167/97 112/223/97 173/224/98 98/171/98
f 98/171/98 173/224/98 113/225/99 99/173/99
f 99/173/99 113/225/99 114/226/100 100/152/100
f 100/152/100 114/226/100 115/227/101 101/149/101
f 101/149/101 115/227/101 116/228/102 102/157/102
f 102/157/102 116/228/102 174/222/96 103/161/96
f 118/178/103 117/176/103 120/211/104 119/179/104
f 119/179/104 120/211/104 122/181/105 121/185/105
f 121/185/105 122/181/105 124/155/106 123/187/106
f 123/187/106 124/155/106 126/154/107 125/189/107
f 125/189/107 126/154/107 128/160/108 127/191/108
f 127/191/108 128/160/108 130/164/109 129/193/109
f 129/193/109 130/164/109 132/168/110 131/195/110
f 131/195/110 132/168/110 134/172/111 133/197/111
f 133/197/111 134/172/111 136/174/112 135/199/112
f 135/199/112 136/174/112 138/151/113 137/201/113
f 137/201/113 138/151/113 140/150/114 139/203/114
f 139/203/114 140/150/114 142/158/115 141/205/115
f 141/205/115 142/158/115 144/162/116 143/207/116
f 143/207/116 144/162/116 146/166/117 145/209/117
f 145/209/117 146/166/117 148/170/118 147/184/118
f 147/184/118 148/170/118 117/176/103 118/178/103
f 91/212/70 120/211/70 117/176/70 90/175/70
usemtl Secondary
f 72/210/70 169/229/70 168/230/70 71/208/70
f 65/196/70 160/231/70 159/232/70 64/194/70
f 73/183/70 171/233/70 169/229/70 72/210/70
f 66/198/70 162/234/70 160/231/70 65/196/70
f 67/200/70 163/235/70 162/234/70 66/198/70
f 58/177/70 149/236/70 171/233/70 73/183/70
f 68/202/70 164/237/70 163/235/70 67/200/70
f 61/188/70 154/238/70 153/239/70 60/186/70
f 69/204/70 165/240/70 164/237/70 68/202/70
f 62/190/70 155/241/70 154/238/70 61/188/70
f 70/206/70 167/242/70 165/240/70 69/204/70
f 63/192/70 157/243/70 155/241/70 62/190/70
f 71/208/70 168/230/70 167/242/70 70/206/70
f 64/194/70 159/232/70 157/243/70 63/192/70
f 60/186/70 153/239/70 151/244/70 59/180/70
f 74/245/70 89/246/70 88/247/70 87/248/70 86/249/70 85/250/70 84/251/70 83/252/70 82/253/70 81/254/70 80/255/70 79/256/70 78/257/70 77/258/70 76/259/70 75/260/70
f 76/259/119 108/217/119 107/220/120 75/260/120
f 89/246/121 176/218/121 175/221/122 88/247/122
f 87/248/123 88/247/122 175/221/122 174/222/123
f 86/249/124 87/248/123 174/222/123 116/228/124
f 85/250/125 86/249/124 116/228/124 115/227/125
f 84/251/126 85/250/125 115/227/125 114/226/126
f 83/252/127 84/251/126 114/226/126 113/225/127
f 150/134/128 149/236/128 151/244/129 2/133/129
f 2/133/129 151/244/129 153/239/130 152/135/130
f 152/135/130 153/239/130 154/238/131 5/136/131
f 5/136/131 154/238/131 155/241/132 7/137/132
f 7/137/132 155/241/132 157/243/133 156/138/133
f 156/138/133 157/243/133 159/232/134 158/139/134
f 158/139/134 159/232/134 160/231/135 11/140/135
f 11/140/135 160/231/135 162/234/136 161/141/136
f 161/141/136 162/234/136 163/235/137 14/142/137
f 14/142/137 163/235/137 164/237/138 16/143/138
f 16/143/138 164/237/138 165/240/139 18/144/139
f 18/144/139 165/240/139 167/242/140 166/145/140
f 166/145/140 167/242/140 168/230/141 21/146/141
f 21/146/141 168/230/141 169/229/142 23/147/142
f 23/147/142 169/229/142 171/233/143 170/148/143
f 170/148/143 171/233/143 149/236/128 150/134/128
f 59/180/70 151/244/70 149/236/70 58/177/70
f 74/245/144 106/219/144 176/218/121 89/246/121
f 82/253/145 83/252/127 113/225/127 173/224/145
f 82/253/145 173/224/145 112/223/146 81/254/146
f 81/254/146 112/223/146 111/214/147 80/255/147
f 80/255/147 111/214/147 172/213/148 79/256/148
f 79/256/148 172/213/148 110/215/149 78/257/149
f 78/257/149 110/215/149 109/216/150 77/258/150
f 77/258/150 109/216/150 108/217/119 76/259/119
f 74/245/144 75/260/120 107/220/120 106/219/144
