# Exported from Wings 3D 1.5.4
mtllib BasicWingSmall.mtl
o Cylinder8
#48 vertices, 92 faces
v 0.50000000 5.2658043e-17 0.50000000
v 0.37530975 -2.9523891e-2 0.50000000
v 0.25238950 -5.6638000e-2 0.50000000
v 0.13296400 -8.0454621e-2 0.50000000
v 1.8758250e-2 -0.10008646 0.50000000
v -9.1311250e-2 -0.11464651 0.50000000
v -0.18709550 -0.12324700 0.50000000
v -0.27529350 -0.12500001 0.50000000
v -0.35137250 -0.11901892 0.50000000
v -0.41360725 -0.10441561 0.50000000
v -0.46027350 -8.0303000e-2 0.50000000
v -0.48964600 -4.5793500e-2 0.50000000
v -0.50000000 5.0116503e-17 0.50000000
v -0.48964600 4.5793500e-2 0.50000000
v -0.46027350 8.0303000e-2 0.50000000
v -0.41360725 0.10441561 0.50000000
v -0.35137250 0.11901892 0.50000000
v -0.27529350 0.12500001 0.50000000
v -0.18709550 0.12324700 0.50000000
v -9.1311250e-2 0.11464651 0.50000000
v 1.8758250e-2 0.10008646 0.50000000
v 0.13296400 8.0454621e-2 0.50000000
v 0.25238950 5.6638000e-2 0.50000000
v 0.37530975 2.9523891e-2 0.50000000
v 0.50000000 -3.3067233e-17 -0.50000000
v 0.37530975 -2.9523891e-2 -0.50000000
v 0.25238950 -5.6638000e-2 -0.50000000
v 0.13296400 -8.0454621e-2 -0.50000000
v 1.8758250e-2 -0.10008646 -0.50000000
v -9.1311250e-2 -0.11464651 -0.50000000
v -0.18709550 -0.12324700 -0.50000000
v -0.27529350 -0.12500001 -0.50000000
v -0.35137250 -0.11901892 -0.50000000
v -0.41360725 -0.10441561 -0.50000000
v -0.46027350 -8.0303000e-2 -0.50000000
v -0.48964600 -4.5793500e-2 -0.50000000
v -0.50000000 -7.2348177e-17 -0.50000000
v -0.48964600 4.5793500e-2 -0.50000000
v -0.46027350 8.0303000e-2 -0.50000000
v -0.41360725 0.10441561 -0.50000000
v -0.35137250 0.11901892 -0.50000000
v -0.27529350 0.12500001 -0.50000000
v -0.18709550 0.12324700 -0.50000000
v -9.1311250e-2 0.11464651 -0.50000000
v 1.8758250e-2 0.10008646 -0.50000000
v 0.13296400 8.0454621e-2 -0.50000000
v 0.25238950 5.6638000e-2 -0.50000000
v 0.37530975 2.9523891e-2 -0.50000000
vt 2.3378317e-2 0.90029600
vt 2.3378317e-2 9.9002405e-2
vt 3.1674911e-2 0.90029600
vt 3.1674911e-2 0.90029600
vt 3.1674911e-2 9.9002404e-2
vt 3.1674911e-2 9.9002406e-2
vt 5.5210908e-2 0.90029600
vt 5.5210908e-2 9.9002404e-2
vt 5.5210908e-2 0.90029600
vt 5.5210908e-2 9.9002407e-2
vt 9.2604275e-2 0.90029600
vt 9.2604275e-2 9.9002403e-2
vt 9.2604275e-2 0.90029600
vt 9.2604275e-2 9.9002407e-2
vt 0.14247258 0.90029600
vt 0.14247258 9.9002403e-2
vt 0.14247258 0.90029600
vt 0.14247258 9.9002407e-2
vt 0.20343420 0.90029600
vt 0.20343420 9.9002403e-2
vt 0.20343420 0.90029600
vt 0.20343420 9.9002407e-2
vt 0.27410669 0.90029600
vt 0.27410669 0.90029600
vt 0.27410669 9.9002403e-2
vt 0.27410669 9.9002407e-2
vt 0.35085800 0.90029600
vt 0.35085800 9.9002403e-2
vt 0.35085800 0.90029600
vt 0.35085800 9.9002407e-2
vt 0.43905598 0.90029600
vt 0.43905598 9.9002403e-2
vt 0.43905598 0.90029600
vt 0.43905598 9.9002407e-2
vt 0.53056832 0.90029600
vt 0.53056832 0.90029600
vt 0.53056832 9.9002404e-2
vt 0.53056832 9.9002407e-2
vt 0.62626321 9.9002404e-2
vt 0.62626321 0.90029600
vt 0.62626321 9.9002406e-2
vt 0.62626321 0.90029600
vt 0.72475842 9.9002405e-2
vt 0.72475842 9.9002406e-2
vt 0.72475842 0.90029600
vt 0.72475842 0.90029600
vt 0.82467191 9.9002405e-2
vt 0.82467191 0.90029600
vt 0.84984467 0.69929005
vt 0.84984467 0.69929005
vt 0.85089997 0.62070685
vt 0.85089997 0.62070685
vt 0.85227267 0.76708704
vt 0.85227267 0.76708704
vt 0.85502947 0.53537482
vt 0.85502947 0.53537482
vt 0.85858501 0.82256197
vt 0.85858501 0.82256197
vt 0.86185844 0.43732366
vt 0.86185844 0.43732366
vt 0.86918224 0.86417989
vt 0.86918224 0.86417989
vt 0.87095981 0.33559492
vt 0.87095981 0.33559492
vt 0.88194176 0.22922180
vt 0.88194176 0.22922180
vt 0.88446516 0.89040496
vt 0.89440364 0.11973992
vt 0.89440364 0.11973992
vt 0.90483435 0.89970177
vt 0.90794460 8.6846941e-3
vt 0.92070993 0.11983175
vt 0.92070993 0.11983175
vt 0.92526795 0.89054739
vt 0.93240718 0.22939796
vt 0.93240718 0.22939796
vt 0.94073358 0.86442966
vt 0.94073358 0.86442966
vt 0.94264625 0.33584515
vt 0.94264625 0.33584515
vt 0.95103719 0.43763496
vt 0.95103719 0.43763496
vt 0.95162110 0.82288673
vt 0.95162110 0.82288673
vt 0.95718147 0.53573140
vt 0.95718147 0.53573140
vt 0.95832056 0.76745722
vt 0.95832056 0.76745722
vt 0.96071515 0.62109018
vt 0.96071515 0.62109018
vt 0.96122182 0.69967883
vt 0.96122182 0.69967883
vn 4.7122049e-16 0.0000000e+0 1.00000000
vn 0.23040719 0.97309430 -8.4612146e-17
vn 0.23040719 -0.97309430 8.4612146e-17
vn 8.7574731e-17 0.0000000e+0 1.00000000
vn 0.22291255 -0.97483844 9.9911749e-17
vn 0.22291255 -0.97483844 9.9911749e-17
vn 8.7574731e-17 0.0000000e+0 1.00000000
vn 8.7574731e-17 0.0000000e+0 1.00000000
vn 0.22291255 -0.97483844 9.9911749e-17
vn 0.22291255 -0.97483844 9.9911749e-17
vn 1.2880939e-16 0.0000000e+0 1.00000000
vn 1.2880939e-16 0.0000000e+0 1.00000000
vn 1.2880939e-16 0.0000000e+0 1.00000000
vn 0.20550061 -0.97865699 1.1211119e-16
vn 0.20550061 -0.97865699 1.1211119e-16
vn 0.18251090 -0.98320383 1.0189895e-16
vn 0.18251090 -0.98320383 1.0189895e-16
vn -1.8054364e-16 0.0000000e+0 1.00000000
vn -1.8054364e-16 0.0000000e+0 1.00000000
vn 0.18251090 -0.98320383 1.0189895e-16
vn 0.18251090 -0.98320383 1.0189895e-16
vn -2.0995521e-16 0.0000000e+0 1.00000000
vn -2.0995521e-16 0.0000000e+0 1.00000000
vn -2.0995521e-16 0.0000000e+0 1.00000000
vn 0.15030428 -0.98863978 6.1199559e-17
vn 0.15030428 -0.98863978 6.1199559e-17
vn 0.11030856 -0.99389739 9.3195406e-17
vn 0.11030856 -0.99389739 9.3195406e-17
vn -2.6664206e-17 0.0000000e+0 1.00000000
vn -2.6664206e-17 0.0000000e+0 1.00000000
vn -2.6664206e-17 0.0000000e+0 1.00000000
vn 0.11030856 -0.99389739 9.3195406e-17
vn 0.11030856 -0.99389739 9.3195406e-17
vn 0.0000000e+0 0.0000000e+0 1.00000000
vn 0.0000000e+0 0.0000000e+0 1.00000000
vn 0.0000000e+0 0.0000000e+0 1.00000000
vn 5.4684373e-2 -0.99850369 1.5090276e-16
vn 5.4684373e-2 -0.99850369 1.5090276e-16
vn -2.9286943e-2 -0.99957105 1.1596268e-16
vn -2.9286943e-2 -0.99957105 1.1596268e-16
vn 0.0000000e+0 0.0000000e+0 1.00000000
vn 0.0000000e+0 0.0000000e+0 1.00000000
vn 0.0000000e+0 0.0000000e+0 1.00000000
vn 0.0000000e+0 0.0000000e+0 1.00000000
vn -2.9286943e-2 -0.99957105 1.1596268e-16
vn -2.9286943e-2 -0.99957105 1.1596268e-16
vn -4.3672263e-17 0.0000000e+0 1.00000000
vn -4.3672263e-17 0.0000000e+0 1.00000000
vn -4.3672263e-17 0.0000000e+0 1.00000000
vn -0.15385375 -0.98809363 1.5003806e-16
vn -0.15385375 -0.98809363 1.5003806e-16
vn -0.34637111 -0.93809757 1.3491483e-16
vn -0.34637111 -0.93809757 1.3491483e-16
vn -5.3390237e-16 0.0000000e+0 1.00000000
vn -5.3390237e-16 0.0000000e+0 1.00000000
vn -0.34637111 -0.93809757 1.3491483e-16
vn -0.34637111 -0.93809757 1.3491483e-16
vn -1.8370875e-15 0.0000000e+0 1.00000000
vn -1.8370875e-15 0.0000000e+0 1.00000000
vn -1.8370875e-15 0.0000000e+0 1.00000000
vn -1.8370875e-15 0.0000000e+0 1.00000000
vn -0.62198890 -0.78302606 1.2583858e-16
vn -0.62198890 -0.78302606 1.2583858e-16
vn -0.89437693 -0.44731411 6.0489346e-17
vn -0.89437693 -0.44731411 6.0489346e-17
vn -7.0248911e-15 0.0000000e+0 1.00000000
vn -0.89437693 -0.44731411 6.0489346e-17
vn -0.89437693 -0.44731411 6.0489346e-17
vn -7.2503157e-16 0.0000000e+0 1.00000000
vn -7.2503157e-16 0.0000000e+0 1.00000000
vn -7.2503157e-16 0.0000000e+0 1.00000000
vn -1.00000000 -9.9596681e-17 -5.9189742e-19
vn -1.00000000 -9.9596681e-17 -5.9189742e-19
vn -0.89437693 0.44731411 -6.0786627e-17
vn -0.89437693 0.44731411 -6.0786627e-17
vn 7.0248911e-15 0.0000000e+0 1.00000000
vn -0.89437693 0.44731411 -6.0786627e-17
vn -0.89437693 0.44731411 -6.0786627e-17
vn 2.2338107e-15 0.0000000e+0 1.00000000
vn 2.2338107e-15 0.0000000e+0 1.00000000
vn 2.2338107e-15 0.0000000e+0 1.00000000
vn -0.62198890 0.78302606 -1.2096181e-16
vn -0.62198890 0.78302606 -1.2096181e-16
vn -0.34637111 0.93809757 -1.1292345e-16
vn -0.34637111 0.93809757 -1.1292345e-16
vn 4.3015476e-16 0.0000000e+0 1.00000000
vn 4.3015476e-16 0.0000000e+0 1.00000000
vn 4.3015476e-16 0.0000000e+0 1.00000000
vn 4.3015476e-16 0.0000000e+0 1.00000000
vn -0.34637111 0.93809757 -1.1292345e-16
vn -0.34637111 0.93809757 -1.1292345e-16
vn 3.1226265e-16 0.0000000e+0 1.00000000
vn 3.1226265e-16 0.0000000e+0 1.00000000
vn 3.1226265e-16 0.0000000e+0 1.00000000
vn -0.15385375 0.98809363 -1.2282267e-16
vn -0.15385375 0.98809363 -1.2282267e-16
vn -2.9286943e-2 0.99957105 -1.1596268e-16
vn -2.9286943e-2 0.99957105 -1.1596268e-16
vn 0.0000000e+0 0.0000000e+0 1.00000000
vn 0.0000000e+0 0.0000000e+0 1.00000000
vn -2.9286943e-2 0.99957105 -1.1596268e-16
vn -2.9286943e-2 0.99957105 -1.1596268e-16
vn 0.0000000e+0 0.0000000e+0 1.00000000
vn 0.0000000e+0 0.0000000e+0 1.00000000
vn 0.0000000e+0 0.0000000e+0 1.00000000
vn 5.4684373e-2 0.99850369 -1.1317707e-16
vn 5.4684373e-2 0.99850369 -1.1317707e-16
vn 0.11030856 0.99389739 -9.3195406e-17
vn 0.11030856 0.99389739 -9.3195406e-17
vn 1.8329100e-16 0.0000000e+0 1.00000000
vn 1.8329100e-16 0.0000000e+0 1.00000000
vn 1.8329100e-16 0.0000000e+0 1.00000000
vn 0.11030856 0.99389739 -9.3195406e-17
vn 0.11030856 0.99389739 -9.3195406e-17
vn -2.6664206e-17 0.0000000e+0 1.00000000
vn -2.6664206e-17 0.0000000e+0 1.00000000
vn -2.6664206e-17 0.0000000e+0 1.00000000
vn 0.15030428 0.98863978 -1.0677204e-16
vn 0.15030428 0.98863978 -1.0677204e-16
vn 0.18251090 0.98320383 -1.1687017e-16
vn 0.18251090 0.98320383 -1.1687017e-16
vn -9.0271819e-17 0.0000000e+0 1.00000000
vn -9.0271819e-17 0.0000000e+0 1.00000000
vn -9.0271819e-17 0.0000000e+0 1.00000000
vn -9.0271819e-17 0.0000000e+0 1.00000000
vn 0.18251090 0.98320383 -1.1687017e-16
vn 0.18251090 0.98320383 -1.1687017e-16
vn -6.9498765e-17 0.0000000e+0 1.00000000
vn -6.9498765e-17 0.0000000e+0 1.00000000
vn -6.9498765e-17 0.0000000e+0 1.00000000
vn 0.20550061 0.97865699 -1.1211119e-16
vn 0.20550061 0.97865699 -1.1211119e-16
vn -2.4239562e-16 0.0000000e+0 1.00000000
vn 0.22291255 0.97483844 -1.0335718e-16
vn 0.22291255 0.97483844 -1.0335718e-16
vn -2.4239562e-16 0.0000000e+0 1.00000000
vn 0.22291255 0.97483844 -1.0335718e-16
vn 0.22291255 0.97483844 -1.0335718e-16
vn 0.23040719 0.97309430 -9.6457846e-17
vn 0.23040719 -0.97309430 9.6457846e-17
vn 4.7122049e-16 0.0000000e+0 -1.00000000
vn 0.23040719 0.97309430 -9.6457846e-17
vn 0.23040719 -0.97309430 9.6457846e-17
vn 0.22291255 -0.97483844 1.0238935e-16
vn 0.22291255 -0.97483844 1.0238935e-16
vn 7.4016226e-17 0.0000000e+0 -1.00000000
vn 7.4016226e-17 0.0000000e+0 -1.00000000
vn 7.4016226e-17 0.0000000e+0 -1.00000000
vn 0.20550061 -0.97865699 1.0866569e-16
vn 0.20550061 -0.97865699 1.0866569e-16
vn -3.2444143e-17 0.0000000e+0 -1.00000000
vn -3.2444143e-17 0.0000000e+0 -1.00000000
vn -3.2444143e-17 0.0000000e+0 -1.00000000
vn 0.20550061 -0.97865699 1.0866569e-16
vn 0.20550061 -0.97865699 1.0866569e-16
vn 0.18251090 -0.98320383 1.1687017e-16
vn 0.18251090 -0.98320383 1.1687017e-16
vn -1.8054364e-16 0.0000000e+0 -1.00000000
vn -1.8054364e-16 0.0000000e+0 -1.00000000
vn 0.15030428 -0.98863978 8.3985799e-17
vn 0.15030428 -0.98863978 8.3985799e-17
vn -7.6040587e-18 0.0000000e+0 -1.00000000
vn -7.6040587e-18 0.0000000e+0 -1.00000000
vn -7.6040587e-18 0.0000000e+0 -1.00000000
vn 0.15030428 -0.98863978 8.3985799e-17
vn 0.15030428 -0.98863978 8.3985799e-17
vn 0.11030856 -0.99389739 8.2967060e-17
vn 0.11030856 -0.99389739 8.2967060e-17
vn -2.0995521e-16 0.0000000e+0 -1.00000000
vn -2.0995521e-16 0.0000000e+0 -1.00000000
vn -2.0995521e-16 0.0000000e+0 -1.00000000
vn 5.4684373e-2 -0.99850369 1.1317707e-16
vn 5.4684373e-2 -0.99850369 1.1317707e-16
vn 0.0000000e+0 0.0000000e+0 -1.00000000
vn 0.0000000e+0 0.0000000e+0 -1.00000000
vn 0.0000000e+0 0.0000000e+0 -1.00000000
vn 5.4684373e-2 -0.99850369 1.1317707e-16
vn 5.4684373e-2 -0.99850369 1.1317707e-16
vn -2.9286943e-2 -0.99957105 8.4894774e-17
vn -2.9286943e-2 -0.99957105 8.4894774e-17
vn 6.6839344e-17 0.0000000e+0 -1.00000000
vn 6.6839344e-17 0.0000000e+0 -1.00000000
vn 6.6839344e-17 0.0000000e+0 -1.00000000
vn -0.15385375 -0.98809363 1.2503171e-16
vn -0.15385375 -0.98809363 1.2503171e-16
vn 1.7417158e-16 0.0000000e+0 -1.00000000
vn 1.7417158e-16 0.0000000e+0 -1.00000000
vn 1.7417158e-16 0.0000000e+0 -1.00000000
vn -0.15385375 -0.98809363 1.2503171e-16
vn -0.15385375 -0.98809363 1.2503171e-16
vn -0.34637111 -0.93809757 1.2124277e-16
vn -0.34637111 -0.93809757 1.2124277e-16
vn 4.3672263e-17 0.0000000e+0 -1.00000000
vn 4.3672263e-17 0.0000000e+0 -1.00000000
vn 4.3672263e-17 0.0000000e+0 -1.00000000
vn 8.0864723e-17 0.0000000e+0 -1.00000000
vn -0.62198890 -0.78302606 1.1364666e-16
vn -0.62198890 -0.78302606 1.1364666e-16
vn 8.0864723e-17 0.0000000e+0 -1.00000000
vn 8.0864723e-17 0.0000000e+0 -1.00000000
vn 8.0864723e-17 0.0000000e+0 -1.00000000
vn -0.62198890 -0.78302606 1.1364666e-16
vn -0.62198890 -0.78302606 1.1364666e-16
vn 0.0000000e+0 0.0000000e+0 -1.00000000
vn -0.89437693 -0.44731411 4.8764336e-17
vn -0.89437693 -0.44731411 4.8764336e-17
vn 7.2503157e-16 0.0000000e+0 -1.00000000
vn -1.00000000 -6.4026438e-17 -2.9594871e-19
vn -1.00000000 -6.4026438e-17 -2.9594871e-19
vn 7.2503157e-16 0.0000000e+0 -1.00000000
vn 7.2503157e-16 0.0000000e+0 -1.00000000
vn -1.00000000 -7.1140486e-17 -2.9594871e-19
vn -1.00000000 -6.4026438e-17 -2.9594871e-19
vn -0.89437693 0.44731411 -5.3692165e-17
vn -0.89437693 0.44731411 -5.3692165e-17
vn 0.0000000e+0 0.0000000e+0 -1.00000000
vn -0.62198890 0.78302606 -1.0523199e-16
vn -0.62198890 0.78302606 -1.0523199e-16
vn 1.0781963e-16 0.0000000e+0 -1.00000000
vn 1.0781963e-16 0.0000000e+0 -1.00000000
vn 1.0781963e-16 0.0000000e+0 -1.00000000
vn -0.62198890 0.78302606 -1.0523199e-16
vn -0.62198890 0.78302606 -1.0523199e-16
vn -0.34637111 0.93809757 -1.0460414e-16
vn -0.34637111 0.93809757 -1.0460414e-16
vn -2.6127702e-16 0.0000000e+0 -1.00000000
vn -2.6127702e-16 0.0000000e+0 -1.00000000
vn -2.6127702e-16 0.0000000e+0 -1.00000000
vn -0.15385375 0.98809363 -1.1142402e-16
vn -0.15385375 0.98809363 -1.1142402e-16
vn 4.3672263e-17 0.0000000e+0 -1.00000000
vn 4.3672263e-17 0.0000000e+0 -1.00000000
vn 4.3672263e-17 0.0000000e+0 -1.00000000
vn -0.15385375 0.98809363 -1.1142402e-16
vn -0.15385375 0.98809363 -1.1142402e-16
vn -2.9286943e-2 0.99957105 -1.0458319e-16
vn -2.9286943e-2 0.99957105 -1.0458319e-16
vn 6.6839344e-17 0.0000000e+0 -1.00000000
vn 6.6839344e-17 0.0000000e+0 -1.00000000
vn 6.6839344e-17 0.0000000e+0 -1.00000000
vn 5.4684373e-2 0.99850369 -1.1317707e-16
vn 5.4684373e-2 0.99850369 -1.1317707e-16
vn -4.1959489e-16 0.0000000e+0 -1.00000000
vn -4.1959489e-16 0.0000000e+0 -1.00000000
vn -4.1959489e-16 0.0000000e+0 -1.00000000
vn 5.4684373e-2 0.99850369 -1.1317707e-16
vn 5.4684373e-2 0.99850369 -1.1317707e-16
vn 0.11030856 0.99389739 -8.5381609e-17
vn 0.11030856 0.99389739 -8.5381609e-17
vn 0.0000000e+0 0.0000000e+0 -1.00000000
vn 0.0000000e+0 0.0000000e+0 -1.00000000
vn 0.0000000e+0 0.0000000e+0 -1.00000000
vn 0.15030428 0.98863978 -9.8958499e-17
vn 0.15030428 0.98863978 -9.8958499e-17
vn -7.6040587e-18 0.0000000e+0 -1.00000000
vn -7.6040587e-18 0.0000000e+0 -1.00000000
vn -7.6040587e-18 0.0000000e+0 -1.00000000
vn 0.15030428 0.98863978 -9.8958499e-17
vn 0.15030428 0.98863978 -9.8958499e-17
vn 0.18251090 0.98320383 -1.1687017e-16
vn 0.18251090 0.98320383 -1.1687017e-16
vn 1.8972321e-16 0.0000000e+0 -1.00000000
vn 1.8972321e-16 0.0000000e+0 -1.00000000
vn 1.8972321e-16 0.0000000e+0 -1.00000000
vn 1.8972321e-16 0.0000000e+0 -1.00000000
vn 0.20550061 0.97865699 -1.1211119e-16
vn 0.20550061 0.97865699 -1.1211119e-16
vn 8.7918283e-17 0.0000000e+0 -1.00000000
vn 8.7918283e-17 0.0000000e+0 -1.00000000
vn 8.7918283e-17 0.0000000e+0 -1.00000000
vn 0.20550061 0.97865699 -1.1211119e-16
vn 0.20550061 0.97865699 -1.1211119e-16
vn 0.22291255 0.97483844 -1.0928020e-16
vn 0.22291255 0.97483844 -1.0928020e-16
vn 2.3561024e-16 0.0000000e+0 -1.00000000
vn 2.3561024e-16 0.0000000e+0 -1.00000000
g Cylinder8
usemtl Cylinder8_auv
s 1
f 1/71/1 24/73/133 2/68/4
f 2/68/7 23/75/129 3/65/13
f 3/65/11 22/80/123 4/63/19
f 4/63/18 22/80/122 5/59/22
f 5/59/23 21/82/115 6/55/29
f 6/55/30 20/86/110 7/51/34
f 7/51/36 19/90/105 8/49/44
f 8/49/41 17/88/92 9/53/47
f 9/53/48 16/84/87 10/57/55
f 10/57/54 16/84/86 11/61/58
f 11/61/61 13/70/71 12/67/66
f 13/70/70 11/61/60 15/78/81
f 13/70/69 15/78/79 14/74/76
f 15/78/80 11/61/59 16/84/88
f 16/84/89 9/53/49 17/88/93
f 17/88/94 8/49/43 18/92/100
f 18/92/99 8/49/42 19/90/103
f 19/90/104 7/51/35 20/86/112
f 20/86/111 6/55/31 21/82/117
f 21/82/116 5/59/24 22/80/124
f 22/80/125 3/65/12 23/75/128
f 23/75/130 2/68/8 24/73/136
f 26/72/148 48/69/276 25/71/141
f 27/76/153 47/66/269 26/72/146
f 28/79/158 46/64/263 27/76/151
f 29/81/164 46/64/264 28/79/159
f 30/85/171 45/60/256 29/81/162
f 31/89/176 44/56/251 30/85/169
f 32/91/183 43/52/244 31/89/174
f 33/87/188 42/50/239 32/91/181
f 34/83/195 41/54/232 33/87/186
f 35/77/199 40/58/226 34/83/193
f 36/74/204 37/70/207 35/77/196
f 37/70/211 39/62/220 35/77/200
f 38/67/216 39/62/219 37/70/210
f 40/58/228 35/77/201 39/62/221
f 41/54/231 34/83/194 40/58/227
f 42/50/238 33/87/187 41/54/233
f 43/52/243 32/91/182 42/50/240
f 44/56/250 31/89/175 43/52/245
f 45/60/255 30/85/170 44/56/252
f 46/64/262 29/81/163 45/60/257
f 47/66/268 27/76/152 46/64/265
f 48/69/275 26/72/147 47/66/270
s 2
f 1/47/2 25/48/142 24/43/137
f 2/44/9 25/48/143 1/47/3
f 2/44/5 27/42/150 26/46/144
f 3/41/14 27/42/154 2/44/10
f 4/38/20 27/42/155 3/41/15
f 4/38/16 29/33/161 28/36/156
f 5/34/25 29/33/165 4/38/21
f 6/30/32 29/33/166 5/34/26
f 6/30/27 31/24/173 30/29/167
f 7/26/37 31/24/177 6/30/33
f 8/22/45 31/24/178 7/26/38
f 8/22/39 33/17/185 32/21/179
f 9/18/50 33/17/189 8/22/46
f 10/14/56 33/17/190 9/18/51
f 10/14/52 35/9/198 34/13/191
f 11/10/62 35/9/202 10/14/57
f 12/6/67 35/9/203 11/10/63
f 12/6/64 37/1/209 36/4/205
f 13/2/72 37/1/212 12/6/68
f 14/5/77 37/1/213 13/2/73
f 14/5/74 39/7/218 38/3/214
f 15/8/82 39/7/222 14/5/78
f 16/12/90 39/7/223 15/8/83
f 16/12/84 41/15/230 40/11/224
f 17/16/95 41/15/234 16/12/91
f 18/20/101 41/15/235 17/16/96
f 18/20/97 43/23/242 42/19/236
f 19/25/106 43/23/246 18/20/102
f 20/28/113 43/23/247 19/25/107
f 20/28/108 45/31/254 44/27/248
f 21/32/118 45/31/258 20/28/114
f 22/37/126 45/31/259 21/32/119
f 22/37/120 47/40/267 46/35/260
f 23/39/131 47/40/271 22/37/127
f 24/43/134 25/48/139 48/45/273
f 24/43/138 47/40/272 23/39/132
f 26/46/145 25/48/140 2/44/6
f 28/36/157 27/42/149 4/38/17
f 30/29/168 29/33/160 6/30/28
f 32/21/180 31/24/172 8/22/40
f 34/13/192 33/17/184 10/14/53
f 36/4/206 35/9/197 12/6/65
f 38/3/215 37/1/208 14/5/75
f 40/11/225 39/7/217 16/12/85
f 42/19/237 41/15/229 18/20/98
f 44/27/249 43/23/241 20/28/109
f 46/35/261 45/31/253 22/37/121
f 48/45/274 47/40/266 24/43/135
