# Exported from Wings 3D 1.5.4
mtllib basic1x1cube_nouv.mtl
o Cube1
#8 vertices, 6 faces
v -0.50000000 -0.50000000 -0.50000000
v -0.50000000 -0.50000000 0.50000000
v -0.50000000 0.50000000 -0.50000000
v -0.50000000 0.50000000 0.50000000
v 0.50000000 -0.50000000 -0.50000000
v 0.50000000 -0.50000000 0.50000000
v 0.50000000 0.50000000 -0.50000000
v 0.50000000 0.50000000 0.50000000
vt 0.0000000e+0 0.33333333
vt 0.0000000e+0 0.66666667
vt 0.0000000e+0 1.00000000
vt 2.7755576e-17 0.0000000e+0
vt 2.7755576e-17 0.33333333
vt 2.7755576e-17 0.66666667
vt 0.33333333 5.5511151e-17
vt 0.33333333 0.33333333
vt 0.33333333 0.33333333
vt 0.33333333 0.66666667
vt 0.33333333 1.00000000
vt 0.33333333 0.66666667
vt 0.33333333 0.0000000e+0
vt 0.33333333 0.33333333
vt 0.33333333 0.33333333
vt 0.66666667 0.33333333
vt 0.66666667 0.66666667
vt 0.66666667 1.00000000
vt 0.66666667 5.5511151e-17
vt 0.66666667 0.33333333
vn 0.0000000e+0 -1.00000000 0.0000000e+0
vn 0.0000000e+0 0.0000000e+0 -1.00000000
vn -1.00000000 0.0000000e+0 0.0000000e+0
vn 0.0000000e+0 -1.00000000 0.0000000e+0
vn 0.0000000e+0 0.0000000e+0 1.00000000
vn -1.00000000 0.0000000e+0 0.0000000e+0
vn 0.0000000e+0 1.00000000 0.0000000e+0
vn 0.0000000e+0 0.0000000e+0 -1.00000000
vn -1.00000000 0.0000000e+0 0.0000000e+0
vn 0.0000000e+0 1.00000000 0.0000000e+0
vn 0.0000000e+0 0.0000000e+0 1.00000000
vn -1.00000000 0.0000000e+0 0.0000000e+0
vn 0.0000000e+0 -1.00000000 0.0000000e+0
vn 0.0000000e+0 0.0000000e+0 -1.00000000
vn 1.00000000 0.0000000e+0 0.0000000e+0
vn 0.0000000e+0 -1.00000000 0.0000000e+0
vn 0.0000000e+0 0.0000000e+0 1.00000000
vn 1.00000000 0.0000000e+0 0.0000000e+0
vn 0.0000000e+0 1.00000000 0.0000000e+0
vn 0.0000000e+0 0.0000000e+0 -1.00000000
vn 1.00000000 0.0000000e+0 0.0000000e+0
vn 0.0000000e+0 1.00000000 0.0000000e+0
vn 0.0000000e+0 0.0000000e+0 1.00000000
vn 1.00000000 0.0000000e+0 0.0000000e+0
g Cube1_Cube1_auv
usemtl Cube1_auv
s 1
f 2/7/6 4/8/12 3/1/9 1/4/3
f 5/16/15 7/17/21 8/12/24 6/15/18
s 2
f 2/5/5 6/9/17 8/10/23 4/2/11
f 3/11/8 7/3/20 5/6/14 1/10/2
s 3
f 1/18/1 5/11/13 6/10/16 2/17/4
f 4/13/10 8/19/22 7/20/19 3/14/7
