# Exported from Wings 3D 1.5.4
mtllib color_block_16.mtl
o Cube1
#8 vertices, 12 faces
v -0.50000000 -0.50000000 -0.50000000
v -0.50000000 -0.50000000 0.50000000
v -0.50000000 0.50000000 -0.50000000
v -0.50000000 0.50000000 0.50000000
v 0.50000000 -0.50000000 -0.50000000
v 0.50000000 -0.50000000 0.50000000
v 0.50000000 0.50000000 -0.50000000
v 0.50000000 0.50000000 0.50000000
vt 1.9334687e-3 0.99802747
vt 1.9334687e-3 0.99802747
vt 1.9334687e-3 0.99806653
vt 1.9334687e-3 0.99806653
vt 1.9334687e-3 0.99802747
vt 1.9334687e-3 0.99806653
vt 1.9334688e-3 0.99802747
vt 1.9334688e-3 0.99802747
vt 1.9334688e-3 0.99806653
vt 1.9334688e-3 0.99806653
vt 1.9725312e-3 0.99802747
vt 1.9725312e-3 0.99802747
vt 1.9725312e-3 0.99806653
vt 1.9725312e-3 0.99806653
vt 1.9725312e-3 0.99802747
vt 1.9725312e-3 0.99802747
vt 1.9725312e-3 0.99802747
vt 1.9725312e-3 0.99806653
vt 1.9725312e-3 0.99806653
vt 1.9725312e-3 0.99806653
vn 0.0000000e+0 -1.00000000 0.0000000e+0
vn -1.00000000 0.0000000e+0 0.0000000e+0
vn 0.0000000e+0 0.0000000e+0 -1.00000000
vn 0.0000000e+0 -1.00000000 0.0000000e+0
vn 0.0000000e+0 0.0000000e+0 1.00000000
vn -1.00000000 0.0000000e+0 0.0000000e+0
vn 0.0000000e+0 -1.00000000 0.0000000e+0
vn 0.0000000e+0 0.0000000e+0 1.00000000
vn -1.00000000 0.0000000e+0 0.0000000e+0
vn 0.0000000e+0 1.00000000 0.0000000e+0
vn 0.0000000e+0 0.0000000e+0 -1.00000000
vn -1.00000000 0.0000000e+0 0.0000000e+0
vn 0.0000000e+0 1.00000000 0.0000000e+0
vn -1.00000000 0.0000000e+0 0.0000000e+0
vn 0.0000000e+0 0.0000000e+0 -1.00000000
vn -1.00000000 0.0000000e+0 0.0000000e+0
vn 0.0000000e+0 1.00000000 0.0000000e+0
vn 0.0000000e+0 0.0000000e+0 1.00000000
vn 0.0000000e+0 -1.00000000 0.0000000e+0
vn 0.0000000e+0 0.0000000e+0 -1.00000000
vn 1.00000000 0.0000000e+0 0.0000000e+0
vn 1.00000000 0.0000000e+0 0.0000000e+0
vn 0.0000000e+0 -1.00000000 0.0000000e+0
vn 0.0000000e+0 0.0000000e+0 -1.00000000
vn 0.0000000e+0 -1.00000000 0.0000000e+0
vn 0.0000000e+0 0.0000000e+0 1.00000000
vn 1.00000000 0.0000000e+0 0.0000000e+0
vn 0.0000000e+0 1.00000000 0.0000000e+0
vn 0.0000000e+0 0.0000000e+0 -1.00000000
vn 1.00000000 0.0000000e+0 0.0000000e+0
vn 0.0000000e+0 1.00000000 0.0000000e+0
vn 0.0000000e+0 0.0000000e+0 1.00000000
vn 1.00000000 0.0000000e+0 0.0000000e+0
vn 0.0000000e+0 1.00000000 0.0000000e+0
vn 1.00000000 0.0000000e+0 0.0000000e+0
vn 0.0000000e+0 0.0000000e+0 1.00000000
g Cube1
usemtl Cube1_auv
s 1
f 1/14/1 5/4/23 2/12/7
f 2/12/4 5/4/19 6/2/25
f 3/10/10 8/17/31 7/20/28
f 4/8/17 8/17/34 3/10/13
s 2
f 2/16/9 3/6/14 1/5/2
f 4/19/16 3/6/12 2/16/6
f 5/16/22 8/6/35 6/5/27
f 7/19/30 8/6/33 5/16/21
s 3
f 2/7/8 8/18/36 4/9/18
f 3/13/15 5/1/24 1/11/3
f 6/15/26 8/18/32 2/7/5
f 7/3/29 5/1/20 3/13/11
