# Blender 3.6.1
# www.blender.org
# UV mapped to have all sides show the full texture
o cube
v 0.500000 0.500000 -0.500000
v 0.500000 -0.500000 -0.500000
v 0.500000 0.500000 0.500000
v 0.500000 -0.500000 0.500000
v -0.500000 0.500000 -0.500000
v -0.500000 -0.500000 -0.500000
v -0.500000 0.500000 0.500000
v -0.500000 -0.500000 0.500000
vn -0.0000 1.0000 -0.0000
vn -0.0000 -0.0000 1.0000
vn -1.0000 -0.0000 -0.0000
vn -0.0000 -1.0000 -0.0000
vn 1.0000 -0.0000 -0.0000
vn -0.0000 -0.0000 -1.0000
vt 0.000000 0.000000
vt 1.000000 0.000000
vt 1.000000 1.000000
vt 0.000000 1.000000
s 0
f 1/1/1 5/2/1 7/3/1 3/4/1
f 4/1/2 3/2/2 7/3/2 8/4/2
f 8/1/3 7/2/3 5/3/3 6/4/3
f 6/1/4 2/2/4 4/3/4 8/4/4
f 2/1/5 1/2/5 3/3/5 4/4/5
f 6/1/6 5/2/6 1/3/6 2/4/6
