# Exported from Wings 3D 1.5.4
mtllib gear35a.mtl
o Cylinder3_default.001_copy3
#20 vertices, 18 faces
v -0.12972019 0.50000000 -0.33474592
v -0.12972019 -0.50000000 -0.33474592
v -0.33474579 -0.50000000 -0.12972030
v -0.33474579 0.50000000 -0.12972030
v 0.15312254 0.30000000 -5.1903213e-2
v 0.15312254 -0.30000000 -5.1903213e-2
v -5.1903068e-2 0.30000000 0.15312241
v -5.1903068e-2 -0.30000000 0.15312241
v 0.21358158 0.24000000 2.9059097e-2
v 0.21358158 -0.24000000 2.9059097e-2
v 2.9059247e-2 0.24000000 0.21358145
v 2.9059247e-2 -0.24000000 0.21358145
v 0.26891552 0.15000000 0.11514652
v 0.26891552 -0.15000000 0.11514652
v 0.11514667 0.15000000 0.26891538
v 0.11514667 -0.15000000 0.26891538
v 0.31399782 5.0000000e-2 0.21148557
v 0.31399782 -5.0000000e-2 0.21148557
v 0.21148573 5.0000000e-2 0.31399767
v 0.21148573 -5.0000000e-2 0.31399767
vt 0.0000000e+0 0.0000000e+0
vt 0.0000000e+0 0.58820000
vt 0.0000000e+0 0.76470000
vt 0.0000000e+0 1.00000000
vt 7.9000000e-3 0.70590000
vt 1.9700000e-2 0.64710000
vt 3.9400000e-2 0.58820000
vt 5.7000000e-2 0.0000000e+0
vt 5.7000000e-2 0.58820000
vt 0.11260000 0.0000000e+0
vt 0.11260000 0.58820000
vt 0.11830000 0.58820000
vt 0.13800000 0.64710000
vt 0.14980000 0.70590000
vt 0.15770000 0.76470000
vt 0.15770000 1.00000000
vt 0.16560000 0.70590000
vt 0.16760000 0.0000000e+0
vt 0.16760000 0.58820000
vt 0.17740000 0.64710000
vt 0.19710000 0.58820000
vt 0.27600000 0.58820000
vt 0.29570000 0.64710000
vt 0.30750000 0.70590000
vt 0.31540000 0.76470000
vt 0.31540000 1.00000000
vt 0.38170000 0.0000000e+0
vt 0.38170000 0.58820000
vt 0.59590000 0.0000000e+0
vt 0.59590000 0.58820000
vt 0.65080000 0.0000000e+0
vt 0.65080000 0.58820000
vt 0.70640000 0.0000000e+0
vt 0.70640000 0.58820000
vt 0.76350000 0.0000000e+0
vt 0.76350000 0.58820000
vt 0.92120000 0.0000000e+0
vt 0.92120000 0.58820000
vt 1.00000000 0.0000000e+0
vt 1.00000000 0.58820000
vn 0.70710675 0.0000000e+0 -0.70710681
vn -0.70710682 0.0000000e+0 -0.70710675
vn 0.31622778 0.89442719 0.31622775
vn 0.70710675 0.0000000e+0 -0.70710681
vn -0.70710682 0.0000000e+0 -0.70710675
vn 0.31622778 -0.89442719 0.31622775
vn -0.70710682 0.0000000e+0 -0.70710675
vn 0.31622778 -0.89442719 0.31622775
vn -0.70710677 0.0000000e+0 0.70710680
vn -0.70710682 0.0000000e+0 -0.70710675
vn -0.70710677 0.0000000e+0 0.70710680
vn 0.31622778 0.89442719 0.31622775
vn 0.75613488 0.0000000e+0 -0.65441581
vn 0.34026628 0.87660581 0.34026625
vn 0.75613488 0.0000000e+0 -0.65441581
vn 0.34026628 0.87660581 0.34026625
vn 0.75613488 0.0000000e+0 -0.65441581
vn 0.34026628 -0.87660581 0.34026625
vn 0.75613488 0.0000000e+0 -0.65441581
vn 0.34026628 -0.87660581 0.34026625
vn -0.65441577 0.0000000e+0 0.75613491
vn 0.34026628 0.87660581 0.34026625
vn 0.34026628 0.87660581 0.34026625
vn -0.65441577 0.0000000e+0 0.75613491
vn 0.34026628 -0.87660581 0.34026625
vn -0.65441577 0.0000000e+0 0.75613491
vn 0.34026628 -0.87660581 0.34026625
vn -0.65441577 0.0000000e+0 0.75613491
vn 0.82173545 0.0000000e+0 -0.56986916
vn 0.42036000 0.80411130 0.42035996
vn 0.82173545 0.0000000e+0 -0.56986916
vn 0.42036000 0.80411130 0.42035996
vn 0.82173545 0.0000000e+0 -0.56986916
vn 0.42036000 -0.80411130 0.42035996
vn 0.82173545 0.0000000e+0 -0.56986916
vn 0.42036000 -0.80411130 0.42035996
vn 0.42036000 0.80411130 0.42035996
vn -0.56986911 0.0000000e+0 0.82173548
vn 0.42036000 0.80411130 0.42035996
vn -0.56986911 0.0000000e+0 0.82173548
vn 0.42036000 -0.80411130 0.42035996
vn -0.56986911 0.0000000e+0 0.82173548
vn 0.42036000 -0.80411130 0.42035996
vn -0.56986911 0.0000000e+0 0.82173548
vn 0.87542686 0.0000000e+0 -0.48335060
vn 0.48668297 0.72545118 0.48668293
vn 0.87542686 0.0000000e+0 -0.48335060
vn 0.48668297 0.72545118 0.48668293
vn 0.87542686 0.0000000e+0 -0.48335060
vn 0.48668297 -0.72545118 0.48668293
vn 0.87542686 0.0000000e+0 -0.48335060
vn 0.48668297 -0.72545118 0.48668293
vn 0.48668297 0.72545118 0.48668293
vn -0.48335051 0.0000000e+0 0.87542691
vn 0.48668297 0.72545118 0.48668293
vn -0.48335051 0.0000000e+0 0.87542691
vn 0.48668297 -0.72545118 0.48668293
vn -0.48335051 0.0000000e+0 0.87542691
vn 0.48668297 -0.72545118 0.48668293
vn -0.48335051 0.0000000e+0 0.87542691
vn 0.90573561 0.0000000e+0 -0.42384313
vn 0.50000003 0.70710677 0.49999999
vn 0.70710682 0.0000000e+0 0.70710675
vn 0.90573561 0.0000000e+0 -0.42384313
vn 0.50000003 -0.70710677 0.49999999
vn 0.70710682 0.0000000e+0 0.70710675
vn 0.50000003 0.70710677 0.49999999
vn -0.42384302 0.0000000e+0 0.90573567
vn 0.70710682 0.0000000e+0 0.70710675
vn 0.50000003 -0.70710677 0.49999999
vn -0.42384302 0.0000000e+0 0.90573567
vn 0.70710682 0.0000000e+0 0.70710675
g Cylinder3_default.001_copy3_default.001
usemtl default.001
s 1
f 2/38/5 3/36/7 4/35/10 1/37/2
f 17/40/63 19/38/69 20/37/72 18/39/66
s 2
f 2/16/6 6/15/18 8/25/25 3/26/8
f 4/4/12 7/3/22 5/15/14 1/16/3
f 6/15/20 10/17/34 12/24/41 8/25/27
f 7/3/23 11/5/37 9/14/30 5/15/16
f 10/17/36 14/20/50 16/23/57 12/24/43
f 11/5/39 15/6/53 13/13/46 9/14/32
f 14/20/52 18/21/65 20/22/70 16/23/59
f 15/6/55 19/7/67 17/12/62 13/13/48
s 3
f 1/27/1 5/29/13 6/30/17 2/28/4
f 3/28/9 8/19/26 7/18/21 4/27/11
f 5/29/15 9/31/29 10/32/33 6/30/19
f 8/19/28 12/11/42 11/10/38 7/18/24
f 9/31/31 13/33/45 14/34/49 10/32/35
f 12/11/44 16/9/58 15/8/54 11/10/40
f 13/33/47 17/35/61 18/36/64 14/34/51
f 16/9/60 20/2/71 19/1/68 15/8/56
