# Exported from Wings 3D 1.5.4
mtllib gear24a.mtl
o Cylinder3_default.001_default.000
#20 vertices, 18 faces
v 0.16317300 0.50000000 -4.1853000e-2
v 0.44601600 0.30000000 0.24099000
v 0.44601600 -0.30000000 0.24099000
v 0.16317300 -0.50000000 -4.1853000e-2
v -4.1853000e-2 -0.50000000 0.16317300
v -4.1853000e-2 0.50000000 0.16317300
v 0.24099000 -0.30000000 0.44601600
v 0.24099000 0.30000000 0.44601600
v 0.50647500 0.24000000 0.32195200
v 0.50647500 -0.24000000 0.32195200
v 0.32195200 -0.24000000 0.50647500
v 0.32195200 0.24000000 0.50647500
v 0.56180900 0.15000000 0.40804000
v 0.56180900 -0.15000000 0.40804000
v 0.40804000 -0.15000000 0.56180900
v 0.40804000 0.15000000 0.56180900
v 0.60689100 5.0000000e-2 0.50437900
v 0.60689100 -5.0000000e-2 0.50437900
v 0.50437900 -5.0000000e-2 0.60689100
v 0.50437900 5.0000000e-2 0.60689100
vt 0.0000000e+0 0.0000000e+0
vt 0.0000000e+0 0.58820000
vt 0.0000000e+0 0.76470000
vt 0.0000000e+0 1.00000000
vt 7.9000000e-3 0.70590000
vt 1.9700000e-2 0.64710000
vt 3.9400000e-2 0.58820000
vt 5.7000000e-2 0.0000000e+0
vt 5.7000000e-2 0.58820000
vt 0.11260000 0.0000000e+0
vt 0.11260000 0.58820000
vt 0.11830000 0.58820000
vt 0.13800000 0.64710000
vt 0.14980000 0.70590000
vt 0.15770000 0.76470000
vt 0.15770000 1.00000000
vt 0.16560000 0.70590000
vt 0.16760000 0.0000000e+0
vt 0.16760000 0.58820000
vt 0.17740000 0.64710000
vt 0.19710000 0.58820000
vt 0.27600000 0.58820000
vt 0.29570000 0.64710000
vt 0.30750000 0.70590000
vt 0.31540000 0.76470000
vt 0.31540000 1.00000000
vt 0.38170000 0.0000000e+0
vt 0.38170000 0.58820000
vt 0.59590000 0.0000000e+0
vt 0.59590000 0.58820000
vt 0.65080000 0.0000000e+0
vt 0.65080000 0.58820000
vt 0.70640000 0.0000000e+0
vt 0.70640000 0.58820000
vt 0.76350000 0.0000000e+0
vt 0.76350000 0.58820000
vt 0.92120000 0.0000000e+0
vt 0.92120000 0.58820000
vt 1.00000000 0.0000000e+0
vt 1.00000000 0.58820000
vn 0.31622751 0.89442737 0.31622751
vn 0.70710678 0.0000000e+0 -0.70710678
vn -0.70710678 0.0000000e+0 -0.70710678
vn 0.34026648 0.87660564 0.34026648
vn 0.75613439 0.0000000e+0 -0.65441637
vn 0.75613439 0.0000000e+0 -0.65441637
vn 0.34026648 0.87660564 0.34026648
vn 0.75613439 0.0000000e+0 -0.65441637
vn 0.75613439 0.0000000e+0 -0.65441637
vn 0.34026648 -0.87660564 0.34026648
vn 0.34026648 -0.87660564 0.34026648
vn 0.70710678 0.0000000e+0 -0.70710678
vn 0.31622751 -0.89442737 0.31622751
vn -0.70710678 0.0000000e+0 -0.70710678
vn 0.31622751 -0.89442737 0.31622751
vn -0.70710678 0.0000000e+0 -0.70710678
vn -0.70710678 0.0000000e+0 0.70710678
vn 0.31622751 0.89442737 0.31622751
vn -0.70710678 0.0000000e+0 -0.70710678
vn -0.70710678 0.0000000e+0 0.70710678
vn 0.34026648 -0.87660564 0.34026648
vn 0.34026648 -0.87660564 0.34026648
vn -0.65441637 0.0000000e+0 0.75613439
vn -0.65441637 0.0000000e+0 0.75613439
vn 0.34026648 0.87660564 0.34026648
vn -0.65441637 0.0000000e+0 0.75613439
vn -0.65441637 0.0000000e+0 0.75613439
vn 0.34026648 0.87660564 0.34026648
vn 0.82173574 0.0000000e+0 -0.56986873
vn 0.42035965 0.80411164 0.42035965
vn 0.82173574 0.0000000e+0 -0.56986873
vn 0.42035965 0.80411164 0.42035965
vn 0.82173574 0.0000000e+0 -0.56986873
vn 0.42035965 -0.80411164 0.42035965
vn 0.82173574 0.0000000e+0 -0.56986873
vn 0.42035965 -0.80411164 0.42035965
vn 0.42035965 -0.80411164 0.42035965
vn -0.56986873 0.0000000e+0 0.82173574
vn 0.42035965 -0.80411164 0.42035965
vn -0.56986873 0.0000000e+0 0.82173574
vn -0.56986873 0.0000000e+0 0.82173574
vn 0.42035965 0.80411164 0.42035965
vn -0.56986873 0.0000000e+0 0.82173574
vn 0.42035965 0.80411164 0.42035965
vn 0.87542805 0.0000000e+0 -0.48334846
vn 0.48668269 0.72545153 0.48668269
vn 0.87542805 0.0000000e+0 -0.48334846
vn 0.48668269 0.72545153 0.48668269
vn 0.87542805 0.0000000e+0 -0.48334846
vn 0.48668269 -0.72545153 0.48668269
vn 0.87542805 0.0000000e+0 -0.48334846
vn 0.48668269 -0.72545153 0.48668269
vn 0.48668269 -0.72545153 0.48668269
vn -0.48334846 0.0000000e+0 0.87542805
vn 0.48668269 -0.72545153 0.48668269
vn -0.48334846 0.0000000e+0 0.87542805
vn -0.48334846 0.0000000e+0 0.87542805
vn 0.48668269 0.72545153 0.48668269
vn -0.48334846 0.0000000e+0 0.87542805
vn 0.48668269 0.72545153 0.48668269
vn 0.90573661 0.0000000e+0 -0.42384100
vn 0.50000063 0.70710589 0.50000063
vn 0.70710678 0.0000000e+0 0.70710678
vn 0.90573661 0.0000000e+0 -0.42384100
vn 0.50000063 -0.70710589 0.50000063
vn 0.70710678 0.0000000e+0 0.70710678
vn 0.50000063 -0.70710589 0.50000063
vn -0.42384100 0.0000000e+0 0.90573661
vn 0.70710678 0.0000000e+0 0.70710678
vn -0.42384100 0.0000000e+0 0.90573661
vn 0.50000063 0.70710589 0.50000063
vn 0.70710678 0.0000000e+0 0.70710678
g Cylinder3_default.001_default.000_default.4
usemtl default.4
s 1
f 4/28/14 5/36/16 6/1/19 1/27/3
f 17/40/63 20/38/72 19/37/69 18/39/66
s 2
f 1/16/1 6/4/18 8/3/25 2/15/4
f 3/15/10 7/25/21 5/26/15 4/16/13
f 3/15/11 10/17/34 11/24/37 7/25/22
f 8/3/28 12/5/42 9/14/30 2/15/7
f 10/17/36 14/20/50 15/23/53 11/24/39
f 12/5/44 16/6/58 13/13/46 9/14/32
f 14/20/52 18/21/65 19/22/67 15/23/55
f 16/6/60 20/7/71 17/12/62 13/13/48
s 3
f 2/29/5 3/30/8 4/28/12 1/27/2
f 2/29/6 9/31/29 10/32/33 3/30/9
f 5/28/17 7/19/23 8/18/26 6/27/20
f 7/19/24 11/11/38 12/10/41 8/18/27
f 9/31/31 13/33/45 14/34/49 10/32/35
f 11/11/40 15/9/54 16/8/57 12/10/43
f 13/33/47 17/35/61 18/36/64 14/34/51
f 15/9/56 19/2/68 20/1/70 16/8/59
