# Blender v2.77 (sub 0) OBJ File: 'lights_new_lightcube_off.blend'
# www.blender.org
mtllib mjm_light_cube_off.mtl
o light_Mesh2_Group3_Group1_Model
v -0.500000 0.500000 -0.500000
v -0.500000 -0.500000 -0.500000
v -0.500000 -0.500000 0.420000
v -0.500000 0.500000 0.420000
v 0.500000 0.500000 -0.500000
v 0.500000 -0.500000 -0.500000
v 0.500000 0.500000 0.420000
v -0.460000 0.430000 0.500000
v 0.460000 0.430000 0.500000
v -0.460000 -0.430000 0.500000
v 0.500000 -0.500000 0.420000
v 0.460000 -0.430000 0.500000
v 0.403500 -0.371000 0.469067
v 0.403500 0.371000 0.469068
v -0.403500 -0.371000 0.469067
v -0.403500 0.371000 0.469068
v -0.403500 -0.371000 0.469067
v 0.403500 -0.371000 0.469067
v 0.403500 0.371000 0.469068
v -0.403500 0.371000 0.469068
v -0.403500 -0.371000 0.384351
v 0.403500 -0.371000 0.384351
v 0.403500 0.371000 0.384351
v -0.403500 0.371000 0.384351
vt 0.1432 0.1453
vt 0.1590 0.3020
vt 0.1432 0.3020
vt 0.0198 0.1453
vt 0.1813 0.3020
vt 0.0198 0.3020
vt 0.0634 0.2895
vt 0.0796 0.4462
vt 0.0634 0.4462
vt 0.0796 0.2895
vt 0.0925 0.4399
vt 0.1730 0.1563
vt 0.1590 0.1453
vt 0.1193 0.2958
vt 0.1024 0.4462
vt 0.1024 0.2895
vt 0.0494 0.2895
vt 0.0634 0.4352
vt 0.0494 0.4462
vt 0.0337 0.2895
vt 0.0337 0.4462
vt 0.0925 0.2895
vt 0.0925 0.4462
vt 0.0337 0.1453
vt 0.1328 0.1542
vt 0.0382 0.1542
vt 0.1241 0.4336
vt 0.1193 0.2983
vt 0.1241 0.2895
vt 0.0382 0.2806
vt 0.1432 0.2895
vt 0.0337 0.2895
vt 0.1328 0.2806
vt 0.1432 0.1453
vt 0.1813 0.1453
vt 0.0925 0.2958
vt 0.1730 0.2911
vt 0.1193 0.4399
vt 0.0634 0.3005
vt 0.1193 0.4248
vt 0.6611 0.2832
vt 0.4131 0.5112
vt 0.4131 0.2832
vt 0.6611 0.5112
vt 0.4761 0.0581
vt 0.3247 0.1973
vt 0.3247 0.0581
vt 0.4761 0.1973
vn -1.0000 0.0000 0.0000
vn 0.0000 0.0000 -1.0000
vn 0.0000 1.0000 0.0000
vn 0.0000 0.7526 0.6585
vn -0.8944 0.0000 0.4472
vn 0.0000 -0.7526 0.6585
vn 0.8944 0.0000 0.4472
vn 1.0000 0.0000 0.0000
vn 0.0000 -1.0000 0.0000
vn -0.4802 -0.0000 0.8771
vn 0.0000 0.4643 0.8857
vn 0.4802 -0.0000 0.8771
vn 0.0000 -0.4643 0.8857
vn 0.0000 -0.0000 1.0000
usemtl phong1
s 1
f 2/1/1 4/2/1 1/3/1
f 1/4/2 6/5/2 2/6/2
f 1/7/3 7/8/3 5/9/3
f 4/10/4 9/11/4 7/8/4
f 10/12/5 4/2/5 3/13/5
f 12/14/6 3/15/6 11/16/6
f 7/17/7 12/18/7 11/19/7
f 5/20/8 11/19/8 6/21/8
f 6/22/9 3/15/9 2/23/9
f 12/24/10 14/25/10 13/26/10
f 12/27/11 15/28/11 10/29/11
f 15/30/12 8/31/12 10/32/12
f 16/33/13 9/34/13 8/31/13
f 2/1/1 3/13/1 4/2/1
f 1/4/2 5/35/2 6/5/2
f 1/7/3 4/10/3 7/8/3
f 4/10/4 8/36/4 9/11/4
f 10/12/5 8/37/5 4/2/5
f 12/14/6 10/38/6 3/15/6
f 7/17/7 9/39/7 12/18/7
f 5/20/8 7/17/8 11/19/8
f 6/22/9 11/16/9 3/15/9
f 12/24/10 9/34/10 14/25/10
f 12/27/11 13/40/11 15/28/11
f 15/30/12 16/33/12 8/31/12
f 16/33/13 14/25/13 9/34/13
f 18/41/14 20/42/14 17/43/14
f 18/41/14 19/44/14 20/42/14
f 22/45/14 24/46/14 21/47/14
f 22/45/14 23/48/14 24/46/14
o Flare
v -0.384164 -0.006542 0.137095
v 0.065941 -0.330330 0.137095
v -0.065941 0.328743 0.137095
v 0.384164 0.004954 0.137095
vt 0.0000 0.0000
vt 1.0000 0.0000
vt 0.0000 1.0000
vt 1.0000 1.0000
vn 0.0000 0.0000 1.0000
usemtl phong3
s 1
f 25/49/15 26/50/15 27/51/15
f 27/51/15 26/50/15 28/52/15
o Cone
v 0.237441 -0.047246 0.159714
v 0.212884 -0.090830 0.159714
v 0.173819 -0.128256 0.159714
v 0.122908 -0.156974 0.159714
v 0.063622 -0.175026 0.159714
v -0.000000 -0.181184 0.159714
v -0.063622 -0.175026 0.159714
v -0.122909 -0.156974 0.159714
v -0.173819 -0.128256 0.159714
v -0.212884 -0.090830 0.159714
v -0.237441 -0.047246 0.159714
v -0.245817 -0.000476 0.159714
v -0.237441 0.046295 0.159714
v -0.212884 0.089879 0.159714
v -0.173819 0.127304 0.159714
v -0.122909 0.156022 0.159714
v -0.063622 0.174075 0.159714
v -0.000000 0.180233 0.159714
v 0.063622 0.174075 0.159714
v 0.122908 0.156022 0.159714
v 0.173819 0.127304 0.159714
v 0.212884 0.089879 0.159714
v 0.237441 0.046295 0.159714
v 0.245817 -0.000476 0.159714
v 0.053451 -0.011918 0.128081
v 0.053427 -0.032280 0.128081
v 0.049146 -0.035894 0.128081
v 0.030069 -0.035453 0.128081
v 0.015565 -0.035240 0.128081
v 0.000000 -0.035285 0.128081
v -0.015565 -0.035196 0.128081
v -0.030069 -0.035296 0.128081
v -0.048292 -0.035894 0.128081
v -0.053142 -0.032141 0.128081
v -0.053292 -0.011918 0.128081
v -0.053425 -0.000476 0.128081
v -0.053719 0.010967 0.128081
v -0.053889 0.030775 0.128081
v -0.048933 0.035351 0.128081
v -0.030069 0.035290 0.128081
v -0.015565 0.034999 0.128081
v -0.000000 0.034943 0.128081
v 0.015565 0.035372 0.128081
v 0.030069 0.035763 0.128081
v 0.049787 0.035840 0.128081
v 0.053391 0.030463 0.128081
v 0.053523 0.010967 0.128081
v 0.053602 -0.000476 0.128081
vt 0.0148 0.9895
vt 0.0552 0.9895
vt 0.2574 0.0105
vt 0.2776 0.0105
vt 0.0956 0.9895
vt 0.2978 0.0105
vt 0.1361 0.9895
vt 0.3180 0.0105
vt 0.1765 0.9895
vt 0.3383 0.0105
vt 0.2170 0.9895
vt 0.3585 0.0105
vt 0.2574 0.9895
vt 0.3787 0.0105
vt 0.2978 0.9895
vt 0.3989 0.0105
vt 0.3383 0.9895
vt 0.4191 0.0105
vt 0.3787 0.9895
vt 0.4393 0.0105
vt 0.4191 0.9895
vt 0.4596 0.0105
vt 0.4596 0.9895
vt 0.4798 0.0105
vt 0.5000 0.9895
vt 0.5000 0.0105
vt 0.5404 0.9895
vt 0.5202 0.0105
vt 0.5809 0.9895
vt 0.5404 0.0105
vt 0.6213 0.9895
vt 0.5607 0.0105
vt 0.6617 0.9895
vt 0.5809 0.0105
vt 0.7022 0.9895
vt 0.6011 0.0105
vt 0.7426 0.9895
vt 0.6213 0.0105
vt 0.7830 0.9895
vt 0.6415 0.0105
vt 0.8235 0.9895
vt 0.6617 0.0105
vt 0.8639 0.9895
vt 0.6820 0.0105
vt 0.9044 0.9895
vt 0.7022 0.0105
vt 0.9448 0.9895
vt 0.7224 0.0105
vt 0.9852 0.9895
vt 0.7426 0.0105
vn 0.1578 -0.0548 -0.9859
vn 0.1489 -0.1075 -0.9830
vn 0.1774 -0.0218 -0.9839
vn 0.1536 -0.0906 -0.9840
vn 0.1263 -0.1645 -0.9783
vn 0.0401 -0.2162 -0.9755
vn 0.0837 -0.1994 -0.9763
vn -0.0086 -0.2303 -0.9731
vn 0.0407 -0.2104 -0.9768
vn -0.0113 -0.2167 -0.9762
vn -0.0016 -0.2128 -0.9771
vn -0.0161 -0.2155 -0.9764
vn -0.0429 -0.2056 -0.9777
vn -0.0209 -0.2275 -0.9736
vn -0.0832 -0.1882 -0.9786
vn -0.0208 -0.2615 -0.9650
vn -0.1224 -0.1615 -0.9793
vn -0.0498 -0.2727 -0.9608
vn -0.1531 -0.1121 -0.9818
vn -0.1502 -0.0826 -0.9852
vn -0.1632 -0.0526 -0.9852
vn -0.1662 0.0094 -0.9861
vn -0.1629 0.0014 -0.9866
vn -0.1666 0.0126 -0.9859
vn -0.1579 0.0546 -0.9859
vn -0.1787 0.0174 -0.9838
vn -0.1490 0.1076 -0.9830
vn -0.1576 0.0857 -0.9838
vn -0.1264 0.1645 -0.9782
vn -0.0460 0.2120 -0.9762
vn -0.0841 0.2000 -0.9762
vn 0.0078 0.2307 -0.9730
vn -0.0409 0.2114 -0.9765
vn 0.0124 0.2177 -0.9759
vn 0.0015 0.2137 -0.9769
vn 0.0141 0.2179 -0.9759
vn 0.0428 0.2069 -0.9774
vn 0.0151 0.2319 -0.9726
vn 0.0838 0.1897 -0.9783
vn 0.0189 0.2647 -0.9642
vn 0.1235 0.1632 -0.9788
vn 0.0687 0.2350 -0.9696
vn 0.1540 0.1118 -0.9817
vn 0.1634 0.0444 -0.9856
vn 0.1633 0.0526 -0.9852
vn 0.1663 -0.0098 -0.9860
vn 0.1631 -0.0013 -0.9866
vn 0.1657 -0.0158 -0.9861
usemtl phong2
s 1
f 29/53/16 30/54/17 53/55/18
f 53/55/18 30/54/17 54/56/19
f 30/54/17 31/57/20 54/56/19
f 54/56/19 31/57/20 55/58/21
f 31/57/20 32/59/22 55/58/21
f 55/58/21 32/59/22 56/60/23
f 32/59/22 33/61/24 56/60/23
f 56/60/23 33/61/24 57/62/25
f 33/61/24 34/63/26 57/62/25
f 57/62/25 34/63/26 58/64/27
f 34/63/26 35/65/28 58/64/27
f 58/64/27 35/65/28 59/66/29
f 35/65/28 36/67/30 59/66/29
f 59/66/29 36/67/30 60/68/31
f 36/67/30 37/69/32 60/68/31
f 60/68/31 37/69/32 61/70/33
f 37/69/32 38/71/34 61/70/33
f 61/70/33 38/71/34 62/72/35
f 38/71/34 39/73/36 62/72/35
f 62/72/35 39/73/36 63/74/37
f 39/73/36 40/75/38 63/74/37
f 63/74/37 40/75/38 64/76/39
f 40/75/38 41/77/40 64/76/39
f 64/76/39 41/77/40 65/78/41
f 41/77/40 42/79/42 65/78/41
f 65/78/41 42/79/42 66/80/43
f 42/79/42 43/81/44 66/80/43
f 66/80/43 43/81/44 67/82/45
f 43/81/44 44/83/46 67/82/45
f 67/82/45 44/83/46 68/84/47
f 44/83/46 45/85/48 68/84/47
f 68/84/47 45/85/48 69/86/49
f 45/85/48 46/87/50 69/86/49
f 69/86/49 46/87/50 70/88/51
f 46/87/50 47/89/52 70/88/51
f 70/88/51 47/89/52 71/90/53
f 47/89/52 48/91/54 71/90/53
f 71/90/53 48/91/54 72/92/55
f 48/91/54 49/93/56 72/92/55
f 72/92/55 49/93/56 73/94/57
f 49/93/56 50/95/58 73/94/57
f 73/94/57 50/95/58 74/96/59
f 50/95/58 51/97/60 74/96/59
f 74/96/59 51/97/60 75/98/61
f 51/97/60 52/99/62 75/98/61
f 75/98/61 52/99/62 76/100/63
f 52/99/62 29/101/16 76/100/63
f 76/100/63 29/101/16 53/102/18
