# Blender v2.77 (sub 0) OBJ File: 'lights_new_lightcap_off.blend'
# www.blender.org
mtllib lights_new_lightcap_off.mtl
o Flare
v -0.255696 -0.054798 -0.452336
v 0.054798 -0.255696 -0.452336
v -0.054798 0.255696 -0.452336
v 0.255696 0.054798 -0.452336
vt 0.0000 0.0000
vt 1.0000 0.0000
vt 0.0000 1.0000
vt 1.0000 1.0000
vn 0.0000 0.0000 1.0000
usemtl phong3
s 1
f 1/1/1 2/2/1 3/3/1
f 3/3/1 2/2/1 4/4/1
o Lightcap
v -0.000000 -0.400000 -0.400000
v 0.282843 -0.282843 -0.400000
v 0.400000 0.000000 -0.400000
v 0.282843 0.282843 -0.400000
v -0.000000 0.400000 -0.400000
v -0.282843 0.282843 -0.400000
v -0.400000 0.000000 -0.400000
v -0.282843 -0.282843 -0.400000
v 0.353553 0.353553 -0.500000
v 0.000000 0.500000 -0.500000
v 0.000000 0.500000 -0.400000
v 0.353553 0.353553 -0.400000
v -0.353553 -0.353553 -0.500000
v -0.500000 0.000000 -0.500000
v -0.353553 0.353553 -0.500000
v 0.500000 0.000000 -0.500000
v 0.353553 -0.353553 -0.500000
v -0.000000 -0.500000 -0.500000
v -0.353553 -0.353553 -0.400000
v -0.500000 0.000000 -0.400000
v -0.000000 -0.500000 -0.400000
v 0.353553 -0.353553 -0.400000
v 0.500000 0.000000 -0.400000
v 0.282843 0.282843 -0.300000
v 0.400000 0.000000 -0.300000
v 0.000000 0.400000 -0.300000
v -0.353553 0.353553 -0.400000
v -0.282843 0.282843 -0.300000
v -0.400000 0.000000 -0.300000
v -0.400000 0.000000 -0.400000
v -0.282843 0.282843 -0.400000
v -0.282843 -0.282843 -0.300000
v -0.282843 -0.282843 -0.400000
v -0.000000 -0.400000 -0.300000
v 0.282843 -0.282843 -0.300000
v 0.400000 0.000000 -0.400000
v 0.282843 -0.282843 -0.400000
v 0.282843 0.282843 -0.400000
v 0.000000 0.400000 -0.400000
v -0.000000 -0.400000 -0.400000
v -0.000000 -0.400000 -0.453126
v 0.282843 -0.282843 -0.453126
v 0.400000 0.000000 -0.453126
v 0.282843 0.282843 -0.453126
v -0.000000 0.400000 -0.453126
v -0.282843 0.282843 -0.453126
v -0.400000 0.000000 -0.453126
v -0.282843 -0.282843 -0.453126
vt 0.6053 0.5593
vt 0.3776 0.3316
vt 0.4719 0.2373
vt 0.6053 0.2373
vt 0.6996 0.3316
vt 0.6996 0.4649
vt 0.4719 0.5593
vt 0.3776 0.4649
vt 0.1200 0.6046
vt 0.1035 0.5597
vt 0.1200 0.5597
vt 0.1342 0.1271
vt 0.1788 0.2357
vt 0.1342 0.2807
vt 0.0780 0.3768
vt 0.0615 0.3132
vt 0.0780 0.3132
vt 0.0780 0.4218
vt 0.0615 0.3768
vt 0.0269 0.4961
vt 0.0377 0.5597
vt 0.0269 0.5597
vt 0.1200 0.4961
vt 0.1035 0.4511
vt 0.1200 0.4511
vt 0.1035 0.4961
vt 0.0870 0.5025
vt 0.0870 0.5893
vt 0.1035 0.6046
vt 0.0945 0.3768
vt 0.0780 0.3196
vt 0.0945 0.3132
vt 0.0780 0.4064
vt 0.0945 0.4218
vt 0.1110 0.3641
vt 0.1275 0.4000
vt 0.1110 0.4000
vt 0.1110 0.3132
vt 0.1275 0.3641
vt 0.0450 0.3196
vt 0.0450 0.3704
vt 0.0601 0.5533
vt 0.0714 0.6046
vt 0.0377 0.4961
vt 0.0870 0.4665
vt 0.0601 0.5025
vt 0.1200 0.5380
vt 0.1365 0.5739
vt 0.1200 0.5739
vt 0.1365 0.4871
vt 0.1365 0.5380
vt 0.1200 0.4511
vt 0.1200 0.4871
vt 0.1440 0.3132
vt 0.1548 0.3641
vt 0.1440 0.3641
vt 0.1275 0.3132
vt 0.1440 0.3641
vt 0.1275 0.3641
vt 0.1440 0.4000
vt 0.1275 0.4000
vt 0.1110 0.4218
vt 0.1110 0.3768
vt 0.1110 0.3132
vt 0.0710 0.2807
vt 0.0264 0.1721
vt 0.0264 0.2357
vt 0.0710 0.1271
vt 0.1788 0.1721
vt 0.0615 0.4218
vt 0.0870 0.5533
vt 0.0780 0.3704
vt 0.1275 0.3132
vt 0.0870 0.5893
vt 0.0714 0.4511
vt 0.1365 0.4511
vt 0.1548 0.3132
vt 0.1440 0.3132
vt 0.4421 0.2335
vt 0.2952 0.0866
vt 0.3561 0.0258
vt 0.4421 0.0258
vt 0.5030 0.0866
vt 0.5030 0.1727
vt 0.3561 0.2335
vt 0.2952 0.1727
vn 0.0000 -0.0000 1.0000
vn 0.3827 0.9239 0.0000
vn -0.0000 0.0000 -1.0000
vn -0.9239 -0.3827 -0.0000
vn -0.3827 -0.9239 0.0000
vn 0.3827 -0.9239 0.0000
vn 0.9239 -0.3827 -0.0000
vn 0.9239 0.3827 0.0000
vn 0.5000 0.5000 0.7071
vn 0.7071 -0.0000 0.7071
vn 0.0000 0.7071 0.7071
vn -0.5000 0.5000 0.7071
vn -0.7071 -0.0000 0.7071
vn 1.0000 0.0000 0.0000
vn 0.7071 -0.7071 0.0000
vn 0.7071 0.7071 0.0000
vn -0.5000 -0.5000 0.7071
vn -0.0000 -0.7071 0.7071
vn 0.5000 -0.5000 0.7071
vn -1.0000 0.0000 0.0000
vn -0.7071 0.7071 0.0000
vn -0.7071 -0.7071 0.0000
vn 0.0000 -1.0000 0.0000
vn -0.0000 1.0000 0.0000
vn -0.9239 0.3827 0.0000
vn -0.3827 0.9239 0.0000
usemtl phong1
s 1
f 8/5/2 11/6/2 12/7/2
f 12/7/2 5/8/2 6/9/2
f 6/9/2 7/10/2 12/7/2
f 8/5/2 9/11/2 10/12/2
f 10/12/2 11/6/2 8/5/2
f 12/7/2 7/10/2 8/5/2
f 14/13/3 16/14/3 13/15/3
f 13/16/4 21/17/4 22/18/4
f 17/19/5 24/20/5 18/21/5
f 22/22/6 23/23/6 17/19/6
f 21/24/7 25/25/7 22/26/7
f 20/27/8 26/28/8 21/29/8
f 13/15/9 27/30/9 20/27/9
f 16/14/10 29/31/11 27/30/11
f 30/32/12 16/14/10 15/33/12
f 31/34/13 30/35/12 15/36/12
f 33/37/14 31/34/13 24/38/14
f 33/39/15 35/40/16 32/41/16
f 36/42/17 34/43/15 33/39/15
f 33/44/14 23/23/18 36/45/18
f 38/46/19 23/47/18 25/25/19
f 26/48/20 38/46/19 25/25/19
f 26/48/20 29/49/11 39/50/20
f 29/51/21 41/52/22 39/53/22
f 29/51/21 42/54/23 40/55/21
f 30/56/24 42/54/23 28/57/23
f 32/58/16 43/59/24 30/60/24
f 39/61/22 44/62/25 38/63/25
f 38/63/25 37/64/17 36/65/17
f 18/66/26 31/34/26 19/67/26
f 19/67/27 15/36/27 14/68/27
f 33/39/15 34/43/15 35/40/16
f 14/13/3 15/33/3 16/14/3
f 22/18/4 17/69/4 19/70/4
f 18/71/4 19/70/4 17/69/4
f 14/72/4 13/16/4 19/70/4
f 20/73/4 21/17/4 13/16/4
f 22/18/4 19/70/4 13/16/4
f 17/19/5 23/23/5 24/20/5
f 22/22/6 25/74/6 23/23/6
f 21/24/7 26/48/7 25/25/7
f 20/27/8 27/30/8 26/28/8
f 13/15/9 16/14/9 27/30/9
f 16/14/10 28/75/10 29/31/11
f 30/32/12 28/75/10 16/14/10
f 31/34/13 32/76/13 30/35/12
f 33/37/14 32/76/13 31/34/13
f 36/42/17 37/77/17 34/43/15
f 33/44/14 24/20/14 23/23/18
f 38/46/19 36/78/18 23/47/18
f 26/48/20 39/50/20 38/46/19
f 26/48/20 27/79/11 29/49/11
f 29/51/21 40/55/21 41/52/22
f 29/51/21 28/57/23 42/54/23
f 30/56/24 43/80/24 42/54/23
f 32/58/16 35/81/16 43/59/24
f 39/61/22 41/82/22 44/62/25
f 38/63/25 44/62/25 37/64/17
f 18/66/26 24/38/26 31/34/26
f 19/67/27 31/34/27 15/36/27
f 48/83/2 51/84/2 52/85/2
f 52/85/2 45/86/2 46/87/2
f 46/87/2 47/88/2 52/85/2
f 48/83/2 49/89/2 50/90/2
f 50/90/2 51/84/2 48/83/2
f 52/85/2 47/88/2 48/83/2
o Cone
v 0.171189 -0.047488 -0.435726
v 0.153484 -0.091741 -0.435726
v 0.125319 -0.129741 -0.435726
v 0.088614 -0.158899 -0.435726
v 0.045870 -0.177229 -0.435726
v -0.000000 -0.183481 -0.435726
v -0.045870 -0.177229 -0.435726
v -0.088614 -0.158899 -0.435726
v -0.125319 -0.129741 -0.435726
v -0.153484 -0.091741 -0.435726
v -0.171189 -0.047488 -0.435726
v -0.177228 -0.000000 -0.435726
v -0.171189 0.047488 -0.435726
v -0.153484 0.091741 -0.435726
v -0.125319 0.129741 -0.435726
v -0.088614 0.158899 -0.435726
v -0.045870 0.177229 -0.435726
v -0.000000 0.183481 -0.435726
v 0.045870 0.177229 -0.435726
v 0.088614 0.158899 -0.435726
v 0.125319 0.129741 -0.435726
v 0.153484 0.091741 -0.435726
v 0.171189 0.047488 -0.435726
v 0.177228 -0.000000 -0.435726
v 0.041881 -0.011618 -0.463058
v 0.037549 -0.022444 -0.463058
v 0.030659 -0.031741 -0.463058
v 0.021679 -0.038874 -0.463058
v 0.011222 -0.043359 -0.463058
v 0.000000 -0.044888 -0.463058
v -0.011222 -0.043359 -0.463058
v -0.021679 -0.038874 -0.463058
v -0.030659 -0.031741 -0.463058
v -0.037549 -0.022444 -0.463058
v -0.041881 -0.011618 -0.463058
v -0.043358 -0.000000 -0.463058
v -0.041881 0.011618 -0.463058
v -0.037549 0.022444 -0.463058
v -0.030659 0.031741 -0.463058
v -0.021679 0.038874 -0.463058
v -0.011222 0.043359 -0.463058
v -0.000000 0.044888 -0.463058
v 0.011222 0.043359 -0.463058
v 0.021679 0.038874 -0.463058
v 0.030659 0.031741 -0.463058
v 0.037549 0.022444 -0.463058
v 0.041881 0.011618 -0.463058
v 0.043358 0.000000 -0.463058
vt 0.0148 0.9895
vt 0.0552 0.9895
vt 0.2574 0.0105
vt 0.2776 0.0105
vt 0.0956 0.9895
vt 0.2978 0.0105
vt 0.1361 0.9895
vt 0.3180 0.0105
vt 0.1765 0.9895
vt 0.3383 0.0105
vt 0.2170 0.9895
vt 0.3585 0.0105
vt 0.2574 0.9895
vt 0.3787 0.0105
vt 0.2978 0.9895
vt 0.3989 0.0105
vt 0.3383 0.9895
vt 0.4191 0.0105
vt 0.3787 0.9895
vt 0.4393 0.0105
vt 0.4191 0.9895
vt 0.4596 0.0105
vt 0.4596 0.9895
vt 0.4798 0.0105
vt 0.5000 0.9895
vt 0.5000 0.0105
vt 0.5404 0.9895
vt 0.5202 0.0105
vt 0.5809 0.9895
vt 0.5404 0.0105
vt 0.6213 0.9895
vt 0.5607 0.0105
vt 0.6617 0.9895
vt 0.5809 0.0105
vt 0.7022 0.9895
vt 0.6011 0.0105
vt 0.7426 0.9895
vt 0.6213 0.0105
vt 0.7830 0.9895
vt 0.6415 0.0105
vt 0.8235 0.9895
vt 0.6617 0.0105
vt 0.8639 0.9895
vt 0.6820 0.0105
vt 0.9044 0.9895
vt 0.7022 0.0105
vt 0.9448 0.9895
vt 0.7224 0.0105
vt 0.9852 0.9895
vt 0.7426 0.0105
vn 0.1928 -0.0513 -0.9799
vn 0.1725 -0.0979 -0.9801
vn 0.1891 -0.0624 -0.9800
vn 0.1662 -0.1074 -0.9802
vn 0.1405 -0.1377 -0.9805
vn 0.1320 -0.1452 -0.9806
vn 0.0988 -0.1682 -0.9808
vn 0.0886 -0.1732 -0.9809
vn 0.0507 -0.1871 -0.9810
vn 0.0390 -0.1893 -0.9811
vn -0.0010 -0.1934 -0.9811
vn -0.0133 -0.1924 -0.9812
vn -0.0524 -0.1866 -0.9810
vn -0.0646 -0.1823 -0.9811
vn -0.1004 -0.1673 -0.9808
vn -0.1114 -0.1596 -0.9809
vn -0.1418 -0.1364 -0.9805
vn -0.1504 -0.1261 -0.9805
vn -0.1734 -0.0963 -0.9801
vn -0.1791 -0.0842 -0.9802
vn -0.1933 -0.0495 -0.9799
vn -0.1957 -0.0367 -0.9800
vn -0.2000 0.0010 -0.9798
vn -0.1991 0.0133 -0.9799
vn -0.1929 0.0511 -0.9799
vn -0.1891 0.0624 -0.9800
vn -0.1726 0.0978 -0.9801
vn -0.1662 0.1074 -0.9802
vn -0.1405 0.1377 -0.9805
vn -0.1320 0.1452 -0.9806
vn -0.0988 0.1682 -0.9808
vn -0.0886 0.1732 -0.9809
vn -0.0507 0.1871 -0.9810
vn -0.0390 0.1893 -0.9811
vn 0.0009 0.1934 -0.9811
vn 0.0133 0.1924 -0.9812
vn 0.0523 0.1867 -0.9810
vn 0.0646 0.1823 -0.9811
vn 0.1003 0.1673 -0.9808
vn 0.1114 0.1596 -0.9809
vn 0.1418 0.1364 -0.9805
vn 0.1504 0.1261 -0.9805
vn 0.1735 0.0962 -0.9801
vn 0.1791 0.0842 -0.9802
vn 0.1933 0.0494 -0.9799
vn 0.1957 0.0367 -0.9800
vn 0.2000 -0.0008 -0.9798
vn 0.1991 -0.0133 -0.9799
usemtl phong2
s 1
f 53/91/28 54/92/29 77/93/30
f 77/93/30 54/92/29 78/94/31
f 54/92/29 55/95/32 78/94/31
f 78/94/31 55/95/32 79/96/33
f 55/95/32 56/97/34 79/96/33
f 79/96/33 56/97/34 80/98/35
f 56/97/34 57/99/36 80/98/35
f 80/98/35 57/99/36 81/100/37
f 57/99/36 58/101/38 81/100/37
f 81/100/37 58/101/38 82/102/39
f 58/101/38 59/103/40 82/102/39
f 82/102/39 59/103/40 83/104/41
f 59/103/40 60/105/42 83/104/41
f 83/104/41 60/105/42 84/106/43
f 60/105/42 61/107/44 84/106/43
f 84/106/43 61/107/44 85/108/45
f 61/107/44 62/109/46 85/108/45
f 85/108/45 62/109/46 86/110/47
f 62/109/46 63/111/48 86/110/47
f 86/110/47 63/111/48 87/112/49
f 63/111/48 64/113/50 87/112/49
f 87/112/49 64/113/50 88/114/51
f 64/113/50 65/115/52 88/114/51
f 88/114/51 65/115/52 89/116/53
f 65/115/52 66/117/54 89/116/53
f 89/116/53 66/117/54 90/118/55
f 66/117/54 67/119/56 90/118/55
f 90/118/55 67/119/56 91/120/57
f 67/119/56 68/121/58 91/120/57
f 91/120/57 68/121/58 92/122/59
f 68/121/58 69/123/60 92/122/59
f 92/122/59 69/123/60 93/124/61
f 69/123/60 70/125/62 93/124/61
f 93/124/61 70/125/62 94/126/63
f 70/125/62 71/127/64 94/126/63
f 94/126/63 71/127/64 95/128/65
f 71/127/64 72/129/66 95/128/65
f 95/128/65 72/129/66 96/130/67
f 72/129/66 73/131/68 96/130/67
f 96/130/67 73/131/68 97/132/69
f 73/131/68 74/133/70 97/132/69
f 97/132/69 74/133/70 98/134/71
f 74/133/70 75/135/72 98/134/71
f 98/134/71 75/135/72 99/136/73
f 75/135/72 76/137/74 99/136/73
f 99/136/73 76/137/74 100/138/75
f 76/137/74 53/139/28 100/138/75
f 100/138/75 53/139/28 77/140/30
