# Blender v2.77 (sub 0) OBJ File: 'lights_new_lightrectangle_on.blend'
# www.blender.org
mtllib mjm_light_module_on.mtl
o light_Mesh2_Group3_Group1_Model
v 0.500000 -0.500000 -0.500000
v 0.300000 -0.500000 -0.500000
v 0.300000 -0.250000 -0.500000
v 0.500000 -0.250000 -0.500000
v 0.500000 -0.500000 0.380000
v -0.500000 -0.500000 0.380000
v -0.500000 -0.500000 -0.500000
v -0.300000 -0.500000 -0.500000
v -0.300000 -0.500000 -0.439511
v 0.300000 -0.500000 -0.439511
v 0.500000 0.000000 0.380000
v 0.300000 -0.057805 0.207278
v 0.300000 -0.288600 -0.439511
v 0.300000 -0.096405 0.217767
v -0.300000 -0.288600 -0.439511
v -0.300000 -0.250000 -0.500000
v -0.500000 -0.250000 -0.500000
v -0.300000 -0.057805 0.207278
v -0.300000 -0.096405 0.217767
v -0.500000 0.000000 0.380000
v -0.460000 -0.070000 0.500000
v 0.460000 -0.070000 0.500000
v -0.460000 -0.430000 0.500000
v -0.403500 -0.371000 0.470000
v -0.403500 -0.129000 0.470000
v 0.460000 -0.430000 0.500000
v 0.403500 -0.371000 0.470000
v 0.403500 -0.129000 0.470000
v -0.403500 -0.371000 0.318122
v 0.403500 -0.371000 0.318122
v 0.403500 -0.129000 0.318122
v -0.403500 -0.129000 0.318122
v -0.403500 -0.371000 0.470000
v 0.403500 -0.371000 0.470000
v 0.403500 -0.129000 0.470000
v -0.403500 -0.129000 0.470000
vt 0.0687 0.2893
vt 0.0431 0.3291
vt 0.0431 0.2893
vt 0.1481 0.2637
vt 0.0469 0.2317
vt 0.0469 0.1359
vt 0.0714 0.2637
vt 0.0395 0.4038
vt 0.0395 0.2637
vt 0.0412 0.2893
vt 0.0412 0.2573
vt 0.1582 0.2892
vt 0.1350 0.2573
vt 0.1533 0.4222
vt 0.1352 0.3152
vt 0.1582 0.4204
vt 0.1542 0.2893
vt 0.1270 0.3102
vt 0.9189 0.3758
vt 0.8919 0.2799
vt 0.9189 0.2799
vt 0.1229 0.4222
vt 0.1039 0.3963
vt 0.1270 0.4140
vt 0.0431 0.3690
vt 0.0687 0.3291
vt 0.0687 0.3690
vt 0.1350 0.1614
vt 0.0412 0.1614
vt 0.0412 0.1295
vt 0.1221 0.2893
vt 0.0957 0.4013
vt 0.1539 0.2637
vt 0.1589 0.3595
vt 0.1539 0.3595
vt 0.1582 0.1295
vt 0.1539 0.4234
vt 0.1369 0.2701
vt 0.1539 0.2637
vt 0.1326 0.1535
vt 0.0776 0.1731
vt 0.0866 0.1535
vt 0.1115 0.4016
vt 0.1369 0.4107
vt 0.1034 0.4107
vt 0.1034 0.2637
vt 0.1481 0.1039
vt 0.1653 0.2573
vt 0.0944 0.4234
vt 0.0484 0.4234
vt 0.1340 0.2727
vt 0.1115 0.2727
vt 0.1596 0.4016
vt 0.1653 0.2637
vt 0.1653 0.4107
vt 0.0815 0.1894
vt 0.1135 0.3296
vt 0.0815 0.3296
vt 0.9550 0.3506
vt 0.8783 0.2412
vt 0.9550 0.2412
vt 0.8919 0.3758
vt 0.8783 0.3506
vt 0.0687 0.3291
vt 0.0395 0.1359
vt 0.0395 0.1039
vt 0.0395 0.2637
vt 0.0395 0.2317
vt 0.1034 0.4038
vt 0.1582 0.2975
vt 0.0431 0.3291
vt 0.1270 0.2911
vt 0.1589 0.2637
vt 0.1369 0.4170
vt 0.1416 0.1731
vt 0.1340 0.4016
vt 0.1653 0.1103
vt 0.1369 0.2637
vt 0.1596 0.2727
vt 0.1454 0.1894
vt 0.6944 0.3457
vt 0.3778 0.4406
vt 0.3778 0.3457
vt 0.6944 0.4406
vt 0.5057 0.0953
vt 0.2941 0.1587
vt 0.2941 0.0953
vt 0.5057 0.1587
vn 0.0000 0.0000 -1.0000
vn 0.0000 -1.0000 0.0000
vn 1.0000 0.0000 0.0000
vn 0.0000 0.9619 -0.2733
vn -0.0524 0.9637 -0.2619
vn -1.0000 0.0000 0.0000
vn 0.0000 0.9650 -0.2622
vn 0.0000 -0.2622 -0.9650
vn 0.0000 0.9483 -0.3174
vn 0.0000 0.8638 0.5039
vn -0.9487 0.0000 0.3162
vn 0.4690 0.0000 0.8832
vn 0.0000 0.4532 0.8914
vn 0.0000 -0.8638 0.5039
vn 0.9487 0.0000 0.3162
vn -0.4690 0.0000 0.8832
vn 0.0000 -0.4532 0.8914
vn 0.0420 0.9611 -0.2730
vn 0.0000 0.9598 -0.2807
vn 0.0000 0.0000 1.0000
usemtl phong1
s 1
f 2/1/1 4/2/1 1/3/1
f 6/4/2 9/5/2 10/6/2
f 4/7/3 5/8/3 1/9/3
f 4/10/4 3/11/4 11/12/4
f 3/11/5 12/13/5 11/12/5
f 12/14/6 13/15/6 14/16/6
f 2/17/6 13/15/6 3/18/6
f 9/19/1 13/20/1 10/21/1
f 8/22/3 15/23/3 9/24/3
f 16/25/1 7/26/1 17/27/1
f 18/28/7 16/29/7 17/30/7
f 18/31/3 15/23/3 16/32/3
f 12/33/8 19/34/8 18/35/8
f 11/12/9 18/28/9 20/36/9
f 20/37/10 22/38/10 11/39/10
f 21/40/11 6/41/11 23/42/11
f 24/43/12 21/44/12 23/45/12
f 26/46/13 24/43/13 23/45/13
f 5/47/14 23/48/14 6/4/14
f 5/8/15 22/49/15 26/50/15
f 26/46/16 28/51/16 27/52/16
f 25/53/17 22/54/17 21/55/17
f 6/56/6 17/57/6 7/58/6
f 17/30/18 20/36/18 18/28/18
f 19/59/19 13/60/19 15/61/19
f 9/19/1 15/62/1 13/20/1
f 19/59/19 14/63/19 13/60/19
f 2/1/1 3/64/1 4/2/1
f 10/6/2 2/65/2 1/66/2
f 1/66/2 5/47/2 10/6/2
f 6/4/2 7/67/2 9/5/2
f 7/67/2 8/68/2 9/5/2
f 10/6/2 5/47/2 6/4/2
f 4/7/3 11/69/3 5/8/3
f 12/14/6 3/18/6 13/15/6
f 2/17/6 10/70/6 13/15/6
f 8/22/3 16/32/3 15/23/3
f 16/25/1 8/71/1 7/26/1
f 18/31/3 19/72/3 15/23/3
f 12/33/8 14/73/8 19/34/8
f 11/12/9 12/13/9 18/28/9
f 20/37/10 21/74/10 22/38/10
f 21/40/11 20/75/11 6/41/11
f 24/43/12 25/76/12 21/44/12
f 26/46/13 27/52/13 24/43/13
f 5/47/14 26/77/14 23/48/14
f 5/8/15 11/69/15 22/49/15
f 26/46/16 22/78/16 28/51/16
f 25/53/17 28/79/17 22/54/17
f 6/56/6 20/80/6 17/57/6
f 30/81/20 32/82/20 29/83/20
f 30/81/20 31/84/20 32/82/20
f 34/85/20 36/86/20 33/87/20
f 34/85/20 35/88/20 36/86/20
o Flare
v -1.596052 -0.262153 0.508153
v 0.273959 -1.004087 0.508153
v -0.273959 0.506121 0.508153
v 1.596052 -0.235812 0.508153
vt 0.0000 0.0000
vt 1.0000 0.0000
vt 0.0000 1.0000
vt 1.0000 1.0000
vn 0.0000 0.0000 1.0000
usemtl phong3
s 1
f 37/89/21 38/90/21 39/91/21
f 39/91/21 38/90/21 40/92/21
o Cone
v 1.774428 -0.427868 3.785366
v 1.590909 -0.594563 3.785366
v 1.298971 -0.737706 3.785366
v 0.918512 -0.847545 3.785366
v 0.475456 -0.916592 3.785366
v -0.000000 -0.940142 3.785366
v -0.475458 -0.916592 3.785366
v -0.918512 -0.847545 3.785366
v -1.298973 -0.737707 3.785366
v -1.590911 -0.594563 3.785366
v -1.774430 -0.427868 3.785366
v -1.837025 -0.248983 3.785366
v -1.774430 -0.070098 3.785366
v -1.590911 0.096597 3.785366
v -1.298973 0.239741 3.785366
v -0.918513 0.349579 3.785366
v -0.475458 0.418626 3.785366
v -0.000001 0.442177 3.785366
v 0.475456 0.418626 3.785366
v 0.918512 0.349579 3.785366
v 1.298971 0.239741 3.785366
v 1.590910 0.096597 3.785366
v 1.774430 -0.070098 3.785366
v 1.837024 -0.248983 3.785366
v 0.420196 -0.292746 0.490863
v 0.402460 -0.370626 0.490863
v 0.317789 -0.384447 0.490863
v 0.224711 -0.395419 0.490863
v 0.116319 -0.396412 0.490863
v 0.000000 -0.398994 0.490863
v -0.116319 -0.393232 0.490863
v -0.224711 -0.395419 0.490863
v -0.317789 -0.384447 0.490863
v -0.401930 -0.370096 0.490863
v -0.417414 -0.292747 0.490863
v -0.420008 -0.248983 0.490863
v -0.417414 -0.205219 0.490863
v -0.404315 -0.129459 0.490863
v -0.317789 -0.109544 0.490863
v -0.224711 -0.102547 0.490863
v -0.116319 -0.092809 0.490863
v -0.000000 -0.091817 0.490863
v 0.116319 -0.094399 0.490863
v 0.224711 -0.102547 0.490863
v 0.317789 -0.108882 0.490863
v 0.403785 -0.130652 0.490863
v 0.417547 -0.205219 0.490863
v 0.422923 -0.248983 0.490863
vt 0.0148 0.9895
vt 0.0552 0.9895
vt 0.2574 0.0105
vt 0.2776 0.0105
vt 0.0956 0.9895
vt 0.2978 0.0105
vt 0.1361 0.9895
vt 0.3180 0.0105
vt 0.1765 0.9895
vt 0.3383 0.0105
vt 0.2170 0.9895
vt 0.3585 0.0105
vt 0.2574 0.9895
vt 0.3787 0.0105
vt 0.2978 0.9895
vt 0.3989 0.0105
vt 0.3383 0.9895
vt 0.4191 0.0105
vt 0.3787 0.9895
vt 0.4393 0.0105
vt 0.4191 0.9895
vt 0.4596 0.0105
vt 0.4596 0.9895
vt 0.4798 0.0105
vt 0.5000 0.9895
vt 0.5000 0.0105
vt 0.5404 0.9895
vt 0.5202 0.0105
vt 0.5809 0.9895
vt 0.5404 0.0105
vt 0.6213 0.9895
vt 0.5607 0.0105
vt 0.6617 0.9895
vt 0.5809 0.0105
vt 0.7022 0.9895
vt 0.6011 0.0105
vt 0.7426 0.9895
vt 0.6213 0.0105
vt 0.7830 0.9895
vt 0.6415 0.0105
vt 0.8235 0.9895
vt 0.6617 0.0105
vt 0.8639 0.9895
vt 0.6820 0.0105
vt 0.9044 0.9895
vt 0.7022 0.0105
vt 0.9448 0.9895
vt 0.7224 0.0105
vt 0.9852 0.9895
vt 0.7426 0.0105
vn 0.7943 -0.4972 -0.3491
vn 0.5611 -0.7846 -0.2637
vn 0.9177 -0.1590 -0.3639
vn 0.5893 -0.7552 -0.2869
vn 0.3615 -0.9104 -0.2013
vn 0.1263 -0.9796 -0.1564
vn 0.2170 -0.9603 -0.1751
vn 0.0484 -0.9863 -0.1578
vn 0.1012 -0.9813 -0.1636
vn 0.0040 -0.9873 -0.1589
vn -0.0013 -0.9869 -0.1616
vn -0.0268 -0.9865 -0.1615
vn -0.1044 -0.9804 -0.1670
vn -0.0369 -0.9882 -0.1489
vn -0.2183 -0.9591 -0.1799
vn -0.0587 -0.9888 -0.1369
vn -0.3636 -0.9082 -0.2073
vn -0.1579 -0.9779 -0.1368
vn -0.5588 -0.7881 -0.2581
vn -0.6070 -0.7398 -0.2902
vn -0.7988 -0.4943 -0.3430
vn -0.9152 -0.1094 -0.3879
vn -0.9192 0.0020 -0.3937
vn -0.9212 0.0178 -0.3888
vn -0.7943 0.4968 -0.3497
vn -0.9219 0.1335 -0.3638
vn -0.5612 0.7844 -0.2641
vn -0.6347 0.7137 -0.2964
vn -0.3619 0.9103 -0.2011
vn -0.1293 0.9788 -0.1589
vn -0.2167 0.9605 -0.1745
vn -0.0717 0.9850 -0.1567
vn -0.1020 0.9814 -0.1624
vn -0.0344 0.9864 -0.1605
vn 0.0013 0.9872 -0.1593
vn 0.0212 0.9873 -0.1576
vn 0.1040 0.9809 -0.1644
vn 0.0629 0.9861 -0.1539
vn 0.2192 0.9592 -0.1788
vn 0.0917 0.9857 -0.1411
vn 0.3633 0.9085 -0.2065
vn 0.1598 0.9773 -0.1389
vn 0.5594 0.7878 -0.2579
vn 0.6455 0.7015 -0.3020
vn 0.7987 0.4943 -0.3431
vn 0.9132 0.1305 -0.3860
vn 0.9194 -0.0016 -0.3933
vn 0.9215 0.0104 -0.3882
usemtl phong2
s 1
f 41/93/22 42/94/23 65/95/24
f 65/95/24 42/94/23 66/96/25
f 42/94/23 43/97/26 66/96/25
f 66/96/25 43/97/26 67/98/27
f 43/97/26 44/99/28 67/98/27
f 67/98/27 44/99/28 68/100/29
f 44/99/28 45/101/30 68/100/29
f 68/100/29 45/101/30 69/102/31
f 45/101/30 46/103/32 69/102/31
f 69/102/31 46/103/32 70/104/33
f 46/103/32 47/105/34 70/104/33
f 70/104/33 47/105/34 71/106/35
f 47/105/34 48/107/36 71/106/35
f 71/106/35 48/107/36 72/108/37
f 48/107/36 49/109/38 72/108/37
f 72/108/37 49/109/38 73/110/39
f 49/109/38 50/111/40 73/110/39
f 73/110/39 50/111/40 74/112/41
f 50/111/40 51/113/42 74/112/41
f 74/112/41 51/113/42 75/114/43
f 51/113/42 52/115/44 75/114/43
f 75/114/43 52/115/44 76/116/45
f 52/115/44 53/117/46 76/116/45
f 76/116/45 53/117/46 77/118/47
f 53/117/46 54/119/48 77/118/47
f 77/118/47 54/119/48 78/120/49
f 54/119/48 55/121/50 78/120/49
f 78/120/49 55/121/50 79/122/51
f 55/121/50 56/123/52 79/122/51
f 79/122/51 56/123/52 80/124/53
f 56/123/52 57/125/54 80/124/53
f 80/124/53 57/125/54 81/126/55
f 57/125/54 58/127/56 81/126/55
f 81/126/55 58/127/56 82/128/57
f 58/127/56 59/129/58 82/128/57
f 82/128/57 59/129/58 83/130/59
f 59/129/58 60/131/60 83/130/59
f 83/130/59 60/131/60 84/132/61
f 60/131/60 61/133/62 84/132/61
f 84/132/61 61/133/62 85/134/63
f 61/133/62 62/135/64 85/134/63
f 85/134/63 62/135/64 86/136/65
f 62/135/64 63/137/66 86/136/65
f 86/136/65 63/137/66 87/138/67
f 63/137/66 64/139/68 87/138/67
f 87/138/67 64/139/68 88/140/69
f 64/139/68 41/141/22 88/140/69
f 88/140/69 41/141/22 65/142/24
