# File produced by Open Asset Import Library (http://www.assimp.sf.net)
# (assimp v3.1.29665513)

mtllib mjm_PipeOpening.obj.mtl

# 32 vertex positions
v  0 -0.5 -0.5
v  0.353553 -0.353553 0.5
v  0 -0.5 0.5
v  0.353553 -0.353553 -0.5
v  0.5 0 -0.5
v  0.5 0 0.5
v  0.353553 0.353553 -0.5
v  0.353553 0.353553 0.5
v  0 0.5 -0.5
v  -0.353553 0.353553 -0.5
v  -0.353553 -0.353553 -0.5
v  -0.5 0 -0.5
v  -0.5 0 0.5
v  -0.353553 -0.353553 0.5
v  -0.268701 -0.268701 0.5
v  -0.38 0 0.5
v  0 -0.38 0.5
v  0.268701 -0.268701 0.5
v  0.38 0 0.5
v  0.268701 0.268701 0.5
v  0 0.5 0.5
v  0 0.38 0.5
v  -0.353553 0.353553 0.5
v  -0.268701 0.268701 0.5
v  -0.268701 0.268701 -0.4
v  -0.38 0 -0.4
v  -0.268701 -0.268701 -0.4
v  0 0.38 -0.4
v  0.268701 0.268701 -0.4
v  0.38 0 -0.4
v  0 -0.38 -0.4
v  0.268701 -0.268701 -0.4

# 76 UV coordinates
vt 0.296446 0.609951 0
vt 0.269918 0.519762 0
vt 0.296446 0.519762 0
vt 0.269918 0.609951 0
vt 0.232402 0.609951 0
vt 0.232402 0.519762 0
vt 0.205875 0.609951 0
vt 0.205875 0.519762 0
vt 0.270248 0.519659 0
vt 0.298906 0.583307 0
vt 0.270249 0.609672 0
vt 0.229721 0.519659 0
vt 0.201063 0.546023 0
vt 0.298906 0.546023 0
vt 0.229721 0.609672 0
vt 0.201063 0.583308 0
vt 0.253794 0.61066 0
vt 0.280131 0.521119 0
vt 0.280131 0.61066 0
vt 0.216548 0.61066 0
vt 0.253794 0.521119 0
vt 0.216548 0.521119 0
vt 0.267337 0.526716 0
vt 0.272708 0.514787 0
vt 0.304357 0.543903 0
vt 0.23332 0.526716 0
vt 0.227949 0.514787 0
vt 0.29139 0.548844 0
vt 0.304357 0.58508 0
vt 0.29139 0.580139 0
vt 0.267337 0.602268 0
vt 0.272708 0.614197 0
vt 0.227949 0.614197 0
vt 0.23332 0.602268 0
vt 0.1963 0.58508 0
vt 0.209267 0.580139 0
vt 0.1963 0.543903 0
vt 0.209267 0.548845 0
vt 0.259099 0.622163 0
vt 0.209128 0.665659 0
vt 0.209122 0.622171 0
vt 0.294438 0.622157 0
vt 0.259105 0.665651 0
vt 0.294445 0.665646 0
vt 0.310599 0.622412 0
vt 0.27526 0.6659 0
vt 0.27526 0.622412 0
vt 0.310599 0.6659 0
vt 0.225283 0.6659 0
vt 0.225283 0.622412 0
vt 0.189944 0.622412 0
vt 0.189944 0.6659 0
vt 0.892586 0.14047 0
vt 0.853338 0.0533 0
vt 0.987338 0.104363 0
vt 0.94809 0.14047 0
vt 0.853338 0.104363 0
vt 0.987338 0.0533 0
vt 0.94809 0.017193 0
vt 0.892585 0.017193 0
vt 0.203169 0.520052 0
vt 0.230463 0.612847 0
vt 0.203169 0.612847 0
vt 0.230463 0.520052 0
vt 0.269063 0.520052 0
vt 0.269063 0.612847 0
vt 0.296357 0.520052 0
vt 0.296357 0.612847 0
vt 0.27526 0.622232 0
vt 0.310599 0.66572 0
vt 0.27526 0.66572 0
vt 0.225283 0.66572 0
vt 0.225283 0.622232 0
vt 0.310599 0.622232 0
vt 0.189944 0.66572 0
vt 0.189944 0.622232 0

# 10 vertex normals
vn -0 -1 -0
vn 0.707107 -0.707107 -0
vn 1 -0 -0
vn 0.707107 0.707107 0
vn -0 0 -1
vn -0.707107 -0.707107 -0
vn -1 0 0
vn 0 -0 1
vn -0 1 0
vn -0.707107 0.707107 0

# Mesh '_submesh0' with 70 faces
g _submesh0
usemtl DefaultMaterial
f  1/1/1 2/2/2 3/3/1
f  1/1/1 4/4/2 2/2/2
f  5/5/3 2/2/2 4/4/2
f  5/5/3 6/6/3 2/2/2
f  7/7/4 6/6/3 5/5/3
f  7/7/4 8/8/4 6/6/3
f  7/9/5 4/10/5 1/11/5
f  9/12/5 7/9/5 10/13/5
f  5/14/5 4/10/5 7/9/5
f  1/11/5 10/13/5 7/9/5
f  1/11/5 11/15/5 10/13/5
f  12/16/5 10/13/5 11/15/5
f  11/17/6 13/18/7 12/19/7
f  1/20/1 14/21/6 11/17/6
f  11/17/6 14/21/6 13/18/7
f  1/20/1 3/22/1 14/21/6
f  15/23/8 14/24/8 3/25/8
f  16/26/8 14/24/8 15/23/8
f  15/23/8 13/27/8 14/24/8
f  15/23/8 3/25/8 17/28/8
f  15/23/8 16/26/8 13/27/8
f  17/28/8 3/25/8 2/29/8
f  18/30/8 3/25/8 2/29/8
f  18/30/8 17/28/8 3/25/8
f  17/28/8 2/29/8 18/30/8
f  18/30/8 2/29/8 19/31/8
f  6/32/8 18/30/8 2/29/8
f  19/31/8 2/29/8 6/32/8
f  6/32/8 19/31/8 18/30/8
f  8/33/8 20/34/8 19/31/8
f  8/33/8 19/31/8 6/32/8
f  21/35/8 20/34/8 8/33/8
f  21/35/8 22/36/8 20/34/8
f  22/36/8 20/34/8 8/33/8
f  22/36/8 8/33/8 21/35/8
f  23/37/8 24/38/8 21/35/8
f  21/35/8 24/38/8 22/36/8
f  23/37/8 16/26/8 24/38/8
f  24/38/8 13/27/8 16/26/8
f  24/38/8 23/37/8 13/27/8
f  16/26/8 23/37/8 13/27/8
f  14/24/8 16/26/8 13/27/8
f  16/39/3 25/40/2 24/41/2
f  15/42/4 26/43/3 16/39/3
f  16/39/3 26/43/3 25/40/2
f  15/42/4 27/44/4 26/43/3
f  24/45/2 28/46/1 22/47/1
f  24/45/2 25/48/2 28/46/1
f  22/47/1 29/49/6 20/50/6
f  22/47/1 28/46/1 29/49/6
f  19/51/7 20/50/6 29/49/6
f  19/51/7 29/49/6 30/52/7
f  30/53/8 28/54/8 31/55/8
f  32/56/8 30/53/8 31/55/8
f  29/57/8 28/54/8 30/53/8
f  27/58/8 31/55/8 26/59/8
f  26/59/8 31/55/8 28/54/8
f  25/60/8 26/59/8 28/54/8
f  7/61/4 21/62/9 8/63/4
f  7/61/4 9/64/9 21/62/9
f  10/65/10 21/62/9 9/64/9
f  10/65/10 23/66/10 21/62/9
f  12/67/7 23/66/10 10/65/10
f  12/67/7 13/68/7 23/66/10
f  18/69/10 30/70/7 32/71/10
f  18/69/10 31/72/9 17/73/9
f  18/69/10 19/74/7 30/70/7
f  18/69/10 32/71/10 31/72/9
f  17/73/9 27/75/4 15/76/4
f  17/73/9 31/72/9 27/75/4

