# Blender v2.77 (sub 0) OBJ File: 'lights_new_lightrectangle2_of.blend'
# www.blender.org
mtllib mjm_light_rectangle_off.mtl
o light_Mesh2_Group3_Group1_Model.001
v -0.500000 0.250000 -0.500000
v -0.500000 -0.250000 -0.500000
v -0.500000 -0.250000 -0.400000
v -0.500000 0.250000 -0.400000
v 0.500000 0.250000 -0.500000
v 0.500000 -0.250000 -0.500000
v 0.500000 0.250000 -0.400000
v -0.460000 0.180000 -0.320000
v 0.460000 0.180000 -0.320000
v -0.460000 -0.180000 -0.320000
v 0.500000 -0.250000 -0.400000
v 0.460000 -0.180000 -0.320000
v 0.403500 -0.121000 -0.350000
v 0.403500 0.121000 -0.350000
v -0.403500 -0.121000 -0.350000
v -0.403500 0.121000 -0.350000
v -0.403500 -0.121000 -0.350000
v 0.403500 -0.121000 -0.350000
v 0.403500 0.121000 -0.350000
v -0.403500 0.121000 -0.350000
v -0.403500 -0.121000 -0.421342
v 0.403500 -0.121000 -0.421342
v 0.403500 0.121000 -0.421342
v -0.403500 0.121000 -0.421342
vt 0.1298 0.2168
vt 0.1110 0.3466
vt 0.1110 0.2168
vt 0.0128 0.3524
vt 0.1093 0.0929
vt 0.1093 0.3524
vt 0.0622 0.3466
vt 0.0429 0.0870
vt 0.0622 0.0870
vt 0.1642 0.3420
vt 0.1796 0.0929
vt 0.1796 0.3524
vt 0.0942 0.3284
vt 0.0942 0.0974
vt 0.0741 0.3466
vt 0.0741 0.0870
vt 0.1110 0.2168
vt 0.0942 0.1052
vt 0.1110 0.0870
vt 0.1298 0.2168
vt 0.1298 0.0870
vt 0.0622 0.0870
vt 0.0622 0.3466
vt 0.1093 0.0929
vt 0.1517 0.1076
vt 0.1148 0.1076
vt 0.1298 0.0870
vt 0.1356 0.3111
vt 0.1298 0.3258
vt 0.1148 0.3170
vt 0.1642 0.3317
vt 0.1093 0.3317
vt 0.1517 0.3170
vt 0.1642 0.0929
vt 0.1298 0.3466
vt 0.0128 0.0929
vt 0.0429 0.3466
vt 0.1642 0.1033
vt 0.0942 0.2350
vt 0.0942 0.3362
vt 0.0942 0.1986
vt 0.1356 0.1017
vt 0.7003 0.3492
vt 0.3688 0.4487
vt 0.3688 0.3492
vt 0.7003 0.4487
vt 0.5056 0.0967
vt 0.2912 0.1610
vt 0.2912 0.0967
vt 0.5056 0.1610
vn -1.0000 0.0000 0.0000
vn 0.0000 0.0000 -1.0000
vn 0.0000 1.0000 0.0000
vn 0.0000 0.7526 0.6585
vn -0.8944 -0.0000 0.4472
vn 0.0000 -0.7526 0.6585
vn 0.8944 -0.0000 0.4472
vn 1.0000 0.0000 0.0000
vn 0.0000 -1.0000 -0.0000
vn -0.4690 -0.0000 0.8832
vn 0.0000 0.4532 0.8914
vn 0.4690 -0.0000 0.8832
vn 0.0000 -0.4532 0.8914
vn 0.0000 -0.0000 1.0000
usemtl phong1
s 1
f 1/1/1 3/2/1 4/3/1
f 1/4/2 6/5/2 2/6/2
f 1/7/3 7/8/3 5/9/3
f 8/10/4 7/11/4 4/12/4
f 10/13/5 4/3/5 3/2/5
f 12/14/6 3/15/6 11/16/6
f 7/17/7 12/18/7 11/19/7
f 5/20/8 11/19/8 6/21/8
f 6/22/9 3/15/9 2/23/9
f 12/24/10 14/25/10 13/26/10
f 12/27/11 15/28/11 10/29/11
f 15/30/12 8/31/12 10/32/12
f 16/33/13 9/34/13 8/31/13
f 1/1/1 2/35/1 3/2/1
f 1/4/2 5/36/2 6/5/2
f 1/7/3 4/37/3 7/8/3
f 8/10/4 9/38/4 7/11/4
f 10/13/5 8/39/5 4/3/5
f 12/14/6 10/40/6 3/15/6
f 7/17/7 9/41/7 12/18/7
f 5/20/8 7/17/8 11/19/8
f 6/22/9 11/16/9 3/15/9
f 12/24/10 9/34/10 14/25/10
f 12/27/11 13/42/11 15/28/11
f 15/30/12 16/33/12 8/31/12
f 16/33/13 14/25/13 9/34/13
f 18/43/14 20/44/14 17/45/14
f 18/43/14 19/46/14 20/44/14
f 22/47/14 24/48/14 21/49/14
f 22/47/14 23/50/14 24/48/14
o Flare
v -0.312159 -0.001692 -0.417395
v 0.053581 -0.085448 -0.417395
v -0.053581 0.085038 -0.417395
v 0.312159 0.001281 -0.417395
vt 0.0000 0.0000
vt 1.0000 0.0000
vt 0.0000 1.0000
vt 1.0000 1.0000
vn -0.0000 0.0000 1.0000
usemtl phong3
s 1
f 25/51/15 26/52/15 27/53/15
f 27/53/15 26/52/15 28/54/15
o Cone
v 0.279888 -0.032817 -0.397911
v 0.250941 -0.063090 -0.397911
v 0.204892 -0.089086 -0.397911
v 0.144881 -0.109034 -0.397911
v 0.074996 -0.121573 -0.397911
v -0.000000 -0.125850 -0.397911
v -0.074996 -0.121573 -0.397911
v -0.144881 -0.109034 -0.397911
v -0.204893 -0.089086 -0.397911
v -0.250941 -0.063090 -0.397911
v -0.279889 -0.032817 -0.397911
v -0.289762 -0.000330 -0.397911
v -0.279889 0.032157 -0.397911
v -0.250941 0.062430 -0.397911
v -0.204893 0.088426 -0.397911
v -0.144881 0.108373 -0.397911
v -0.074996 0.120913 -0.397911
v -0.000000 0.125190 -0.397911
v 0.074996 0.120913 -0.397911
v 0.144881 0.108373 -0.397911
v 0.204892 0.088426 -0.397911
v 0.250941 0.062430 -0.397911
v 0.279889 0.032157 -0.397911
v 0.289762 -0.000330 -0.397911
v 0.066279 -0.008278 -0.458272
v 0.063482 -0.022422 -0.458272
v 0.050126 -0.024932 -0.458272
v 0.035445 -0.026924 -0.458272
v 0.018348 -0.027105 -0.458272
v 0.000000 -0.027573 -0.458272
v -0.018347 -0.026527 -0.458272
v -0.035445 -0.026924 -0.458272
v -0.050126 -0.024932 -0.458272
v -0.063398 -0.022325 -0.458272
v -0.065841 -0.008278 -0.458272
v -0.066250 -0.000330 -0.458272
v -0.065841 0.007617 -0.458272
v -0.063774 0.021376 -0.458272
v -0.050126 0.024993 -0.458272
v -0.035445 0.026264 -0.458272
v -0.018348 0.028032 -0.458272
v -0.000000 0.028212 -0.458272
v 0.018348 0.027743 -0.458272
v 0.035445 0.026264 -0.458272
v 0.050126 0.025113 -0.458272
v 0.063691 0.021159 -0.458272
v 0.065861 0.007617 -0.458272
v 0.066710 -0.000330 -0.458272
vt 0.0148 0.9895
vt 0.0552 0.9895
vt 0.2574 0.0105
vt 0.2776 0.0105
vt 0.0956 0.9895
vt 0.2978 0.0105
vt 0.1361 0.9895
vt 0.3180 0.0105
vt 0.1765 0.9895
vt 0.3383 0.0105
vt 0.2170 0.9895
vt 0.3585 0.0105
vt 0.2574 0.9895
vt 0.3787 0.0105
vt 0.2978 0.9895
vt 0.3989 0.0105
vt 0.3383 0.9895
vt 0.4191 0.0105
vt 0.3787 0.9895
vt 0.4393 0.0105
vt 0.4191 0.9895
vt 0.4596 0.0105
vt 0.4596 0.9895
vt 0.4798 0.0105
vt 0.5000 0.9895
vt 0.5000 0.0105
vt 0.5404 0.9895
vt 0.5202 0.0105
vt 0.5809 0.9895
vt 0.5404 0.0105
vt 0.6213 0.9895
vt 0.5607 0.0105
vt 0.6617 0.9895
vt 0.5809 0.0105
vt 0.7022 0.9895
vt 0.6011 0.0105
vt 0.7426 0.9895
vt 0.6213 0.0105
vt 0.7830 0.9895
vt 0.6415 0.0105
vt 0.8235 0.9895
vt 0.6617 0.0105
vt 0.8639 0.9895
vt 0.6820 0.0105
vt 0.9044 0.9895
vt 0.7022 0.0105
vt 0.9448 0.9895
vt 0.7224 0.0105
vt 0.9852 0.9895
vt 0.7426 0.0105
vn 0.2534 -0.1325 -0.9582
vn 0.2333 -0.2653 -0.9355
vn 0.2781 -0.0586 -0.9588
vn 0.1721 -0.3670 -0.9142
vn 0.1927 -0.3985 -0.8967
vn 0.0730 -0.5256 -0.8476
vn 0.1309 -0.4750 -0.8702
vn 0.0226 -0.5307 -0.8472
vn 0.0636 -0.5162 -0.8541
vn 0.0008 -0.5291 -0.8486
vn -0.0018 -0.5244 -0.8515
vn -0.0217 -0.5233 -0.8519
vn -0.0675 -0.5062 -0.8598
vn -0.0417 -0.5380 -0.8419
vn -0.1298 -0.4656 -0.8754
vn -0.0300 -0.5865 -0.8094
vn -0.1901 -0.3871 -0.9022
vn -0.1058 -0.5672 -0.8168
vn -0.2380 -0.2753 -0.9314
vn -0.1871 -0.4084 -0.8934
vn -0.2593 -0.1310 -0.9569
vn -0.2649 -0.0196 -0.9641
vn -0.2616 0.0016 -0.9652
vn -0.2649 0.0164 -0.9641
vn -0.2531 0.1321 -0.9584
vn -0.2797 0.0521 -0.9587
vn -0.2330 0.2649 -0.9357
vn -0.1926 0.3287 -0.9246
vn -0.1930 0.3981 -0.8968
vn -0.0631 0.5318 -0.8445
vn -0.1309 0.4770 -0.8691
vn -0.0450 0.5284 -0.8478
vn -0.0658 0.5179 -0.8529
vn -0.0148 0.5272 -0.8496
vn 0.0021 0.5300 -0.8480
vn 0.0206 0.5316 -0.8468
vn 0.0677 0.5127 -0.8559
vn 0.0452 0.5355 -0.8433
vn 0.1314 0.4662 -0.8749
vn 0.0704 0.5533 -0.8300
vn 0.1905 0.3888 -0.9014
vn 0.0892 0.5921 -0.8009
vn 0.2384 0.2749 -0.9314
vn 0.2071 0.3439 -0.9159
vn 0.2592 0.1309 -0.9569
vn 0.2660 0.0247 -0.9637
vn 0.2619 -0.0012 -0.9651
vn 0.2653 -0.0092 -0.9641
usemtl phong2
s 1
f 29/55/16 30/56/17 53/57/18
f 53/57/18 30/56/17 54/58/19
f 30/56/17 31/59/20 54/58/19
f 54/58/19 31/59/20 55/60/21
f 31/59/20 32/61/22 55/60/21
f 55/60/21 32/61/22 56/62/23
f 32/61/22 33/63/24 56/62/23
f 56/62/23 33/63/24 57/64/25
f 33/63/24 34/65/26 57/64/25
f 57/64/25 34/65/26 58/66/27
f 34/65/26 35/67/28 58/66/27
f 58/66/27 35/67/28 59/68/29
f 35/67/28 36/69/30 59/68/29
f 59/68/29 36/69/30 60/70/31
f 36/69/30 37/71/32 60/70/31
f 60/70/31 37/71/32 61/72/33
f 37/71/32 38/73/34 61/72/33
f 61/72/33 38/73/34 62/74/35
f 38/73/34 39/75/36 62/74/35
f 62/74/35 39/75/36 63/76/37
f 39/75/36 40/77/38 63/76/37
f 63/76/37 40/77/38 64/78/39
f 40/77/38 41/79/40 64/78/39
f 64/78/39 41/79/40 65/80/41
f 41/79/40 42/81/42 65/80/41
f 65/80/41 42/81/42 66/82/43
f 42/81/42 43/83/44 66/82/43
f 66/82/43 43/83/44 67/84/45
f 43/83/44 44/85/46 67/84/45
f 67/84/45 44/85/46 68/86/47
f 44/85/46 45/87/48 68/86/47
f 68/86/47 45/87/48 69/88/49
f 45/87/48 46/89/50 69/88/49
f 69/88/49 46/89/50 70/90/51
f 46/89/50 47/91/52 70/90/51
f 70/90/51 47/91/52 71/92/53
f 47/91/52 48/93/54 71/92/53
f 71/92/53 48/93/54 72/94/55
f 48/93/54 49/95/56 72/94/55
f 72/94/55 49/95/56 73/96/57
f 49/95/56 50/97/58 73/96/57
f 73/96/57 50/97/58 74/98/59
f 50/97/58 51/99/60 74/98/59
f 74/98/59 51/99/60 75/100/61
f 51/99/60 52/101/62 75/100/61
f 75/100/61 52/101/62 76/102/63
f 52/101/62 29/103/16 76/102/63
f 76/102/63 29/103/16 53/104/18
