# Exported from Wings 3D 1.5.4
mtllib MonitorController.mtl
o Cube61
#36 vertices, 34 faces
v 1.00000000 -0.50000000 1.00000000
v 1.00000000 -0.50000000 -1.00000000
v -1.00000000 -0.50000000 1.00000000
v -1.00000000 -0.50000000 -1.00000000
v 1.00000000 0.45000000 1.00000000
v 1.00000000 0.45000000 -1.00000000
v -1.00000000 0.45000000 1.00000000
v -1.00000000 0.45000000 -1.00000000
v 0.95000000 0.50000000 0.95000000
v 0.95000000 0.50000000 -0.95000000
v -0.95000000 0.50000000 -0.95000000
v -0.95000000 0.50000000 0.95000000
v 0.92150000 0.50000000 0.92150000
v 0.92150000 0.50000000 -0.92150000
v -0.92150000 0.50000000 -0.92150000
v -0.92150000 0.50000000 0.92150000
v 0.82935000 0.38000000 0.82935000
v 0.82935000 0.38000000 -0.82935000
v -0.82935000 0.38000000 -0.82935000
v -0.82935000 0.38000000 0.82935000
v 0.82935000 0.28000000 0.82935000
v 0.82935000 0.28000000 -0.82935000
v -0.82935000 0.28000000 -0.82935000
v -0.82935000 0.28000000 0.82935000
v 0.77129550 0.35000000 0.77129550
v 0.77129550 0.35000000 -0.77129550
v -0.77129550 0.35000000 -0.77129550
v -0.77129550 0.35000000 0.77129550
v 0.69416595 0.40000000 0.69416595
v 0.69416595 0.40000000 -0.69416595
v -0.69416595 0.40000000 -0.69416595
v -0.69416595 0.40000000 0.69416595
v 0.55533276 0.43000000 0.55533276
v 0.55533276 0.43000000 -0.55533276
v -0.55533276 0.43000000 -0.55533276
v -0.55533276 0.43000000 0.55533276
vt 0.15688633 0.15688633
vt 0.15688633 0.38975592
vt 0.16270807 0.16270807
vt 0.16270807 0.38393418
vt 0.16602646 0.16602646
vt 0.16602646 0.38061579
vt 0.17675592 0.17675592
vt 0.17675592 0.36988633
vt 0.36988633 0.17675592
vt 0.36988633 0.36988633
vt 0.38061579 0.16602646
vt 0.38061579 0.38061579
vt 0.38393418 0.16270807
vt 0.38393418 0.38393418
vt 0.38975592 0.15688633
vt 0.38975592 0.38975592
vt 0.50000000 0.50000000
vt 0.50000000 1.00000000
vt 0.51750000 0.51750000
vt 0.51750000 0.98250000
vt 0.54075000 0.54075000
vt 0.54075000 0.95925000
vt 0.58260000 0.58260000
vt 0.58260000 0.91740000
vt 0.91740000 0.58260000
vt 0.91740000 0.91740000
vt 0.95925000 0.54075000
vt 0.95925000 0.95925000
vt 0.98250000 0.51750000
vt 0.98250000 0.98250000
vt 1.00000000 0.50000000
vt 1.00000000 1.00000000
vn 0.37636435 0.84658121 0.37636435
vn 0.37636435 0.84658121 -0.37636435
vn -0.37636435 0.84658121 -0.37636435
vn -0.37636435 0.84658121 0.37636435
vn 0.19942157 0.95940715 0.19942157
vn 0.19942157 0.95940715 -0.19942157
vn -0.19942157 0.95940715 -0.19942157
vn -0.19942157 0.95940715 0.19942157
vn 7.1116537e-2 0.99492958 7.1116537e-2
vn 7.1116537e-2 0.99492958 -7.1116537e-2
vn -7.1116537e-2 0.99492958 -7.1116537e-2
vn -7.1116537e-2 0.99492958 7.1116537e-2
vn 1.00000000 0.0000000e+0 0.0000000e+0
vn 0.0000000e+0 -1.00000000 0.0000000e+0
vn 0.0000000e+0 0.0000000e+0 1.00000000
vn 1.00000000 0.0000000e+0 0.0000000e+0
vn 0.0000000e+0 -1.00000000 0.0000000e+0
vn 0.0000000e+0 0.0000000e+0 -1.00000000
vn -1.00000000 0.0000000e+0 0.0000000e+0
vn 0.0000000e+0 -1.00000000 0.0000000e+0
vn 0.0000000e+0 0.0000000e+0 1.00000000
vn -1.00000000 0.0000000e+0 0.0000000e+0
vn 0.0000000e+0 -1.00000000 0.0000000e+0
vn 0.0000000e+0 0.0000000e+0 -1.00000000
vn 1.00000000 0.0000000e+0 0.0000000e+0
vn 0.0000000e+0 0.70710678 0.70710678
vn 0.0000000e+0 0.0000000e+0 1.00000000
vn 0.70710678 0.70710678 0.0000000e+0
vn 1.00000000 0.0000000e+0 0.0000000e+0
vn 0.0000000e+0 0.0000000e+0 -1.00000000
vn 0.70710678 0.70710678 0.0000000e+0
vn 0.0000000e+0 0.70710678 -0.70710678
vn -1.00000000 0.0000000e+0 0.0000000e+0
vn 0.0000000e+0 0.70710678 0.70710678
vn -0.70710678 0.70710678 0.0000000e+0
vn 0.0000000e+0 0.0000000e+0 1.00000000
vn -1.00000000 0.0000000e+0 0.0000000e+0
vn -0.70710678 0.70710678 0.0000000e+0
vn 0.0000000e+0 0.0000000e+0 -1.00000000
vn 0.0000000e+0 0.70710678 -0.70710678
vn 0.0000000e+0 0.92387953 0.38268343
vn 0.0000000e+0 0.92387953 0.38268343
vn 0.38268343 0.92387953 0.0000000e+0
vn 0.38268343 0.92387953 0.0000000e+0
vn 0.38268343 0.92387953 0.0000000e+0
vn 0.0000000e+0 0.92387953 -0.38268343
vn 0.38268343 0.92387953 0.0000000e+0
vn 0.0000000e+0 0.92387953 -0.38268343
vn -0.38268343 0.92387953 0.0000000e+0
vn -0.38268343 0.92387953 0.0000000e+0
vn 0.0000000e+0 0.92387953 -0.38268343
vn 0.0000000e+0 0.92387953 -0.38268343
vn 0.0000000e+0 0.92387953 0.38268343
vn 0.0000000e+0 0.92387953 0.38268343
vn -0.38268343 0.92387953 0.0000000e+0
vn -0.38268343 0.92387953 0.0000000e+0
vn 0.0000000e+0 0.89695478 -0.44212229
vn 0.0000000e+0 0.89695478 -0.44212229
vn -0.44212229 0.89695478 0.0000000e+0
vn -0.44212229 0.89695478 0.0000000e+0
vn -0.44212229 0.89695478 0.0000000e+0
vn 0.0000000e+0 0.89695478 0.44212229
vn -0.44212229 0.89695478 0.0000000e+0
vn 0.0000000e+0 0.89695478 0.44212229
vn 0.44212229 0.89695478 0.0000000e+0
vn 0.44212229 0.89695478 0.0000000e+0
vn 0.0000000e+0 0.89695478 0.44212229
vn 0.0000000e+0 0.89695478 0.44212229
vn 0.0000000e+0 0.89695478 -0.44212229
vn 0.0000000e+0 0.89695478 -0.44212229
vn 0.44212229 0.89695478 0.0000000e+0
vn 0.44212229 0.89695478 0.0000000e+0
vn 0.0000000e+0 0.32161514 -0.94687048
vn 0.0000000e+0 0.32161514 -0.94687048
vn -0.94687048 0.32161514 0.0000000e+0
vn -0.94687048 0.32161514 0.0000000e+0
vn -0.94687048 0.32161514 0.0000000e+0
vn 0.0000000e+0 0.32161514 0.94687048
vn -0.94687048 0.32161514 0.0000000e+0
vn 0.0000000e+0 0.32161514 0.94687048
vn 0.94687048 0.32161514 0.0000000e+0
vn 0.94687048 0.32161514 0.0000000e+0
vn 0.0000000e+0 0.32161514 0.94687048
vn 0.0000000e+0 0.32161514 0.94687048
vn 0.0000000e+0 0.32161514 -0.94687048
vn 0.0000000e+0 0.32161514 -0.94687048
vn 0.94687048 0.32161514 0.0000000e+0
vn 0.94687048 0.32161514 0.0000000e+0
vn 0.0000000e+0 0.0000000e+0 -1.00000000
vn 0.45876938 0.76096078 0.45876938
vn 0.45876938 0.76096078 0.45876938
vn -1.00000000 0.0000000e+0 0.0000000e+0
vn 0.45876938 0.76096078 -0.45876938
vn 0.45876938 0.76096078 -0.45876938
vn -1.00000000 0.0000000e+0 0.0000000e+0
vn 0.0000000e+0 0.0000000e+0 1.00000000
vn 1.00000000 0.0000000e+0 0.0000000e+0
vn -0.45876938 0.76096078 -0.45876938
vn -0.45876938 0.76096078 -0.45876938
vn 0.0000000e+0 0.0000000e+0 1.00000000
vn 0.0000000e+0 0.0000000e+0 -1.00000000
vn 1.00000000 0.0000000e+0 0.0000000e+0
vn -0.45876938 0.76096078 0.45876938
vn -0.45876938 0.76096078 0.45876938
g Cube61_Cube61_auv
usemtl Cube61_auv
s 1
f 1/16/14 3/2/20 4/1/23 2/15/17
f 5/16/26 9/14/41 12/4/53 7/2/34
f 8/1/40 11/3/51 10/13/46 6/15/32
f 9/14/42 13/12/57 16/6/69 12/4/54
f 11/3/52 15/5/67 14/11/62 10/13/48
f 13/12/58 17/10/73 20/8/85 16/6/70
f 15/5/68 19/7/83 18/9/78 14/11/64
f 17/10/74 21/10/89 24/8/101 20/8/86
f 19/7/84 23/7/100 22/9/96 18/9/80
s 2
f 2/15/16 6/15/29 5/16/25 1/16/13
f 3/2/19 7/2/33 8/1/37 4/1/22
f 21/18/90 25/20/1 28/30/4 24/32/103
f 22/17/93 26/19/2 25/20/1 21/18/91
f 23/31/98 27/29/3 26/19/2 22/17/94
f 24/32/104 28/30/4 27/29/3 23/31/99
f 25/20/1 29/22/5 32/28/8 28/30/4
f 26/19/2 30/21/6 29/22/5 25/20/1
f 27/29/3 31/27/7 30/21/6 26/19/2
f 28/30/4 32/28/8 31/27/7 27/29/3
f 29/22/5 33/24/9 36/26/12 32/28/8
f 30/21/6 34/23/10 33/24/9 29/22/5
f 31/27/7 35/25/11 34/23/10 30/21/6
f 32/28/8 36/26/12 35/25/11 31/27/7
f 34/23/10 35/25/11 36/26/12 33/24/9
s 3
f 1/16/15 5/16/27 7/2/36 3/2/21
f 4/1/24 8/1/39 6/15/30 2/15/18
f 6/15/31 10/13/45 9/14/43 5/16/28
f 7/2/35 12/4/55 11/3/49 8/1/38
f 10/13/47 14/11/61 13/12/59 9/14/44
f 12/4/56 16/6/71 15/5/65 11/3/50
f 14/11/63 18/9/77 17/10/75 13/12/60
f 16/6/72 20/8/87 19/7/81 15/5/66
f 18/9/79 22/9/95 21/10/92 17/10/76
f 20/8/88 24/8/102 23/7/97 19/7/82
