# Blender 3.6.1
# www.blender.org
# UV coordinates are set up for an UV animation with steps of 1/256.
# The texture coordinates cover an area of 1/512 x 1/512 to prevent
# sampling neighbouring pixels due to floating point rounding.
o cube
v 0.500000 0.500000 -0.500000
v 0.500000 -0.500000 -0.500000
v 0.500000 0.500000 0.500000
v 0.500000 -0.500000 0.500000
v -0.500000 0.500000 -0.500000
v -0.500000 -0.500000 -0.500000
v -0.500000 0.500000 0.500000
v -0.500000 -0.500000 0.500000
vn -0.0000 1.0000 -0.0000
vn -0.0000 -0.0000 1.0000
vn -1.0000 -0.0000 -0.0000
vn -0.0000 -1.0000 -0.0000
vn 1.0000 -0.0000 -0.0000
vn -0.0000 -0.0000 -1.0000
vt 0.000977 0.997070
vt 0.002930 0.997070
vt 0.002930 0.999023
vt 0.000977 0.999023
s 0
f 1/1/1 5/2/1 7/3/1 3/4/1
f 4/1/2 3/2/2 7/3/2 8/4/2
f 8/1/3 7/2/3 5/3/3 6/4/3
f 6/1/4 2/2/4 4/3/4 8/4/4
f 2/1/5 1/2/5 3/3/5 4/4/5
f 6/1/6 5/2/6 1/3/6 2/4/6
