# File produced by Open Asset Import Library (http://www.assimp.sf.net)
# (assimp v3.1.76522261)

mtllib obj_fittings_pipevalve.obj.mtl

# 112 vertex positions
v  0.352964 -0.5 -0.352965
v  0 -0.5 -0.499167
v  0.284701 -0.260284 -0.284701
v  0.499167 -0.5 1.9984e-015
v  0.402628 -0.260284 1.04107e-015
v  0 -0.260284 -0.402628
v  -0.352964 -0.5 -0.352965
v  -0.284701 -0.260284 -0.284701
v  -0.499167 -0.5 1.9984e-015
v  -0.402628 -0.260284 1.04107e-015
v  -0.352964 -0.5 0.352965
v  -0.284701 -0.260284 0.284701
v  0 -0.5 0.499167
v  0 -0.260284 0.402628
v  0.284701 -0.260284 0.284701
v  0.352964 -0.5 0.352965
v  0 -0.5 1.9984e-015
v  0.223675 -0.260284 -0.223675
v  0 -0.260284 -0.316324
v  -0.223675 -0.260284 -0.223675
v  -0.316324 -0.260284 1.05312e-015
v  -0.223675 -0.260284 0.223675
v  0 -0.260284 0.316324
v  0.223675 -0.260284 0.223675
v  0.316324 -0.260284 1.05312e-015
v  0.223675 -0.152703 -0.223782
v  0.316324 -0.156423 0.000230408
v  1.01041e-011 -0.151166 -0.31638
v  -0.223675 -0.152703 -0.223782
v  -0.316324 -0.156423 0.000230408
v  -0.223675 -0.160135 0.223782
v  2.71325e-011 -0.161673 0.31638
v  0.223675 -0.160135 0.223782
v  0.0506805 0.244965 0.0877816
v  -0.0506805 0.244965 0.0877816
v  0.0506805 0.144383 0.0877816
v  0.223885 0.244965 0.187782
v  -0.0506805 0.144383 0.0877816
v  0.0506805 -0.204533 0.0877816
v  0.101362 0.144383 -5.9475e-016
v  0.101362 -0.204533 1.49012e-010
v  -0.0506805 -0.204533 0.0877816
v  0.0506805 -0.204533 -0.0877816
v  0.0506805 0.144383 -0.0877816
v  0.101362 0.244965 -1.00908e-015
v  -0.0506805 -0.204533 -0.0877816
v  -0.0506805 0.144383 -0.0877816
v  -0.101362 -0.204533 1.5253e-008
v  -0.101362 0.144383 1.5104e-008
v  -0.0506805 0.244965 -0.0877816
v  -0.101362 0.244965 1.5104e-008
v  0.0506805 0.244965 -0.0877816
v  0 0.244965 -1.00908e-015
v  -0.223885 0.244965 0.187782
v  0.274567 0.244965 0.100001
v  -0.274567 0.244965 0.100001
v  -0.0506805 0.244965 -0.287782
v  0.0506805 0.244965 -0.287782
v  -0.274567 0.144382 0.100001
v  -0.223885 0.144382 0.187782
v  0.0506805 0.144383 -0.287782
v  -0.0506805 0.144383 -0.287782
v  0.223885 0.144383 0.187782
v  0.274567 0.144383 0.100001
v  6.10352e-007 0.196626 0.221804
v  0.156839 0.196626 0.156839
v  6.10352e-007 0.110923 0.271285
v  0.191828 0.110923 0.191827
v  0.221805 0.196626 -8.09953e-016
v  6.10352e-007 0.110923 0.370246
v  0.261804 0.110923 0.261803
v  6.10352e-007 0.196626 0.419726
v  0.271285 0.110923 -4.56921e-016
v  0.296791 0.196626 0.296791
v  0.370246 0.110923 -4.56921e-016
v  0.156839 0.196626 -0.156839
v  0.191828 0.110923 -0.191827
v  0.261804 0.110923 -0.261803
v  0.419727 0.196626 -8.09953e-016
v  6.10352e-007 0.110923 -0.271285
v  6.10352e-007 0.110923 -0.370246
v  0.296792 0.196626 -0.296791
v  0.370246 0.282328 -1.16299e-015
v  0.261804 0.282328 0.261803
v  6.10352e-007 0.196626 -0.419726
v  0.261804 0.282328 -0.261803
v  0.271285 0.282328 -1.16299e-015
v  0.191828 0.282328 0.191827
v  0.191828 0.282328 -0.191827
v  6.10352e-007 0.282328 -0.370245
v  6.10352e-007 0.282328 -0.271285
v  -0.261802 0.282328 -0.261803
v  -0.191827 0.282328 -0.191827
v  6.10352e-007 0.196626 -0.221804
v  -0.29679 0.196626 -0.296791
v  -0.261802 0.110923 -0.261803
v  -0.370245 0.110923 -4.56921e-016
v  -0.419725 0.196626 -8.09953e-016
v  -0.370245 0.282328 -1.16299e-015
v  -0.261802 0.110923 0.261803
v  -0.29679 0.196626 0.296791
v  -0.271284 0.110923 -4.56921e-016
v  -0.191827 0.110923 0.191827
v  -0.221804 0.196626 -8.09953e-016
v  -0.156838 0.196626 0.156839
v  -0.191827 0.110923 -0.191827
v  -0.156838 0.196626 -0.156839
v  -0.261802 0.282328 0.261803
v  6.10352e-007 0.282328 0.370245
v  -0.191827 0.282328 0.191827
v  -0.271284 0.282328 -1.16299e-015
v  6.10352e-007 0.282328 0.271285

# 161 UV coordinates
vt 0.551398 0.653144 0
vt 0.498833 0.653144 0
vt 0.551398 0.611658 0
vt 0.604817 0.653144 0
vt 0.604817 0.611658 0
vt 0.498833 0.611658 0
vt 0.446337 0.653144 0
vt 0.446337 0.611658 0
vt 0.393133 0.653144 0
vt 0.393133 0.611658 0
vt 0.340132 0.653144 0
vt 0.340132 0.611658 0
vt 0.287202 0.653144 0
vt 0.287202 0.611658 0
vt 0.658103 0.611658 0
vt 0.711289 0.611658 0
vt 0.658103 0.653144 0
vt 0.711289 0.653144 0
vt 0.211466 0.899866 0
vt 0.11324 0.899866 0
vt 0.182696 0.969322 0
vt 0.182696 0.83041 0
vt 0.11324 0.998092 0
vt 0.0437838 0.969322 0
vt 0.0150142 0.899866 0
vt 0.11324 0.80164 0
vt 0.0437838 0.83041 0
vt 0.551398 0.598392 0
vt 0.498833 0.598392 0
vt 0.446337 0.598392 0
vt 0.393133 0.598392 0
vt 0.340132 0.598392 0
vt 0.287202 0.598392 0
vt 0.711289 0.598392 0
vt 0.658103 0.598392 0
vt 0.604817 0.598392 0
vt 0.173745 0.764467 0
vt 0.115885 0.789313 0
vt 0.157818 0.748402 0
vt 0.175147 0.707692 0
vt 0.116678 0.766979 0
vt 0.0753484 0.749009 0
vt 0.0587579 0.765676 0
vt 0.0575756 0.708687 0
vt 0.0361009 0.708438 0
vt 0.196203 0.706811 0
vt 0.0599264 0.652453 0
vt 0.0737258 0.665663 0
vt 0.115795 0.648531 0
vt 0.115392 0.628956 0
vt 0.171596 0.651217 0
vt 0.15783 0.665099 0
vt 0.873873 0.565486 0
vt 0.889756 0.565486 0
vt 0.866356 0.590268 0
vt 0.867681 0.557076 0
vt 0.889756 0.590268 0
vt 0.866356 0.673625 0
vt 0.841064 0.590268 0
vt 0.841064 0.673625 0
vt 0.889756 0.673625 0
vt 0.814982 0.673625 0
vt 0.814982 0.590268 0
vt 0.832685 0.584662 0
vt 0.795209 0.673625 0
vt 0.795209 0.590268 0
vt 0.767277 0.673625 0
vt 0.767277 0.590268 0
vt 0.783339 0.585566 0
vt 0.746647 0.673625 0
vt 0.746647 0.590268 0
vt 0.780769 0.585566 0
vt 0.826248 0.584662 0
vt 0.158898 0.0945216 0
vt 0.13736 0.122914 0
vt 0.122571 0.0893303 0
vt 0.144219 0.0608922 0
vt 0.224966 0.0680594 0
vt 0.101018 0.117842 0
vt 0.0933201 0.188554 0
vt 0.129681 0.193669 0
vt 0.107796 0.0556278 0
vt 0.0861334 0.0841845 0
vt 0.21024 0.0344223 0
vt 0.0559256 0.0164335 0
vt 0.0342904 0.0449544 0
vt 0.780769 0.56302 0
vt 0.767277 0.56302 0
vt 0.746647 0.56302 0
vt 0.728974 0.590268 0
vt 0.728974 0.56302 0
vt 0.826248 0.562317 0
vt 0.814982 0.562317 0
vt 0.795209 0.562317 0
vt 0.783339 0.562317 0
vt 0.858419 0.562694 0
vt 0.841064 0.562694 0
vt 0.832685 0.562694 0
vt 0.279664 0.149603 0
vt 0.279663 0.208132 0
vt 0.253325 0.149603 0
vt 0.253325 0.208132 0
vt 0.279663 0.261985 0
vt 0.231495 0.149603 0
vt 0.231495 0.208132 0
vt 0.209731 0.149603 0
vt 0.253325 0.261985 0
vt 0.209731 0.208132 0
vt 0.231495 0.261985 0
vt 0.279663 0.319409 0
vt 0.253325 0.319409 0
vt 0.231495 0.319409 0
vt 0.209731 0.261985 0
vt 0.253325 0.378632 0
vt 0.231495 0.378632 0
vt 0.209731 0.319409 0
vt 0.187966 0.261985 0
vt 0.187966 0.208132 0
vt 0.209731 0.378632 0
vt 0.187966 0.319409 0
vt 0.166139 0.261985 0
vt 0.166139 0.208132 0
vt 0.166139 0.319409 0
vt 0.139799 0.261985 0
vt 0.139799 0.208132 0
vt 0.187966 0.378632 0
vt 0.166139 0.378632 0
vt 0.139799 0.319409 0
vt 0.187966 0.437857 0
vt 0.166139 0.437857 0
vt 0.139799 0.378632 0
vt 0.20973 0.437857 0
vt 0.231495 0.437857 0
vt 0.231495 0.495281 0
vt 0.20973 0.495281 0
vt 0.187966 0.495281 0
vt 0.231495 0.549139 0
vt 0.209731 0.549139 0
vt 0.253325 0.495281 0
vt 0.253325 0.549139 0
vt 0.279664 0.495281 0
vt 0.279664 0.549139 0
vt 0.253325 0.437857 0
vt 0.279664 0.437857 0
vt 0.279663 0.378632 0
vt 0.279664 0.607667 0
vt 0.253325 0.607667 0
vt 0.231495 0.607667 0
vt 0.20973 0.607667 0
vt 0.187967 0.549139 0
vt 0.187966 0.607667 0
vt 0.166139 0.549139 0
vt 0.166139 0.495281 0
vt 0.166139 0.607667 0
vt 0.1398 0.549139 0
vt 0.1398 0.495281 0
vt 0.1398 0.607667 0
vt 0.139799 0.437857 0
vt 0.139799 0.149603 0
vt 0.166139 0.149603 0
vt 0.187966 0.149603 0

# 128 vertex normals
vn 0.655914 0.373569 -0.655914
vn -2.59492e-008 0.373569 -0.927602
vn 0.655914 0.373569 -0.655914
vn 0.927602 0.373569 5.96046e-008
vn 0.927602 0.373569 2.98023e-008
vn 0 0.373569 -0.927602
vn -0.655914 0.373569 -0.655914
vn -0.655914 0.373569 -0.655914
vn -0.927602 0.373569 -1.49012e-007
vn -0.927602 0.373569 -8.9407e-008
vn -0.655914 0.373569 0.655914
vn -0.655914 0.373569 0.655914
vn 6.48729e-008 0.373569 0.927602
vn 2.16062e-008 0.373569 0.927602
vn 0.655914 0.373569 0.655914
vn 0.655914 0.373569 0.655914
vn -3.82106e-008 -1 0
vn -2.7019e-008 -1 1.19209e-007
vn 0 -1 0
vn -7.64212e-008 -1 1.19209e-007
vn -1.58273e-008 -1 1.19209e-007
vn -5.40379e-008 -1 1.19209e-007
vn -3.16547e-008 -1 1.19209e-007
vn 0 1 -1.19209e-007
vn 0 1 0
vn 0 1 1.19209e-007
vn 0.703783 -0.000263512 -0.710415
vn 6.01161e-008 -0.000756323 -1
vn 0.701495 -0.000267386 -0.712674
vn 0.99994 -0.000210276 -0.0109095
vn 6.03754e-008 -0.000756383 -1
vn -0.701495 -0.000267506 -0.712674
vn -0.703783 -0.000263691 -0.710415
vn -0.99994 -0.000210337 -0.0109095
vn -0.999968 -0.000213658 -0.00794773
vn 0.999968 -0.000213596 -0.00794776
vn -0.710951 -0.000754535 0.703241
vn -0.712694 -0.000754058 0.701474
vn 4.35302e-008 -0.00082463 1
vn 0 -0.00082463 1
vn 0.710951 -0.000754475 0.703241
vn 0.712694 -0.000754058 0.701474
vn 7.12863e-008 0.999862 0.0166031
vn -3.92183e-008 0.999862 0.0166031
vn -3.92251e-008 0.999862 0.0166031
vn -2.08743e-008 0.999862 0.0166031
vn -1.7357e-008 0.999862 0.0166031
vn -1.73633e-008 0.999862 0.0166031
vn 8.50836e-008 0.999862 0.0166031
vn -0.342222 0 0.939619
vn 0.342222 5.96046e-008 0.939619
vn 0.247094 0 0.968991
vn -0.500003 0 0.866024
vn -0.247094 0 0.968992
vn 0.5 0 0.866026
vn 0.962718 2.98023e-008 -0.270506
vn 1 -8.88261e-009 0
vn -0.5 -5.96046e-008 0.866026
vn 0.5 5.96046e-008 -0.866026
vn 0.715623 5.96046e-008 -0.698487
vn 0.642626 0 -0.76618
vn -0.5 0 -0.866026
vn -0.715623 -5.96046e-008 -0.698486
vn -1 -4.81117e-009 -3.17158e-008
vn -0.962718 0 -0.270506
vn -0.984844 0 -0.173441
vn -0.642626 0 -0.76618
vn 0.984844 0 -0.173441
vn -1.91684e-006 1 1.19209e-006
vn -1.91684e-006 1 1.19209e-006
vn -2.47771e-006 1 1.43051e-006
vn -2.47771e-006 1 1.43051e-006
vn -0.500003 -5.96046e-008 -0.866024
vn -0.500003 0 -0.866024
vn 2.22994e-006 -1 -1.3113e-006
vn 0.500003 5.96046e-008 0.866024
vn 0.500003 1.19209e-007 0.866024
vn 1 0 0
vn -3.58913e-014 -1 -2.38419e-007
vn -1 0 0
vn 0.500003 0 -0.866024
vn -7.23975e-008 -1.19209e-007 -1
vn -0.707105 -5.96046e-008 -0.707108
vn 0 -0.938479 -0.345337
vn -0.244191 -0.938479 -0.24419
vn 1.15499e-008 -0.769229 0.638973
vn 0.451822 -0.769229 0.451822
vn 1.15629e-008 1.19209e-007 1
vn -0.345338 -0.938479 -5.96046e-008
vn 0.707107 0 0.707107
vn 0.638973 -0.769229 4.17232e-007
vn -0.707105 -5.96046e-008 0.707108
vn -0.244191 -0.938479 0.24419
vn 0.451821 -0.76923 -0.451822
vn 1 -1.15629e-008 4.27827e-007
vn -1.52523e-015 -0.938479 0.345337
vn -4.61997e-008 -0.769229 -0.638973
vn 0.707107 0 -0.707106
vn 0.638973 0.76923 3.57628e-007
vn 0.451822 0.769229 0.451822
vn -1.15629e-008 1.19209e-007 -1
vn 0.451821 0.76923 -0.451822
vn -0.345338 0.938479 0
vn -0.244191 0.938479 -0.24419
vn -0.244191 0.938479 0.24419
vn -4.61997e-008 0.76923 -0.638973
vn 1.27946e-008 0.938478 0.345338
vn -0.451822 0.769229 -0.451822
vn 0.244191 0.938478 0.244191
vn -4.34385e-008 -1.19209e-007 1
vn -0.707107 1.19209e-007 -0.707107
vn -0.451822 -0.769229 -0.451822
vn -0.638973 -0.769229 0
vn -1 8.88178e-016 1.15629e-008
vn -0.638973 0.769229 -5.96046e-008
vn -0.451822 -0.769229 0.451822
vn -0.707107 0 0.707107
vn 0.345338 -0.938478 5.96046e-008
vn 0.244191 -0.938478 -0.24419
vn 1 0 -3.61987e-008
vn 0.707106 -1.19209e-007 -0.707108
vn 0.244191 -0.938478 0.244191
vn 0.707106 -5.96046e-008 0.707108
vn -0.451822 0.769229 0.451822
vn 0 0.76923 0.638973
vn 0.244191 0.938478 -0.244191
vn 0.345338 0.938478 0
vn 1.27946e-008 0.938479 -0.345338

# Mesh '_s       ' with 206 faces
g _s       
usemtl DefaultMaterial
f  1/1/1 2/2/2 3/3/3
f  4/4/4 1/1/1 5/5/5
f  5/5/5 1/1/1 3/3/3
f  3/3/3 2/2/2 6/6/6
f  2/2/2 7/7/7 6/6/6
f  6/6/6 7/7/7 8/8/8
f  7/7/7 9/9/9 8/8/8
f  8/8/8 9/9/9 10/10/10
f  9/9/9 11/11/11 10/10/10
f  10/10/10 11/11/11 12/12/12
f  11/11/11 13/13/13 12/12/12
f  12/12/12 13/13/13 14/14/14
f  15/15/15 4/4/4 5/5/5
f  14/16/14 16/17/16 15/15/15
f  16/17/16 4/4/4 15/15/15
f  13/18/13 16/17/16 14/16/14
f  4/19/17 17/20/18 1/21/19
f  16/22/20 17/20/18 4/19/17
f  1/21/19 17/20/18 2/23/19
f  2/23/19 17/20/18 7/24/19
f  7/24/19 17/20/18 9/25/21
f  13/26/22 17/20/18 16/22/20
f  9/25/21 17/20/18 11/27/23
f  11/27/23 17/20/18 13/26/22
f  3/3/24 6/6/24 18/28/24
f  18/28/24 6/6/24 19/29/24
f  6/6/24 8/8/25 19/29/24
f  19/29/24 8/8/25 20/30/25
f  8/8/24 10/10/24 20/30/24
f  20/30/24 10/10/24 21/31/24
f  10/10/24 12/12/26 21/31/24
f  21/31/26 12/12/26 22/32/26
f  12/12/26 14/14/26 22/32/26
f  22/32/26 14/14/26 23/33/26
f  14/16/25 15/15/25 23/34/25
f  23/34/25 15/15/25 24/35/25
f  15/15/26 5/5/26 24/35/26
f  24/35/26 5/5/26 25/36/26
f  5/5/26 3/3/24 25/36/26
f  25/36/24 3/3/24 18/28/24
f  18/37/27 19/38/28 26/39/29
f  27/40/30 18/37/27 26/39/29
f  26/39/29 19/38/28 28/41/31
f  19/38/28 29/42/32 28/41/31
f  20/43/33 29/42/32 19/38/28
f  20/43/33 30/44/34 29/42/32
f  21/45/35 30/44/34 20/43/33
f  25/46/36 18/37/27 27/40/30
f  22/47/37 31/48/38 21/45/35
f  22/47/37 32/49/39 31/48/38
f  21/45/35 31/48/38 30/44/34
f  23/50/40 32/49/39 22/47/37
f  23/50/40 24/51/41 32/49/39
f  32/49/39 24/51/41 33/52/42
f  24/51/41 25/46/36 33/52/42
f  33/52/42 25/46/36 27/40/30
f  30/44/43 31/48/44 29/42/45
f  31/48/44 32/49/46 29/42/45
f  29/42/45 32/49/46 28/41/46
f  32/49/46 33/52/47 28/41/46
f  28/41/46 33/52/47 26/39/48
f  33/52/47 27/40/49 26/39/48
f  34/53/50 35/54/51 36/55/52
f  34/53/50 36/55/52 37/56/53
f  36/55/52 35/54/51 38/57/54
f  36/55/52 38/57/54 39/58/55
f  40/59/56 36/55/52 41/60/57
f  41/60/57 36/55/52 39/58/55
f  39/58/55 38/57/54 42/61/58
f  43/62/59 40/59/56 41/60/57
f  44/63/60 45/64/61 40/59/56
f  44/63/60 40/59/56 43/62/59
f  46/65/62 44/63/60 43/62/59
f  47/66/63 44/63/60 46/65/62
f  48/67/64 47/66/63 46/65/62
f  49/68/65 50/69/66 47/66/63
f  49/68/65 47/66/63 48/67/64
f  42/70/58 49/68/65 48/67/64
f  38/71/54 49/68/65 42/70/58
f  51/72/67 50/69/66 49/68/65
f  52/73/68 45/64/61 44/63/60
f  35/74/69 34/75/25 53/76/25
f  51/77/70 35/74/69 53/76/25
f  35/74/69 51/77/70 54/78/71
f  34/75/25 45/79/25 53/76/25
f  45/79/25 34/75/25 55/80/25
f  55/80/25 34/75/25 37/81/25
f  50/82/25 51/77/70 53/76/25
f  52/83/25 50/82/25 53/76/25
f  45/79/25 52/83/25 53/76/25
f  54/78/71 51/77/70 56/84/72
f  50/82/25 52/83/25 57/85/25
f  57/85/25 52/83/25 58/86/25
f  51/72/67 49/68/65 56/87/73
f  56/87/73 49/68/65 59/88/74
f  49/68/75 38/71/75 59/88/75
f  59/88/75 38/71/75 60/89/75
f  38/71/54 35/90/51 60/89/76
f  60/89/76 35/90/51 54/91/77
f  52/73/68 44/63/60 58/92/78
f  58/92/78 44/63/60 61/93/78
f  44/63/79 47/66/79 61/93/79
f  61/93/79 47/66/79 62/94/79
f  47/66/63 50/69/66 62/94/80
f  62/94/80 50/69/66 57/95/80
f  37/56/53 36/55/52 63/96/53
f  36/55/19 40/59/19 63/96/19
f  63/96/19 40/59/19 64/97/19
f  40/59/56 45/64/61 64/97/81
f  64/97/81 45/64/61 55/98/81
f  65/99/82 66/100/83 67/101/84
f  67/101/84 66/100/83 68/102/85
f  66/100/83 69/103/80 68/102/85
f  67/101/84 68/102/85 70/104/86
f  70/104/86 71/105/87 72/106/88
f  70/104/86 68/102/85 71/105/87
f  68/102/85 73/107/89 71/105/87
f  72/106/88 71/105/87 74/108/90
f  71/105/87 75/109/91 74/108/90
f  68/102/85 69/103/80 73/107/89
f  69/103/80 76/110/92 73/107/89
f  73/107/89 76/110/92 77/111/93
f  73/107/89 77/111/93 75/109/91
f  71/105/87 73/107/89 75/109/91
f  75/109/91 78/112/94 79/113/95
f  74/108/90 75/109/91 79/113/95
f  77/111/93 80/114/96 78/112/94
f  75/109/91 77/111/93 78/112/94
f  78/112/94 81/115/97 82/116/98
f  79/113/95 78/112/94 82/116/98
f  79/113/95 82/116/98 83/117/99
f  74/108/90 79/113/95 84/118/100
f  84/118/100 79/113/95 83/117/99
f  82/116/98 81/115/97 85/119/101
f  82/116/98 85/119/101 86/120/102
f  83/117/99 82/116/98 86/120/102
f  83/117/99 86/120/102 87/121/103
f  88/122/104 83/117/99 87/121/103
f  87/121/103 89/123/105 69/124/80
f  88/122/104 87/121/103 66/125/83
f  66/125/83 87/121/103 69/124/80
f  86/120/102 90/126/106 89/123/105
f  87/121/103 86/120/102 89/123/105
f  89/123/105 91/127/107 76/128/92
f  69/124/80 89/123/105 76/128/92
f  90/126/106 92/129/108 91/127/107
f  89/123/105 90/126/106 91/127/107
f  91/127/107 93/130/109 94/131/110
f  76/128/92 91/127/107 94/131/110
f  85/119/101 95/132/111 90/126/106
f  90/126/106 95/132/111 92/129/108
f  86/120/102 85/119/101 90/126/106
f  81/115/97 96/133/112 85/119/101
f  85/119/101 96/133/112 95/132/111
f  96/133/112 97/134/113 95/132/111
f  95/132/111 97/134/113 98/135/114
f  95/132/111 98/135/114 92/129/108
f  92/129/108 98/135/114 99/136/115
f  92/129/108 99/136/115 93/130/109
f  91/127/107 92/129/108 93/130/109
f  97/134/113 100/137/116 98/135/114
f  98/135/114 100/137/116 101/138/117
f  98/135/114 101/138/117 99/136/115
f  102/139/118 103/140/119 97/134/113
f  96/133/112 102/139/118 97/134/113
f  104/141/120 105/142/121 102/139/118
f  102/139/118 105/142/121 103/140/119
f  106/143/122 104/141/120 102/139/118
f  107/144/123 104/141/120 106/143/122
f  80/114/96 107/144/123 106/143/122
f  106/143/122 102/139/118 96/133/112
f  81/115/97 106/143/122 96/133/112
f  94/145/110 107/144/123 80/114/96
f  77/111/93 94/145/110 80/114/96
f  80/114/96 106/143/122 81/115/97
f  78/112/94 80/114/96 81/115/97
f  76/110/92 94/145/110 77/111/93
f  105/142/121 65/146/82 103/140/119
f  103/140/119 65/146/82 67/147/84
f  103/140/119 67/147/84 100/137/116
f  97/134/113 103/140/119 100/137/116
f  100/137/116 67/147/84 70/148/86
f  100/137/116 70/148/86 101/138/117
f  101/138/117 70/148/86 72/149/88
f  101/138/117 72/149/88 108/150/124
f  99/136/115 101/138/117 108/150/124
f  108/150/124 72/149/88 109/151/125
f  108/150/124 109/151/125 110/152/126
f  111/153/127 108/150/124 110/152/126
f  110/152/126 112/154/128 105/155/121
f  111/153/127 110/152/126 104/156/120
f  104/156/120 110/152/126 105/155/121
f  110/152/126 109/151/125 112/154/128
f  105/155/121 112/154/128 65/157/82
f  107/158/123 111/153/127 104/156/120
f  99/136/115 108/150/124 111/153/127
f  93/130/109 99/136/115 111/153/127
f  93/130/109 111/153/127 107/158/123
f  94/131/110 93/130/109 107/158/123
f  65/159/82 88/122/104 66/125/83
f  112/160/128 88/122/104 65/159/82
f  112/160/128 84/118/100 88/122/104
f  84/118/100 83/117/99 88/122/104
f  109/161/125 74/108/90 84/118/100
f  72/106/88 74/108/90 109/161/125
f  109/161/125 84/118/100 112/160/128

