# Blender v2.77 (sub 0) OBJ File: ''
# www.blender.org
mtllib obj_fittings_pipevalve_on.mtl
o _s
v 0.352964 -0.500000 -0.352965
v 0.000000 -0.500000 -0.499167
v 0.284701 -0.260284 -0.284701
v 0.499167 -0.500000 0.000000
v 0.402628 -0.260284 0.000000
v 0.000000 -0.260284 -0.402628
v -0.352964 -0.500000 -0.352965
v -0.284701 -0.260284 -0.284701
v -0.499167 -0.500000 0.000000
v -0.402628 -0.260284 0.000000
v -0.352964 -0.500000 0.352965
v -0.284701 -0.260284 0.284701
v 0.000000 -0.500000 0.499167
v 0.000000 -0.260284 0.402628
v 0.284701 -0.260284 0.284701
v 0.352964 -0.500000 0.352965
v 0.000000 -0.500000 0.000000
v 0.223675 -0.260284 -0.223675
v 0.000000 -0.260284 -0.316324
v -0.223675 -0.260284 -0.223675
v -0.316324 -0.260284 0.000000
v -0.223675 -0.260284 0.223675
v 0.000000 -0.260284 0.316324
v 0.223675 -0.260284 0.223675
v 0.316324 -0.260284 0.000000
v 0.223675 -0.152703 -0.223782
v 0.316324 -0.156423 0.000230
v 0.000000 -0.151166 -0.316380
v -0.223675 -0.152703 -0.223782
v -0.316324 -0.156423 0.000230
v -0.223675 -0.160135 0.223782
v 0.000000 -0.161673 0.316380
v 0.223675 -0.160135 0.223782
v -0.051248 0.244965 0.087451
v -0.101359 0.244965 -0.000656
v -0.051248 0.144383 0.087451
v -0.052542 0.244965 0.287447
v -0.101359 0.144383 -0.000656
v -0.051248 -0.204533 0.087451
v 0.050112 0.144383 0.088108
v 0.050112 -0.204533 0.088108
v -0.101359 -0.204533 -0.000656
v 0.101359 -0.204533 0.000655
v 0.101359 0.144383 0.000655
v 0.050112 0.244965 0.088108
v 0.051248 -0.204533 -0.087452
v 0.051248 0.144383 -0.087452
v -0.050112 -0.204533 -0.088109
v -0.050112 0.144383 -0.088108
v 0.051248 0.244965 -0.087452
v -0.050112 0.244965 -0.088108
v 0.101359 0.244965 0.000655
v 0.000000 0.244965 -0.000000
v -0.273913 0.244965 -0.101774
v 0.048817 0.244965 0.288104
v -0.222667 0.244965 -0.189227
v 0.225097 0.244965 -0.186329
v 0.275208 0.244965 -0.098222
v -0.222667 0.144382 -0.189227
v -0.273913 0.144382 -0.101774
v 0.275208 0.144383 -0.098222
v 0.225097 0.144383 -0.186329
v -0.052542 0.144383 0.287447
v 0.048817 0.144383 0.288104
v -0.192801 0.196626 0.109657
v -0.058792 0.196626 0.213870
v -0.235812 0.110923 0.134120
v -0.071907 0.110923 0.261581
v 0.109657 0.196626 0.192802
v -0.321833 0.110923 0.183044
v -0.098138 0.110923 0.357003
v -0.364843 0.196626 0.207507
v 0.134120 0.110923 0.235812
v -0.111254 0.196626 0.404712
v 0.183044 0.110923 0.321833
v 0.213870 0.196626 0.058792
v 0.261581 0.110923 0.071908
v 0.357003 0.110923 0.098139
v 0.207507 0.196626 0.364844
v 0.235813 0.110923 -0.134119
v 0.321834 0.110923 -0.183044
v 0.404713 0.196626 0.111255
v 0.183044 0.282328 0.321833
v -0.098138 0.282328 0.357003
v 0.364844 0.196626 -0.207506
v 0.357003 0.282328 0.098139
v 0.134120 0.282328 0.235812
v -0.071907 0.282328 0.261581
v 0.261581 0.282328 0.071908
v 0.321833 0.282328 -0.183043
v 0.235813 0.282328 -0.134119
v 0.098140 0.282328 -0.357001
v 0.071908 0.282328 -0.261581
v 0.192802 0.196626 -0.109656
v 0.111255 0.196626 -0.404712
v 0.098140 0.110923 -0.357001
v -0.183043 0.110923 -0.321833
v -0.207506 0.196626 -0.364843
v -0.183043 0.282328 -0.321833
v -0.357001 0.110923 -0.098138
v -0.404712 0.196626 -0.111254
v -0.134119 0.110923 -0.235812
v -0.261580 0.110923 -0.071908
v -0.109656 0.196626 -0.192802
v -0.213869 0.196626 -0.058792
v 0.071908 0.110923 -0.261581
v 0.058793 0.196626 -0.213870
v -0.357001 0.282328 -0.098138
v -0.321832 0.282328 0.183044
v -0.261580 0.282328 -0.071908
v -0.134119 0.282328 -0.235812
v -0.235812 0.282328 0.134120
vt 0.5514 0.6531
vt 0.4988 0.6531
vt 0.5514 0.6117
vt 0.6048 0.6531
vt 0.6048 0.6117
vt 0.4988 0.6117
vt 0.4463 0.6531
vt 0.4463 0.6117
vt 0.3931 0.6531
vt 0.3931 0.6117
vt 0.3401 0.6531
vt 0.3401 0.6117
vt 0.2872 0.6531
vt 0.2872 0.6117
vt 0.6581 0.6117
vt 0.7113 0.6117
vt 0.6581 0.6531
vt 0.7113 0.6531
vt 0.2115 0.8999
vt 0.1132 0.8999
vt 0.1827 0.9693
vt 0.1827 0.8304
vt 0.1132 0.9981
vt 0.0438 0.9693
vt 0.0150 0.8999
vt 0.1132 0.8016
vt 0.0438 0.8304
vt 0.5514 0.5984
vt 0.4988 0.5984
vt 0.4463 0.5984
vt 0.3931 0.5984
vt 0.3401 0.5984
vt 0.2872 0.5984
vt 0.7113 0.5984
vt 0.6581 0.5984
vt 0.6048 0.5984
vt 0.1737 0.7645
vt 0.1159 0.7893
vt 0.1578 0.7484
vt 0.1751 0.7077
vt 0.1167 0.7670
vt 0.0753 0.7490
vt 0.0588 0.7657
vt 0.0576 0.7087
vt 0.0361 0.7084
vt 0.1962 0.7068
vt 0.0599 0.6525
vt 0.0737 0.6657
vt 0.1158 0.6485
vt 0.1154 0.6290
vt 0.1716 0.6512
vt 0.1578 0.6651
vt 0.8739 0.5655
vt 0.8898 0.5655
vt 0.8664 0.5903
vt 0.8677 0.5571
vt 0.8898 0.5903
vt 0.8664 0.6736
vt 0.8411 0.5903
vt 0.8411 0.6736
vt 0.8898 0.6736
vt 0.8150 0.6736
vt 0.8150 0.5903
vt 0.8327 0.5847
vt 0.7952 0.6736
vt 0.7952 0.5903
vt 0.7673 0.6736
vt 0.7673 0.5903
vt 0.7833 0.5856
vt 0.7466 0.6736
vt 0.7466 0.5903
vt 0.7808 0.5856
vt 0.8262 0.5847
vt 0.1589 0.0945
vt 0.1374 0.1229
vt 0.1226 0.0893
vt 0.1442 0.0609
vt 0.2250 0.0681
vt 0.1010 0.1178
vt 0.0933 0.1886
vt 0.1297 0.1937
vt 0.1078 0.0556
vt 0.0861 0.0842
vt 0.2102 0.0344
vt 0.0559 0.0164
vt 0.0343 0.0450
vt 0.7808 0.5630
vt 0.7673 0.5630
vt 0.7466 0.5630
vt 0.7290 0.5903
vt 0.7290 0.5630
vt 0.8262 0.5623
vt 0.8150 0.5623
vt 0.7952 0.5623
vt 0.7833 0.5623
vt 0.8584 0.5627
vt 0.8411 0.5627
vt 0.8327 0.5627
vt 0.2797 0.1496
vt 0.2797 0.2081
vt 0.2533 0.1496
vt 0.2533 0.2081
vt 0.2797 0.2620
vt 0.2315 0.1496
vt 0.2315 0.2081
vt 0.2097 0.1496
vt 0.2533 0.2620
vt 0.2097 0.2081
vt 0.2315 0.2620
vt 0.2797 0.3194
vt 0.2533 0.3194
vt 0.2315 0.3194
vt 0.2097 0.2620
vt 0.2533 0.3786
vt 0.2315 0.3786
vt 0.2097 0.3194
vt 0.1880 0.2620
vt 0.1880 0.2081
vt 0.2097 0.3786
vt 0.1880 0.3194
vt 0.1661 0.2620
vt 0.1661 0.2081
vt 0.1661 0.3194
vt 0.1398 0.2620
vt 0.1398 0.2081
vt 0.1880 0.3786
vt 0.1661 0.3786
vt 0.1398 0.3194
vt 0.1880 0.4379
vt 0.1661 0.4379
vt 0.1398 0.3786
vt 0.2097 0.4379
vt 0.2315 0.4379
vt 0.2315 0.4953
vt 0.2097 0.4953
vt 0.1880 0.4953
vt 0.2315 0.5491
vt 0.2097 0.5491
vt 0.2533 0.4953
vt 0.2533 0.5491
vt 0.2797 0.4953
vt 0.2797 0.5491
vt 0.2533 0.4379
vt 0.2797 0.4379
vt 0.2797 0.3786
vt 0.2797 0.6077
vt 0.2533 0.6077
vt 0.2315 0.6077
vt 0.2097 0.6077
vt 0.1880 0.5491
vt 0.1880 0.6077
vt 0.1661 0.5491
vt 0.1661 0.4953
vt 0.1661 0.6077
vt 0.1398 0.5491
vt 0.1398 0.4953
vt 0.1398 0.6077
vt 0.1398 0.4379
vt 0.1398 0.1496
vt 0.1661 0.1496
vt 0.1880 0.1496
vn 0.6559 0.3736 -0.6559
vn 0.0000 0.3736 -0.9276
vn 0.9276 0.3736 -0.0000
vn -0.6559 0.3736 -0.6559
vn -0.9276 0.3736 0.0000
vn -0.6559 0.3736 0.6559
vn -0.0000 0.3736 0.9276
vn 0.6559 0.3736 0.6559
vn 0.0000 -1.0000 0.0000
vn 0.0000 1.0000 -0.0000
vn 0.7038 -0.0003 -0.7104
vn 0.0000 -0.0006 -1.0000
vn 0.7015 -0.0003 -0.7127
vn 0.9999 -0.0002 -0.0109
vn 0.0000 -0.0005 -1.0000
vn -0.7015 -0.0003 -0.7127
vn -0.7038 -0.0003 -0.7104
vn -0.9999 -0.0002 -0.0109
vn -1.0000 -0.0002 -0.0080
vn 1.0000 -0.0002 -0.0080
vn -0.7110 -0.0008 0.7032
vn -0.7127 -0.0008 0.7015
vn 0.0000 -0.0007 1.0000
vn 0.0000 -0.0006 1.0000
vn 0.7110 -0.0008 0.7032
vn 0.7127 -0.0008 0.7015
vn -0.0000 0.9999 0.0166
vn -0.9859 0.0000 0.1671
vn -0.6476 0.0000 0.7620
vn -0.7201 0.0000 0.6938
vn -1.0000 0.0000 -0.0065
vn -0.9645 0.0000 0.2643
vn -0.5056 -0.0000 0.8628
vn 0.7111 -0.0000 0.7031
vn 0.4944 -0.0000 0.8692
vn 1.0000 -0.0000 0.0065
vn 0.9609 -0.0000 0.2767
vn 0.9837 -0.0000 0.1798
vn 0.5056 -0.0000 -0.8628
vn 0.2534 0.0000 -0.9674
vn -0.4944 0.0000 -0.8692
vn -0.2408 0.0000 -0.9706
vn -0.3361 0.0000 -0.9418
vn 0.3483 0.0000 -0.9374
vn 0.6377 -0.0000 0.7703
vn 0.9610 -0.0000 0.2767
vn 0.8692 0.0000 -0.4944
vn 0.2651 0.0000 -0.9642
vn 0.3002 -0.9385 -0.1707
vn 0.0915 -0.9385 -0.3330
vn -0.5554 -0.7692 0.3159
vn -0.1694 -0.7692 0.6161
vn -0.8692 0.0000 0.4944
vn -0.1707 -0.9385 -0.3002
vn -0.2651 0.0000 0.9642
vn 0.3159 -0.7692 0.5554
vn -0.9642 0.0000 -0.2651
vn -0.3330 -0.9385 -0.0915
vn 0.6161 -0.7692 0.1694
vn -0.3002 -0.9385 0.1707
vn 0.5554 -0.7692 -0.3159
vn 0.9642 0.0000 0.2651
vn 0.3159 0.7692 0.5554
vn -0.1694 0.7692 0.6161
vn 0.6161 0.7692 0.1694
vn -0.1707 0.9385 -0.3002
vn 0.0915 0.9385 -0.3330
vn -0.3330 0.9385 -0.0915
vn 0.5554 0.7692 -0.3159
vn -0.3002 0.9385 0.1707
vn 0.1694 0.7692 -0.6161
vn -0.0915 0.9385 0.3330
vn 0.1694 -0.7692 -0.6161
vn -0.3159 -0.7692 -0.5554
vn -0.3159 0.7692 -0.5554
vn -0.6161 -0.7692 -0.1694
vn 0.1707 -0.9385 0.3002
vn 0.3330 -0.9385 0.0915
vn -0.0915 -0.9385 0.3330
vn -0.6161 0.7692 -0.1694
vn -0.5554 0.7692 0.3159
vn 0.3330 0.9385 0.0915
vn 0.1707 0.9385 0.3002
vn 0.3002 0.9385 -0.1707
usemtl DefaultMaterial
s 1
f 1/1/1 2/2/2 3/3/1
f 4/4/3 1/1/1 5/5/3
f 5/5/3 1/1/1 3/3/1
f 3/3/1 2/2/2 6/6/2
f 2/2/2 7/7/4 6/6/2
f 6/6/2 7/7/4 8/8/4
f 7/7/4 9/9/5 8/8/4
f 8/8/4 9/9/5 10/10/5
f 9/9/5 11/11/6 10/10/5
f 10/10/5 11/11/6 12/12/6
f 11/11/6 13/13/7 12/12/6
f 12/12/6 13/13/7 14/14/7
f 15/15/8 4/4/3 5/5/3
f 14/16/7 16/17/8 15/15/8
f 16/17/8 4/4/3 15/15/8
f 13/18/7 16/17/8 14/16/7
f 4/19/9 17/20/9 1/21/9
f 16/22/9 17/20/9 4/19/9
f 1/21/9 17/20/9 2/23/9
f 2/23/9 17/20/9 7/24/9
f 7/24/9 17/20/9 9/25/9
f 13/26/9 17/20/9 16/22/9
f 9/25/9 17/20/9 11/27/9
f 11/27/9 17/20/9 13/26/9
f 3/3/10 6/6/10 18/28/10
f 18/28/10 6/6/10 19/29/10
f 6/6/10 8/8/10 19/29/10
f 19/29/10 8/8/10 20/30/10
f 8/8/10 10/10/10 20/30/10
f 20/30/10 10/10/10 21/31/10
f 10/10/10 12/12/10 21/31/10
f 21/31/10 12/12/10 22/32/10
f 12/12/10 14/14/10 22/32/10
f 22/32/10 14/14/10 23/33/10
f 14/16/10 15/15/10 23/34/10
f 23/34/10 15/15/10 24/35/10
f 15/15/10 5/5/10 24/35/10
f 24/35/10 5/5/10 25/36/10
f 5/5/10 3/3/10 25/36/10
f 25/36/10 3/3/10 18/28/10
f 18/37/11 19/38/12 26/39/13
f 27/40/14 18/37/11 26/39/13
f 26/39/13 19/38/12 28/41/15
f 19/38/12 29/42/16 28/41/15
f 20/43/17 29/42/16 19/38/12
f 20/43/17 30/44/18 29/42/16
f 21/45/19 30/44/18 20/43/17
f 25/46/20 18/37/11 27/40/14
f 22/47/21 31/48/22 21/45/19
f 22/47/21 32/49/23 31/48/22
f 21/45/19 31/48/22 30/44/18
f 23/50/24 32/49/23 22/47/21
f 23/50/24 24/51/25 32/49/23
f 32/49/23 24/51/25 33/52/26
f 24/51/25 25/46/20 33/52/26
f 33/52/26 25/46/20 27/40/14
f 30/44/27 31/48/27 29/42/27
f 31/48/27 32/49/27 29/42/27
f 29/42/27 32/49/27 28/41/27
f 32/49/27 33/52/27 28/41/27
f 28/41/27 33/52/27 26/39/27
f 33/52/27 27/40/27 26/39/27
f 34/53/28 35/54/29 36/55/30
f 34/53/28 36/55/30 37/56/31
f 36/55/30 35/54/29 38/57/32
f 36/55/30 38/57/32 39/58/33
f 40/59/34 36/55/30 41/60/35
f 41/60/35 36/55/30 39/58/33
f 39/58/33 38/57/32 42/61/31
f 43/62/36 40/59/34 41/60/35
f 44/63/37 45/64/38 40/59/34
f 44/63/37 40/59/34 43/62/36
f 46/65/39 44/63/37 43/62/36
f 47/66/40 44/63/37 46/65/39
f 48/67/41 47/66/40 46/65/39
f 49/68/42 50/69/43 47/66/40
f 49/68/42 47/66/40 48/67/41
f 42/70/31 49/68/42 48/67/41
f 38/71/32 49/68/42 42/70/31
f 51/72/44 50/69/43 49/68/42
f 52/73/45 45/64/38 44/63/37
f 35/74/10 34/75/10 53/76/10
f 51/77/10 35/74/10 53/76/10
f 35/74/10 51/77/10 54/78/10
f 34/75/10 45/79/10 53/76/10
f 45/79/10 34/75/10 55/80/10
f 55/80/10 34/75/10 37/81/10
f 50/82/10 51/77/10 53/76/10
f 52/83/10 50/82/10 53/76/10
f 45/79/10 52/83/10 53/76/10
f 54/78/10 51/77/10 56/84/10
f 50/82/10 52/83/10 57/85/10
f 57/85/10 52/83/10 58/86/10
f 51/72/44 49/68/42 56/87/39
f 56/87/39 49/68/42 59/88/39
f 49/68/9 38/71/9 59/88/9
f 59/88/9 38/71/9 60/89/9
f 38/71/32 35/90/29 60/89/33
f 60/89/33 35/90/29 54/91/33
f 52/73/45 44/63/37 58/92/35
f 58/92/35 44/63/46 61/93/35
f 44/63/9 47/66/9 61/93/9
f 61/93/9 47/66/9 62/94/9
f 47/66/40 50/69/43 62/94/41
f 62/94/41 50/69/43 57/95/41
f 37/56/31 36/55/30 63/96/31
f 36/55/9 40/59/9 63/96/9
f 63/96/9 40/59/9 64/97/9
f 40/59/34 45/64/38 64/97/36
f 64/97/36 45/64/38 55/98/36
f 65/99/47 66/100/48 67/101/49
f 67/101/49 66/100/48 68/102/50
f 66/100/48 69/103/41 68/102/50
f 67/101/49 68/102/50 70/104/51
f 70/104/51 71/105/52 72/106/53
f 70/104/51 68/102/50 71/105/52
f 68/102/50 73/107/54 71/105/52
f 72/106/53 71/105/52 74/108/55
f 71/105/52 75/109/56 74/108/55
f 68/102/50 69/103/41 73/107/54
f 69/103/41 76/110/57 73/107/54
f 73/107/54 76/110/57 77/111/58
f 73/107/54 77/111/58 75/109/56
f 71/105/52 73/107/54 75/109/56
f 75/109/56 78/112/59 79/113/35
f 74/108/55 75/109/56 79/113/35
f 77/111/58 80/114/60 78/112/59
f 75/109/56 77/111/58 78/112/59
f 78/112/59 81/115/61 82/116/62
f 79/113/35 78/112/59 82/116/62
f 79/113/35 82/116/62 83/117/63
f 74/108/55 79/113/35 84/118/64
f 84/118/64 79/113/35 83/117/63
f 82/116/62 81/115/61 85/119/47
f 82/116/62 85/119/47 86/120/65
f 83/117/63 82/116/62 86/120/65
f 83/117/63 86/120/65 87/121/66
f 88/122/67 83/117/63 87/121/66
f 87/121/66 89/123/68 69/124/41
f 88/122/67 87/121/66 66/125/48
f 66/125/48 87/121/66 69/124/41
f 86/120/65 90/126/69 89/123/68
f 87/121/66 86/120/65 89/123/68
f 89/123/68 91/127/70 76/128/57
f 69/124/41 89/123/68 76/128/57
f 90/126/69 92/129/71 91/127/70
f 89/123/68 90/126/69 91/127/70
f 91/127/70 93/130/72 94/131/53
f 76/128/57 91/127/70 94/131/53
f 85/119/47 95/132/48 90/126/69
f 90/126/69 95/132/48 92/129/71
f 86/120/65 85/119/47 90/126/69
f 81/115/61 96/133/73 85/119/47
f 85/119/47 96/133/73 95/132/48
f 96/133/73 97/134/74 95/132/48
f 95/132/48 97/134/74 98/135/41
f 95/132/48 98/135/41 92/129/71
f 92/129/71 98/135/41 99/136/75
f 92/129/71 99/136/75 93/130/72
f 91/127/70 92/129/71 93/130/72
f 97/134/74 100/137/76 98/135/41
f 98/135/41 100/137/76 101/138/57
f 98/135/41 101/138/57 99/136/75
f 102/139/77 103/140/78 97/134/74
f 96/133/73 102/139/77 97/134/74
f 104/141/35 105/142/62 102/139/77
f 102/139/77 105/142/62 103/140/78
f 106/143/79 104/141/35 102/139/77
f 107/144/55 104/141/35 106/143/79
f 80/114/60 107/144/55 106/143/79
f 106/143/79 102/139/77 96/133/73
f 81/115/61 106/143/79 96/133/73
f 94/145/53 107/144/55 80/114/60
f 77/111/58 94/145/53 80/114/60
f 80/114/60 106/143/79 81/115/61
f 78/112/59 80/114/60 81/115/61
f 76/110/57 94/145/53 77/111/58
f 105/142/62 65/146/47 103/140/78
f 103/140/78 65/146/47 67/147/49
f 103/140/78 67/147/49 100/137/76
f 97/134/74 103/140/78 100/137/76
f 100/137/76 67/147/49 70/148/51
f 100/137/76 70/148/51 101/138/57
f 101/138/57 70/148/51 72/149/53
f 101/138/57 72/149/53 108/150/80
f 99/136/75 101/138/57 108/150/80
f 108/150/80 72/149/53 109/151/81
f 108/150/80 109/151/81 110/152/82
f 111/153/83 108/150/80 110/152/82
f 110/152/82 112/154/84 105/155/62
f 111/153/83 110/152/82 104/156/35
f 104/156/35 110/152/82 105/155/62
f 110/152/82 109/151/81 112/154/84
f 105/155/62 112/154/84 65/157/47
f 107/158/55 111/153/83 104/156/35
f 99/136/75 108/150/80 111/153/83
f 93/130/72 99/136/75 111/153/83
f 93/130/72 111/153/83 107/158/55
f 94/131/53 93/130/72 107/158/55
f 65/159/47 88/122/67 66/125/48
f 112/160/84 88/122/67 65/159/47
f 112/160/84 84/118/64 88/122/67
f 84/118/64 83/117/63 88/122/67
f 109/161/81 74/108/55 84/118/64
f 72/106/53 74/108/55 109/161/81
f 109/161/81 84/118/64 112/160/84
