# Blender v2.77 (sub 0) OBJ File: 'pull start on.blend'
# www.blender.org
mtllib pull_start_on.mtl
o Mesh1_Group2_Group1_Model
v 0.274699 0.440000 -0.415000
v 0.300680 0.440000 -0.430000
v 0.326661 0.440000 -0.415000
v 0.326661 0.440000 -0.385000
v 0.300680 0.440000 -0.370000
v 0.274699 0.440000 -0.385000
v 0.274699 1.540000 -0.415000
v 0.300680 1.540000 -0.430000
v 0.274699 1.540000 -0.385000
v 0.300680 1.540000 -0.370000
v 0.326661 1.540000 -0.385000
v 0.326661 1.540000 -0.415000
v 0.250340 -0.000000 -0.487191
v 0.351020 -0.000000 -0.487191
v 0.401360 -0.000000 -0.400000
v 0.351020 -0.000000 -0.312809
v 0.250340 -0.000000 -0.312809
v 0.200000 -0.000000 -0.400000
v 0.250340 0.520000 -0.487191
v 0.351020 0.520000 -0.487191
v 0.200000 0.520000 -0.400000
v 0.250340 0.520000 -0.312809
v 0.351020 0.520000 -0.312809
v 0.401360 0.520000 -0.400000
v 0.243566 0.243566 -0.250000
v 0.243566 -0.243566 -0.250000
v 0.344455 -0.000000 -0.250000
v 0.155558 -0.000000 -0.250000
v 0.109996 0.109996 -0.250000
v -0.000000 0.344455 -0.250000
v -0.000000 0.420067 -0.400000
v 0.297032 0.297032 -0.400000
v -0.297032 0.297032 -0.400000
v -0.243566 0.243566 -0.250000
v -0.420067 -0.000000 -0.400000
v -0.344455 -0.000000 -0.250000
v -0.297032 -0.297032 -0.400000
v -0.243566 -0.243566 -0.250000
v 0.000000 -0.420067 -0.400000
v 0.000000 -0.344455 -0.250000
v 0.297032 -0.297032 -0.400000
v 0.420067 -0.000000 -0.400000
v 0.109996 -0.109996 -0.250000
v 0.138447 -0.000000 -0.220000
v 0.097897 -0.097897 -0.220000
v -0.000000 0.138447 -0.220000
v -0.097897 0.097897 -0.220000
v -0.138447 -0.000000 -0.220000
v -0.097897 -0.097897 -0.220000
v 0.000000 -0.138447 -0.220000
v 0.097897 0.097897 -0.220000
v -0.109996 0.109996 -0.250000
v -0.000000 0.155558 -0.250000
v -0.155558 -0.000000 -0.250000
v -0.109996 -0.109996 -0.250000
v 0.000000 -0.155558 -0.250000
v 0.350680 1.680000 -0.400000
v 0.461526 1.650307 -0.400000
v 0.500000 1.680000 -0.400000
v 0.500000 1.780000 -0.400000
v 0.350680 1.820000 -0.400000
v 0.250680 1.820000 -0.400000
v 0.100680 1.780000 -0.400000
v 0.100680 1.680000 -0.400000
v 0.139329 1.650307 -0.400000
v 0.250680 1.680000 -0.400000
v 0.250680 1.530000 -0.400000
v 0.350680 1.530000 -0.400000
v 0.429289 1.655245 -0.450000
v 0.340612 1.679000 -0.450000
v 0.460068 1.679000 -0.450000
v 0.460068 1.759000 -0.450000
v 0.460068 1.759000 -0.350000
v 0.460068 1.679000 -0.350000
v 0.340612 1.791000 -0.350000
v 0.260612 1.791000 -0.350000
v 0.140612 1.759000 -0.350000
v 0.140612 1.679000 -0.350000
v 0.171531 1.655245 -0.350000
v 0.260612 1.679000 -0.350000
v 0.260612 1.530000 -0.350000
v 0.340612 1.530000 -0.350000
v 0.340612 1.679000 -0.350000
v 0.429289 1.655245 -0.350000
v 0.140612 1.759000 -0.450000
v 0.140612 1.679000 -0.450000
v 0.340612 1.530000 -0.450000
v 0.260612 1.530000 -0.450000
v 0.260612 1.679000 -0.450000
v 0.171531 1.655245 -0.450000
v 0.260612 1.791000 -0.450000
v 0.340612 1.791000 -0.450000
v -0.353553 0.353553 -0.500000
v -0.500000 -0.000000 -0.500000
v -0.500000 -0.000000 -0.400000
v -0.353553 0.353553 -0.400000
v -0.000000 0.500000 -0.500000
v 0.400000 0.500000 -0.500000
v 0.500000 0.400000 -0.500000
v 0.500000 -0.000000 -0.500000
v 0.353553 -0.353553 -0.500000
v 0.000000 -0.500000 -0.500000
v -0.353553 -0.353553 -0.500000
v -0.000000 0.500000 -0.400000
v 0.500000 -0.000000 -0.400000
v 0.500000 0.400000 -0.400000
v 0.400000 0.500000 -0.400000
v -0.353553 -0.353553 -0.400000
v 0.000000 -0.500000 -0.400000
v 0.353553 -0.353553 -0.400000
vt 0.5335 0.5061
vt 0.5313 0.5022
vt 0.5335 0.4983
vt 0.5380 0.4983
vt 0.5403 0.5022
vt 0.5380 0.5061
vt 0.4536 0.5002
vt 0.4536 0.5041
vt 0.6184 0.5041
vt 0.6184 0.5002
vt 0.6186 0.5041
vt 0.6186 0.4996
vt 0.4539 0.4996
vt 0.4539 0.5041
vt 0.4536 0.5041
vt 0.4536 0.5002
vt 0.6184 0.5002
vt 0.6184 0.5041
vt 0.4538 0.5042
vt 0.4538 0.5003
vt 0.6185 0.5003
vt 0.6185 0.5042
vt 0.6186 0.4996
vt 0.6186 0.5041
vt 0.4539 0.5041
vt 0.4539 0.4996
vt 0.4540 0.5002
vt 0.4540 0.5040
vt 0.6187 0.5040
vt 0.6187 0.5002
vt 0.5313 0.5019
vt 0.5335 0.5058
vt 0.5380 0.5058
vt 0.5403 0.5019
vt 0.5380 0.4980
vt 0.5335 0.4980
vt 0.6932 0.1527
vt 0.6945 0.1534
vt 0.6945 0.1549
vt 0.6932 0.1556
vt 0.6920 0.1549
vt 0.6920 0.1534
vt 0.7004 0.1360
vt 0.7018 0.1360
vt 0.7018 0.1435
vt 0.7004 0.1435
vt 0.6920 0.1515
vt 0.6909 0.1516
vt 0.6909 0.1442
vt 0.6920 0.1441
vt 0.6896 0.1515
vt 0.6896 0.1442
vt 0.7004 0.1285
vt 0.7018 0.1285
vt 0.7018 0.1360
vt 0.7004 0.1360
vt 0.6896 0.1516
vt 0.6884 0.1516
vt 0.6884 0.1441
vt 0.6896 0.1441
vt 0.6872 0.1516
vt 0.6872 0.1441
vt 0.6743 0.1555
vt 0.6730 0.1562
vt 0.6718 0.1555
vt 0.6718 0.1540
vt 0.6730 0.1533
vt 0.6743 0.1540
vt 0.6807 0.1468
vt 0.6744 0.1441
vt 0.6781 0.1441
vt 0.6771 0.1466
vt 0.6783 0.1478
vt 0.6807 0.1506
vt 0.6962 0.1485
vt 0.6983 0.1484
vt 0.6983 0.1518
vt 0.6962 0.1527
vt 0.6962 0.1441
vt 0.6983 0.1448
vt 0.6850 0.1525
vt 0.6847 0.1480
vt 0.6870 0.1481
vt 0.6872 0.1518
vt 0.6850 0.1441
vt 0.6872 0.1449
vt 0.6920 0.1484
vt 0.6941 0.1484
vt 0.6941 0.1519
vt 0.6920 0.1527
vt 0.6920 0.1441
vt 0.6941 0.1449
vt 0.6941 0.1483
vt 0.6962 0.1483
vt 0.6962 0.1519
vt 0.6941 0.1527
vt 0.6941 0.1441
vt 0.6962 0.1449
vt 0.6754 0.1466
vt 0.6718 0.1468
vt 0.5276 0.7436
vt 0.5276 0.7422
vt 0.5280 0.7420
vt 0.5280 0.7436
vt 0.5178 0.7563
vt 0.5167 0.7574
vt 0.5153 0.7574
vt 0.5142 0.7563
vt 0.5142 0.7547
vt 0.5153 0.7537
vt 0.5167 0.7537
vt 0.5178 0.7547
vt 0.5097 0.7576
vt 0.5093 0.7574
vt 0.5093 0.7560
vt 0.5097 0.7560
vt 0.5272 0.7451
vt 0.5271 0.7434
vt 0.5275 0.7435
vt 0.5276 0.7450
vt 0.6771 0.1508
vt 0.6781 0.1533
vt 0.6754 0.1508
vt 0.6783 0.1495
vt 0.5093 0.7546
vt 0.5097 0.7544
vt 0.5276 0.7450
vt 0.5280 0.7452
vt 0.6718 0.1506
vt 0.6743 0.1495
vt 0.6743 0.1478
vt 0.5271 0.7538
vt 0.5275 0.7540
vt 0.5275 0.7554
vt 0.5271 0.7554
vt 0.5275 0.7568
vt 0.5271 0.7570
vt 0.5272 0.7420
vt 0.5276 0.7422
vt 0.6744 0.1533
vt 0.0186 0.7961
vt 0.0182 0.7945
vt 0.0186 0.7939
vt 0.0200 0.7939
vt 0.0206 0.7961
vt 0.0206 0.7975
vt 0.0200 0.7997
vt 0.0186 0.7997
vt 0.0182 0.7991
vt 0.0186 0.7975
vt 0.0165 0.7975
vt 0.0165 0.7961
vt 0.0101 0.8042
vt 0.0108 0.8037
vt 0.0108 0.8053
vt 0.0101 0.8054
vt 0.0101 0.8037
vt 0.0108 0.8031
vt 0.0149 0.8031
vt 0.0149 0.8046
vt 0.0142 0.8046
vt 0.0142 0.8035
vt 0.0156 0.8035
vt 0.0156 0.8046
vt 0.0197 0.7997
vt 0.0201 0.8014
vt 0.0201 0.8026
vt 0.0197 0.8043
vt 0.0186 0.8043
vt 0.0183 0.8039
vt 0.0186 0.8026
vt 0.0165 0.8026
vt 0.0165 0.8014
vt 0.0186 0.8014
vt 0.0183 0.8001
vt 0.0186 0.7997
vt 0.0327 0.8061
vt 0.0334 0.8060
vt 0.0334 0.8077
vt 0.0327 0.8083
vt 0.0327 0.8047
vt 0.0334 0.8048
vt 0.0327 0.8025
vt 0.0334 0.8031
vt 0.0179 0.8049
vt 0.0193 0.8049
vt 0.0192 0.8058
vt 0.0181 0.8058
vt 0.0181 0.8043
vt 0.0192 0.8043
vt 0.0263 0.8061
vt 0.0259 0.8057
vt 0.0263 0.8044
vt 0.0242 0.8044
vt 0.0242 0.8032
vt 0.0263 0.8032
vt 0.0259 0.8019
vt 0.0263 0.8015
vt 0.0274 0.8015
vt 0.0278 0.8032
vt 0.0278 0.8044
vt 0.0274 0.8061
vt 0.0122 0.8031
vt 0.0122 0.8053
vt 0.0115 0.8053
vt 0.0115 0.8032
vt 0.0129 0.8032
vt 0.0129 0.8053
vt 0.0115 0.8042
vt 0.0115 0.8054
vt 0.0115 0.8037
vt 0.0172 0.8058
vt 0.0165 0.8056
vt 0.0165 0.8045
vt 0.0172 0.8043
vt 0.0135 0.8053
vt 0.0135 0.8031
vt 0.0142 0.8031
vt 0.0142 0.8053
vt 0.0129 0.8053
vt 0.0129 0.8032
vt 0.0317 0.8048
vt 0.0310 0.8047
vt 0.0310 0.8031
vt 0.0317 0.8035
vt 0.0303 0.8048
vt 0.0303 0.8035
vt 0.0303 0.8031
vt 0.0310 0.8025
vt 0.0317 0.8031
vt 0.0179 0.8056
vt 0.0179 0.8045
vt 0.0320 0.8031
vt 0.0320 0.8048
vt 0.0320 0.8060
vt 0.0320 0.8077
vt 0.5313 0.7615
vt 0.5309 0.7561
vt 0.5323 0.7560
vt 0.5326 0.7615
vt 0.5173 0.7420
vt 0.5211 0.7380
vt 0.5263 0.7358
vt 0.5281 0.7366
vt 0.5302 0.7420
vt 0.5302 0.7475
vt 0.5265 0.7514
vt 0.5211 0.7514
vt 0.5173 0.7475
vt 0.5330 0.7416
vt 0.5330 0.7468
vt 0.5316 0.7468
vt 0.5316 0.7416
vt 0.5082 0.7380
vt 0.5134 0.7358
vt 0.5152 0.7366
vt 0.5173 0.7420
vt 0.5173 0.7475
vt 0.5136 0.7514
vt 0.5082 0.7514
vt 0.5045 0.7475
vt 0.5045 0.7420
vt 0.5316 0.7410
vt 0.5316 0.7468
vt 0.5302 0.7468
vt 0.5302 0.7410
vt 0.5302 0.7482
vt 0.5316 0.7482
vt 0.5316 0.7358
vt 0.5330 0.7358
vt 0.5316 0.7358
vt 0.5302 0.7358
vt 0.5326 0.7565
vt 0.5326 0.7514
vt 0.5340 0.7514
vt 0.5340 0.7565
vt 0.5326 0.7616
vt 0.5340 0.7616
vt 0.5313 0.7515
vt 0.5326 0.7514
vn 0.0000 -1.0000 0.0000
vn 0.0000 -0.0000 -1.0000
vn -0.8660 -0.0000 -0.5000
vn -0.8660 -0.0000 0.5000
vn 0.0000 0.0000 1.0000
vn 0.8660 0.0000 0.5000
vn 0.8660 -0.0000 -0.5000
vn 0.0000 1.0000 -0.0000
vn 0.5000 -0.0000 -0.8660
vn -0.5000 -0.0000 -0.8660
vn -1.0000 -0.0000 0.0000
vn -0.5000 0.0000 0.8660
vn 0.5000 0.0000 0.8660
vn 1.0000 0.0000 -0.0000
vn -0.0000 0.8930 0.4501
vn 0.6314 0.6314 0.4501
vn -0.6314 0.6314 0.4501
vn -0.8930 0.0000 0.4501
vn -0.6314 -0.6314 0.4501
vn 0.0000 -0.8930 0.4501
vn 0.6314 -0.6314 0.4501
vn 0.8930 0.0000 0.4501
vn 0.8686 0.0000 0.4954
vn 0.6142 -0.6142 0.4954
vn -0.6142 0.6142 0.4954
vn -0.0000 0.8686 0.4954
vn -0.8686 0.0000 0.4954
vn 0.6142 0.6142 0.4954
vn 0.0000 -0.8686 0.4954
vn -0.6142 -0.6142 0.4954
vn 0.5539 -0.7390 0.3835
vn 0.1657 -0.9452 0.2814
vn 0.8367 -0.4490 0.3136
vn 0.7208 0.5925 0.3596
vn 0.1243 0.9514 0.2817
vn -0.1238 0.9515 0.2816
vn -0.7204 0.5930 0.3597
vn -0.8360 -0.4502 0.3137
vn -0.1654 -0.9453 0.2811
vn -0.5547 -0.7386 0.3831
vn -0.8909 0.0000 0.4542
vn 0.8908 0.0000 0.4544
vn -0.2581 -0.9635 0.0712
vn 0.7238 -0.3884 -0.5703
vn 0.8366 -0.4491 0.3136
vn 0.5525 -0.7159 -0.4269
vn 0.7208 0.5926 0.3597
vn 0.5789 0.4759 -0.6622
vn 0.5789 0.4759 0.6622
vn 0.7238 -0.3884 0.5703
vn 0.1110 0.8498 0.5153
vn -0.1106 0.8500 0.5150
vn -0.7203 0.5931 0.3597
vn -0.5786 0.4763 0.6621
vn -0.8360 -0.4501 0.3137
vn -0.7235 -0.3895 0.5700
vn -0.5786 0.4763 -0.6621
vn -0.7235 -0.3895 -0.5700
vn -0.7203 0.5930 0.3597
vn 0.5540 -0.7390 0.3835
vn 0.9803 -0.0000 -0.1974
vn 0.9803 0.0000 0.1974
vn -0.2581 -0.9635 -0.0712
vn 0.5525 -0.7159 0.4269
vn -0.9808 0.0000 0.1948
vn -0.5547 -0.7386 0.3832
vn -0.9808 0.0000 -0.1948
vn 0.2570 -0.9638 0.0703
vn -0.5546 -0.7386 0.3832
vn 0.2570 -0.9638 -0.0703
vn -0.5512 -0.7175 0.4259
vn -0.5512 -0.7175 -0.4259
vn -0.1106 0.8500 -0.5150
vn 0.1110 0.8498 -0.5153
vn -0.9239 0.3827 -0.0000
vn -0.3827 0.9239 0.0000
vn 0.7071 0.7071 -0.0000
vn 0.9239 -0.3827 0.0000
vn 0.3827 -0.9239 0.0000
vn -0.3827 -0.9239 0.0000
vn -0.9239 -0.3827 0.0000
usemtl Material
s 1
f 1/1/1 2/2/1 3/3/1 4/4/1 5/5/1 6/6/1
f 2/7/2 1/8/3 7/9/3 8/10/2
f 1/11/3 6/12/4 9/13/4 7/14/3
f 6/15/4 5/16/5 10/17/5 9/18/4
f 5/19/5 4/20/6 11/21/6 10/22/5
f 4/23/6 3/24/7 12/25/7 11/26/6
f 3/27/7 2/28/2 8/29/2 12/30/7
f 8/31/8 7/32/8 9/33/8 10/34/8 11/35/8 12/36/8
f 13/37/1 14/38/1 15/39/1 16/40/1 17/41/1 18/42/1
f 14/43/9 13/44/10 19/45/10 20/46/9
f 13/47/10 18/48/11 21/49/11 19/50/10
f 18/48/11 17/51/12 22/52/12 21/49/11
f 17/53/12 16/54/13 23/55/13 22/56/12
f 16/57/13 15/58/14 24/59/14 23/60/13
f 15/58/14 14/61/9 20/62/9 24/59/14
f 20/63/8 19/64/8 21/65/8 22/66/8 23/67/8 24/68/8
f 25/69/5 26/70/5 27/71/5
f 26/70/5 25/69/5 28/72/5
f 28/72/5 25/69/5 29/73/5
f 29/73/5 25/69/5 30/74/5
f 31/75/15 30/76/15 25/77/16 32/78/16
f 33/79/17 34/80/17 30/76/15 31/75/15
f 33/81/17 35/82/18 36/83/18 34/84/17
f 35/82/18 37/85/19 38/86/19 36/83/18
f 39/87/20 40/88/20 38/89/19 37/90/19
f 41/91/21 26/92/21 40/88/20 39/87/20
f 42/93/22 27/94/22 26/95/21 41/96/21
f 32/97/16 25/98/16 27/94/22 42/93/22
f 26/70/5 43/99/5 40/100/5
f 43/99/5 26/70/5 28/72/5
f 44/101/23 45/102/24 43/103/24 28/104/23
f 46/105/5 47/106/5 48/107/5 49/108/5 50/109/5 45/110/5 44/111/5 51/112/5
f 52/113/25 47/114/25 46/115/26 53/116/26
f 52/117/25 54/118/27 48/119/27 47/120/25
f 52/121/5 34/122/5 54/123/5
f 53/124/5 34/122/5 52/121/5
f 53/124/5 30/74/5 34/122/5
f 29/73/5 30/74/5 53/124/5
f 53/116/26 46/115/26 51/125/28 29/126/28
f 51/127/28 44/101/23 28/104/23 29/128/28
f 38/129/5 54/123/5 34/122/5
f 38/129/5 55/130/5 54/123/5
f 40/100/5 55/130/5 38/129/5
f 40/100/5 56/131/5 55/130/5
f 40/100/5 43/99/5 56/131/5
f 43/132/24 45/133/24 50/134/29 56/135/29
f 56/135/29 50/134/29 49/136/30 55/137/30
f 54/118/27 55/138/30 49/139/30 48/119/27
f 38/129/5 34/122/5 36/140/5
f 57/141/31 58/142/32 59/143/33 60/144/34 61/145/35 62/146/36 63/147/37 64/148/38 65/149/39 66/150/40 67/151/41 68/152/42
f 69/153/43 58/154/32 57/155/31 70/156/43
f 71/157/44 59/158/45 58/154/32 69/153/46
f 60/159/47 59/160/45 71/161/44 72/162/48
f 73/163/49 74/164/50 59/160/33 60/159/34
f 73/165/5 75/166/5 76/167/5 77/168/5 78/169/5 79/170/5 80/171/5 81/172/5 82/173/5 83/174/5 84/175/5 74/176/5
f 61/177/35 75/178/51 73/179/49 60/180/34
f 62/181/36 76/182/52 75/178/51 61/177/35
f 63/183/53 77/184/54 76/182/52 62/181/36
f 63/185/53 64/186/55 78/187/56 77/188/54
f 85/189/57 86/190/58 64/186/38 63/185/59
f 71/191/2 69/192/2 70/193/2 87/194/2 88/195/2 89/196/2 90/197/2 86/198/2 85/199/2 91/200/2 92/201/2 72/202/2
f 57/203/60 68/204/42 87/205/61 70/206/61
f 57/203/31 83/207/62 82/208/62 68/204/42
f 58/154/32 84/209/63 83/210/63 57/155/31
f 59/158/33 74/211/50 84/209/64 58/154/32
f 68/212/1 82/213/1 81/214/1 67/215/1
f 66/216/40 67/217/41 81/218/65 80/219/65
f 66/216/66 89/220/67 88/221/67 67/217/41
f 89/222/68 66/223/40 65/224/39 90/225/68
f 66/223/69 80/226/70 79/227/70 65/224/39
f 65/224/39 79/227/71 78/228/56 64/229/55
f 90/225/72 65/224/39 64/229/38 86/230/58
f 87/231/1 68/212/1 67/215/1 88/232/1
f 85/233/57 63/183/59 62/181/36 91/234/73
f 91/234/73 62/181/36 61/177/35 92/235/74
f 92/235/74 61/177/35 60/180/47 72/236/48
f 93/237/75 94/238/75 95/239/75 96/240/75
f 93/241/2 97/242/2 98/243/2 99/244/2 100/245/2 101/246/2 102/247/2 103/248/2 94/249/2
f 97/250/76 93/251/76 96/252/76 104/253/76
f 105/254/5 106/255/5 107/256/5 104/257/5 96/258/5 95/259/5 108/260/5 109/261/5 110/262/5
f 100/263/14 99/264/14 106/265/14 105/266/14
f 107/267/77 106/265/77 99/264/77 98/268/77
f 107/269/8 98/270/8 97/250/8 104/253/8
f 101/271/78 100/263/78 105/266/78 110/272/78
f 102/273/79 101/274/79 110/275/79 109/276/79
f 103/277/80 102/273/80 109/276/80 108/278/80
f 94/238/81 103/279/81 108/280/81 95/239/81
